<svg xmlns="http://www.w3.org/2000/svg" version="1.1" xmlns:xlink="http://www.w3.org/1999/xlink" xmlns:svgjs="http://svgjs.dev/svgjs" width="512" height="512"><svg width="512" height="512" viewBox="0 0 512 512" fill="none" xmlns="http://www.w3.org/2000/svg">
<path d="M12.8026 261.5C17.7283 226.62 28.3016 194.557 44.5224 165.31C60.7433 136.063 81.1245 110.824 105.666 89.5929C130.427 68.3618 158.488 51.7886 189.848 39.8731C221.427 27.9577 254.803 22 289.976 22C325.369 22 357.062 27.9577 385.056 39.8731C413.051 51.7886 436.32 68.3618 454.866 89.5929C473.411 110.824 486.663 136.063 494.624 165.31C502.584 194.557 504.101 226.62 499.176 261.5C494.281 296.163 483.707 328.226 467.456 357.69C451.235 386.937 430.854 412.176 406.312 433.407C381.771 454.638 353.82 471.211 322.46 483.127C291.101 495.042 257.725 501 222.332 501C187.159 501 155.466 495.042 127.252 483.127C99.2573 471.211 75.8777 454.638 57.1128 433.407C38.5678 412.176 25.315 386.937 17.3546 357.69C9.42484 328.226 7.9075 296.163 12.8026 261.5ZM228.803 455.18C257.6 455.18 284.543 450.414 309.631 440.881C334.938 431.349 357.374 418.025 376.938 400.91C396.501 383.796 412.677 363.431 425.464 339.817C438.282 315.986 446.695 289.88 450.703 261.5C454.711 233.12 453.656 207.122 447.538 183.508C441.451 159.677 431.042 139.204 416.313 122.09C401.583 104.975 382.91 91.6511 360.295 82.1187C337.9 72.5864 312.303 67.8202 283.505 67.8202C254.488 67.8202 227.325 72.5864 202.018 82.1187C176.93 91.6511 154.604 104.975 135.041 122.09C115.697 139.204 99.6158 159.677 86.7978 183.508C74.0103 207.122 65.6127 233.12 61.6048 261.5C57.5969 289.88 58.6366 315.986 64.7239 339.817C70.8418 363.431 81.1557 383.796 95.6657 400.91C110.395 418.025 128.958 431.349 151.353 440.881C173.969 450.414 199.785 455.18 228.803 455.18ZM162.918 169.86C163.621 164.877 165.268 160.219 167.859 155.886C170.48 151.336 173.668 147.437 177.425 144.187C181.432 140.721 185.771 138.013 190.443 136.063C195.335 134.113 200.309 133.138 205.365 133.138H340.23C345.286 133.138 349.875 134.113 353.996 136.063C358.337 138.013 361.912 140.721 364.72 144.187C367.778 147.437 369.975 151.336 371.311 155.886C372.678 160.219 373.009 164.877 372.305 169.86L366.385 211.78H320.551L325.278 178.309H207.559L184.063 344.691H301.781L306.462 311.545H352.297L346.377 353.465C345.673 358.448 344.011 363.214 341.39 367.764C338.799 372.097 335.516 375.888 331.54 379.138C327.784 382.387 323.46 384.987 318.568 386.937C313.896 388.887 309.032 389.862 303.976 389.862H169.11C164.054 389.862 159.356 388.887 155.015 386.937C150.893 384.987 147.303 382.387 144.245 379.138C141.407 375.888 139.304 372.097 137.937 367.764C136.601 363.214 136.285 358.448 136.989 353.465L162.918 169.86Z" fill="#EB1C24"></path>
</svg><style>@media (prefers-color-scheme: light) { :root { filter: none; } }
@media (prefers-color-scheme: dark) { :root { filter: none; } }
</style></svg>