<svg width="86" height="19" fill="none" xmlns="http://www.w3.org/2000/svg"><path fill-rule="evenodd" clip-rule="evenodd" d="M0 .713h17.37v17.37H0V.713zm34.24 8.256c.232.096.454.213.664.35.347.225.632.511.86.842.254.366.425.774.54 1.195.135.503.185 1.03.185 1.547v.857c0 2.868-1.577 4.338-4.665 4.338h-10.26V.647h9.735c3.092 0 4.665 1.478 4.665 4.346v.31c0 .816-.117 1.697-.516 2.435-.284.523-.69.932-1.209 1.23zm6.66-5.495V7.96h9.185v2.827H40.9v4.485h10.758v2.827h-13.8V.647h13.8v2.827H40.901zm24.251 7.677l3.488 6.947h-3.375l-3.406-6.824h-5.405v6.824h-3.042V.647h10.26c3.091 0 4.665 1.478 4.665 4.346v1.942c0 2.157-.888 3.76-3.185 4.216zm17.805-7.677H73.41v11.797h9.547v-3.754h-4.983V8.69H86v6.776c0 .353-.074.693-.222 1.018a2.565 2.565 0 01-.608.841 2.793 2.793 0 01-.902.567c-.35.138-.72.206-1.1.206H73.2a2.98 2.98 0 01-1.1-.206 2.772 2.772 0 01-.9-.564 2.566 2.566 0 01-.611-.844 2.437 2.437 0 01-.222-1.018V3.28c0-.353.074-.693.222-1.018a2.58 2.58 0 01.61-.839c.26-.24.562-.426.897-.564.352-.144.72-.211 1.104-.211h9.967a2.94 2.94 0 012 .774A2.52 2.52 0 0186 3.274v2.393h-3.043V3.474zm-58.403 7.19v4.656h7.196c.455 0 1.017-.066 1.347-.39.332-.327.401-.855.401-1.284v-1.32c0-.423-.065-.963-.4-1.282-.33-.317-.898-.38-1.348-.38h-7.196zm0-7.239v4.46h6.844c.425-.015.92-.1 1.212-.415.301-.324.364-.835.364-1.246V5.107c0-.431-.07-.964-.406-1.291-.33-.323-.888-.39-1.343-.39h-6.67zm31.9 5.021h7.078c.448 0 1.03-.058 1.364-.369.335-.31.398-.852.398-1.268V5.111c0-.416-.063-.957-.398-1.267-.334-.311-.916-.37-1.364-.37h-7.078v4.972z" fill="#035"/><path fill-rule="evenodd" clip-rule="evenodd" d="M4.135 1.74v.488h-2.66v.77H2.77a.77.77 0 01.69.415L6.878 9.66c.287.523.648.748 1.42.748l1.18.006a.75.75 0 00.386-.1c.568-.317 1.143-.992.903-1.677a2.343 2.343 0 112.77 0c-.24.686.338 1.362.907 1.68a.748.748 0 00.38.098h.573c.205 0 .373.168.373.374v1.835a.375.375 0 01-.373.373H8.506c-1.52 0-2.719-.933-3.404-2.22l-.827-1.55c-.538-.9-.495-1.208-1.036-1.307H.987V1.74h3.148zm5.764 11.6h4.505c.085 0 .155.07.155.155v.76c0 .086-.07.155-.155.155h-.732v.78c0 .121-.1.221-.222.221h-2.596a.223.223 0 01-.222-.222v-.779h-.733a.155.155 0 01-.155-.154v-.761c0-.086.07-.155.155-.155zm3.444-11.6v.488h2.66v2.434h.488V1.74h-3.148zm0 15.545v-.488h2.66v-2.434h.488v2.922h-3.148zm-9.208 0v-.488h-2.66v-2.434H.987v2.922h3.148z" fill="#fff"/></svg>