<svg width="67" height="21" fill="none" xmlns="http://www.w3.org/2000/svg"><g clip-path="url(#clip0_816_17856)" fill-rule="evenodd" clip-rule="evenodd"><path d="M59.614 20.316c-.492 0-.783-.298-.783-.728 0-.512.408-.955.999-.955.21 0 .414.055.59.16l.318-.36a1.497 1.497 0 00-.88-.261c-.907 0-1.582.667-1.582 1.46 0 .684.5 1.148 1.251 1.148.285 0 .547-.064.791-.193l-.297-.337a1.3 1.3 0 01-.407.066zm5.11-.928l-.463-.24c-.135-.072-.212-.156-.212-.282 0-.19.18-.28.402-.28.198 0 .386.072.556.181l.312-.351a1.656 1.656 0 00-.854-.244c-.54 0-.955.288-.955.742 0 .277.164.498.477.65l.471.234c.146.074.197.173.197.274 0 .2-.204.288-.438.288-.245 0-.489-.093-.696-.243l-.296.334c.252.227.606.33.934.33.558 0 1.032-.299 1.032-.763 0-.268-.157-.468-.467-.63zm-2.553-.75c.26 0 .409.173.409.407 0 .302-.248.55-.591.55h-.34l.201-.957h.321zm-1.288 2.109h.525l.15-.722h.43c.654 0 1.143-.468 1.143-1.024 0-.492-.383-.797-.92-.797h-.799l-.53 2.543zm-4.39-.763l.547-.789.213.79h-.76zm.97.763h.562l-.796-2.545-1.852 2.545h.59l.263-.383h1.13l.103.383zm-3.484.004H1.617V18.2h54.217l-1.851 2.544-.004.006z" fill="#00AEEF"/><path d="M66.539 13.09c0 1.441-1.572 2.557-3.511 2.557l-15.343-.002v-3.419h15.172V9.608l-12.652.005c-1.939 0-3.516-1.23-3.516-2.671l.011-4.485c.117-1.363 1.641-2.456 3.504-2.456h14.517l.001 3.42H50.376v2.77h12.652c1.939 0 3.51 1.253 3.51 2.695v4.204zm-26.91 2.556h3.681V0h-3.682v15.645zM36.243 3.423l-8.697-.006v12.229h-3.682l.002-13.052C23.888 1.167 25.45 0 27.375 0h8.87v3.423zm-32.15 8.803H16.5V3.42H4.094v8.806zM16.675.001H3.87C1.93 0 .41 1.169.41 2.61v10.465c0 1.441 1.555 2.57 3.494 2.57H16.71c1.939 0 3.476-1.129 3.476-2.57V2.61c0-1.441-1.572-2.61-3.511-2.61z" fill="#091255"/></g><defs><clipPath id="clip0_816_17856"><path fill="#fff" d="M0 0h67v21H0z"/></clipPath></defs></svg>