<svg width="91" height="28" fill="none" xmlns="http://www.w3.org/2000/svg"><g clip-path="url(#clip0_816_17807)"><path d="M0 13.92l44.87 13.877 45.232-13.831L44.87 0 0 13.92z" fill="#231F20"/><path d="M70.28 17.39c.18 0 .27.135.27.27v4.685a.29.29 0 01-.27.27h-9.01c-.136 0-.27-.134-.27-.315V4.055c0-.135.134-.36.315-.36h4.234a.29.29 0 01.27.27v13.2c0 .09.09.18.136.18h4.325v.045zm7.793-7.569c-.135 0-.27-.09-.315-.27-.135-.586-.406-.901-.766-.901-.27 0-.36.18-.36.45 0 .811 1.17 1.712 2.703 2.748 1.621 1.127 2.883 2.929 2.883 4.776 0 3.379-2.028 6.082-5.316 6.082-3.83 0-5.587-2.749-5.587-6.803 0-.135.09-.27.316-.27l3.469-.18c.18 0 .27.09.315.315.09.99.54 2.072 1.126 2.072.36 0 .586-.225.586-.81 0-.587-1.397-1.713-3.108-3.064-1.667-1.352-2.523-3.244-2.523-4.956 0-2.568 1.892-5.361 5.27-5.361 3.38 0 5.452 2.658 5.452 5.631 0 .18-.09.316-.316.316l-3.829.225zM13.2 22.57a.355.355 0 01-.36-.36V9.1a.308.308 0 00-.316-.315h-2.522c-.136 0-.316-.18-.316-.36v-4.46c0-.136.09-.27.225-.27H20.68c.18 0 .315.09.315.315v4.415c0 .18-.135.36-.36.36H18.11c-.18 0-.316.135-.316.36v13.11c0 .18-.135.316-.36.316H13.2zM28.157 3.74c.18 0 .315.135.315.315l3.424 17.975c.045.27-.09.54-.36.54H27.48c-.135 0-.315-.09-.315-.27l-.496-3.784c-.045-.135-.135-.18-.27-.18h-1.352c-.09 0-.18.09-.225.27l-.495 3.694c-.046.18-.18.27-.316.27h-4.145c-.225 0-.36-.18-.315-.405L22.976 4.01c.045-.135.135-.316.315-.316h4.866v.045zm-2.208 9.46c-.045-.36-.09-.586-.18-.586s-.135.18-.18.586l-.316 2.388c-.044.135.046.27.136.27.81 0 .9 0 .856-.225l-.316-2.433zm30.725-9.46c.18 0 .315.134.315.314l3.424 17.976c.045.27-.09.54-.36.54h-4.055c-.135 0-.315-.09-.315-.27l-.496-3.784c-.045-.135-.135-.18-.27-.18h-1.352c-.09 0-.18.09-.225.27l-.495 3.694c-.045.18-.18.27-.316.27h-4.144c-.226 0-.36-.18-.316-.405l3.38-18.11c.044-.136.134-.316.315-.316h4.91zm-2.207 9.46c-.045-.36-.09-.586-.18-.586s-.136.18-.18.586l-.316 2.387c-.045.136.045.27.135.27.81 0 .9 0 .856-.224l-.315-2.433zm-18.335-1.352c.045.135.09.18.135.18.045 0 .135-.09.135-.18l1.036-7.794c.045-.18.135-.315.315-.315h4.325c.135 0 .27.135.225.315L38.79 22.3c-.045.18-.136.315-.316.315h-4.91c-.136 0-.27-.18-.316-.315L29.87 4.01c-.046-.136.045-.27.18-.27h4.505c.135 0 .27.09.315.27l1.262 7.838zm3.243 10.722c-.18 0-.315-.18-.315-.36l3.469-18.245c0-.136.09-.27.225-.27h8.2c.18 0 .315.09.315.27l-3.424 18.29c0 .136-.136.316-.316.316h-8.154z" fill="#fff" stroke="#231F20" stroke-width=".451" stroke-miterlimit="10"/><path d="M42.663 3.74v18.83m3.65-18.876v18.832M43.88 3.74v18.83m1.171-18.83v18.83M47.53 3.56v18.83" stroke="#231F20" stroke-width=".451" stroke-miterlimit="10"/></g><defs><clipPath id="clip0_816_17807"><path fill="#fff" d="M0 0h90.102v27.931H0z"/></clipPath></defs></svg>