<svg width="82" height="16" fill="none" xmlns="http://www.w3.org/2000/svg"><g clip-path="url(#clip0_816_17863)" fill="#FF0A07"><path d="M5.14.647H0v14.459h17.272V4.739H5.14V.647zm6.99 6.814v4.569H5.14V7.46h6.99zm7.002 7.645h17.272V4.739H19.132v10.367zm5.14-7.645h6.99v4.568h-6.99V7.461zm13.991 3.423h12.133v1.145H38.263v3.077h17.273v-6.5H43.404V7.46h12.132V4.739H38.263v6.145zm19.132-3.423h12.131v1.145h-12.13v6.5h17.272V4.739H57.395v2.722zm12.131 4.568h-6.99v-1.145h6.99v1.145zM81.668.647h-5.14v14.459h5.14V.646z"/></g><defs><clipPath id="clip0_816_17863"><path fill="#fff" transform="translate(0 .647)" d="M0 0h81.668v14.459H0z"/></clipPath></defs></svg>