<svg width="1439" height="169" fill="none" xmlns="http://www.w3.org/2000/svg"><path fill-rule="evenodd" clip-rule="evenodd" d="M1313.71 64.016c1.3-9.252 4.09-17.758 8.37-25.516 4.29-7.759 9.67-14.454 16.14-20.086 6.54-5.632 13.95-10.028 22.23-13.19 8.34-3.16 17.15-4.74 26.43-4.74 9.35 0 17.71 1.58 25.1 4.74 7.39 3.162 13.54 7.558 18.43 13.19 4.9 5.632 8.4 12.327 10.5 20.086 2.1 7.758 2.5 16.264 1.2 25.516-1.29 9.196-4.08 17.701-8.37 25.517-4.29 7.759-9.67 14.454-16.15 20.086-6.47 5.632-13.85 10.029-22.13 13.189a71.109 71.109 0 01-6.74 2.192H1440v44H-1v-47.709a14.561 14.561 0 01-.588-.638c-1.4-1.609-2.413-3.477-3.043-5.603-.622-2.184-.763-4.483-.424-6.896l2.23-15.862H15.02l-2.229 15.862h62.33l4.955-35.258H19.487c-2.437 0-4.694-.46-6.77-1.38-2.01-.977-3.719-2.24-5.125-3.793-1.4-1.609-2.414-3.477-3.043-5.603-.622-2.184-.763-4.483-.424-6.896L9.092 19.88a18.712 18.712 0 012.35-6.81c1.236-2.184 2.775-4.052 4.618-5.604a21.84 21.84 0 016.192-3.793c2.342-.977 4.732-1.466 7.17-1.466H90.01c2.438 0 4.661.489 6.671 1.466 2.076.92 3.814 2.184 5.213 3.793 1.407 1.552 2.421 3.42 3.043 5.603.629 2.127.774 4.397.435 6.81l-2.241 15.948H85.285l2.242-15.947H26.938l-4.967 35.344h60.588c2.438 0 4.666.46 6.684 1.379 2.076.92 3.813 2.184 5.212 3.793 1.399 1.61 2.409 3.506 3.03 5.69.63 2.126.775 4.396.436 6.81l-4.955 35.258a19.384 19.384 0 01-2.362 6.896 21.843 21.843 0 01-4.618 5.603 21.495 21.495 0 01-6.278 3.793c-.516.208-1.035.393-1.558.554h18.226L161.452 2.207h17.846L209.859 125h5.691L232.807 2.207h19.5l34.446 93.102 60.702-93.102h19.413L349.61 125h5.778L420.464 2.207h17.846L468.871 125h5.691L491.819 2.207h68.336c20.196 0 28.885 10.029 26.066 30.086l-1.975 14.051c-2.423 17.242-11.232 27.069-26.429 29.483L574.023 125h2.597L641.695 2.207h17.846L690.102 125h43.096L750.455 2.207h68.336c20.196 0 28.885 10.029 26.066 30.086l-2.472 17.586c-2.818 20.057-14.326 30.086-34.522 30.086h-50.49L751.043 125h89.723L858.024 2.207h68.336c20.196 0 28.885 10.029 26.066 30.086l-1.975 14.051c-2.423 17.242-11.233 27.069-26.429 29.483L940.227 125h12.983L970.467 2.207h17.846L971.056 125h28.473a15.719 15.719 0 01-1.437-.554c-2.018-.919-3.727-2.184-5.125-3.793-1.399-1.609-2.414-3.477-3.043-5.603-.622-2.184-.763-4.483-.424-6.896l12.41-88.274a18.678 18.678 0 012.35-6.81c1.23-2.184 2.77-4.052 4.61-5.604a21.96 21.96 0 016.2-3.793c2.34-.977 4.73-1.466 7.17-1.466h67.72c2.44 0 4.66.489 6.67 1.466 2.08.92 3.82 2.184 5.22 3.793 1.4 1.552 2.42 3.42 3.04 5.603.63 2.127.77 4.397.43 6.81l-2.24 15.948h-17.84l2.24-15.947h-67.73l-12.4 88.274h67.72l2.23-15.862h17.85l-2.23 15.862c-.34 2.413-1.13 4.712-2.36 6.896a21.928 21.928 0 01-4.62 5.603 21.547 21.547 0 01-6.28 3.793c-.52.208-1.03.393-1.56.554h24.96l17.26-122.793h90.97l-2.49 17.672h-73.12l-4.97 35.345h62.42l-2.49 17.672h-62.41l-4.96 35.258h73.13L1194.03 125h10.68l17.25-122.793h68.34c20.2 0 28.89 10.029 26.07 30.086l-2.47 17.586c-2.82 20.057-14.33 30.086-34.53 30.086h-50.49L1222.55 125h127.53a55.806 55.806 0 01-6.16-2.192c-7.39-3.16-13.56-7.557-18.51-13.189-4.9-5.632-8.4-12.327-10.5-20.086-2.09-7.816-2.49-16.321-1.2-25.517zM920.467 125l-15.942-48.57h-39.087L858.612 125h61.855zm-248.21 0l-6.853-27.622h-56.323L594.465 125h77.792zm-117.994 0L538.32 76.43h-39.086L492.407 125h61.856zm-103.237 0l-6.853-27.622H387.85L373.233 125h77.793zm-119.174 0l12.617-89.776L285.703 125h46.149zm-52.308 0l-33.531-89.776L233.396 125h46.148zm-87.53 0l-6.853-27.622h-56.323L114.222 125h77.792zm1178.716-9.605c7.61 0 14.72-1.265 21.34-3.793 6.68-2.529 12.61-6.063 17.77-10.603s9.44-9.943 12.81-16.207c3.39-6.322 5.61-13.247 6.66-20.776 1.06-7.528.78-14.424-.83-20.689-1.61-6.321-4.36-11.752-8.24-16.292-3.89-4.54-8.82-8.075-14.79-10.604-5.92-2.528-12.67-3.793-20.28-3.793-7.66 0-14.83 1.265-21.51 3.793-6.62 2.529-12.52 6.063-17.68 10.604-5.11 4.54-9.35 9.97-12.74 16.292-3.37 6.265-5.59 13.161-6.65 20.69-1.06 7.528-.78 14.453.83 20.775 1.61 6.264 4.33 11.666 8.16 16.207 3.89 4.54 8.79 8.074 14.71 10.603 5.97 2.528 12.78 3.793 20.44 3.793zm-17.39-75.688a9.824 9.824 0 011.3-3.707c.7-1.207 1.54-2.241 2.53-3.103 1.06-.92 2.2-1.638 3.44-2.156 1.29-.517 2.6-.776 3.93-.776h35.61c1.33 0 2.55.26 3.63.776 1.15.518 2.09 1.236 2.83 2.156.81.862 1.39 1.896 1.74 3.103.37 1.15.45 2.385.27 3.707l-1.57 11.12h-12.1l1.25-8.879h-31.08l-6.2 44.137H1390l1.23-8.793h12.1l-1.56 11.12a10.427 10.427 0 01-1.31 3.794 11.766 11.766 0 01-2.6 3.017 12.1 12.1 0 01-3.43 2.069 9.86 9.86 0 01-3.85.776h-35.61c-1.33 0-2.57-.26-3.72-.776a9.36 9.36 0 01-2.84-2.07 8.341 8.341 0 01-1.67-3.016c-.35-1.207-.43-2.472-.25-3.793l6.85-48.706zM180.768 79.706h-42.656l29.072-54.482 13.584 54.482zm259.012 0h-42.656l29.072-54.482 13.584 54.482zm61.937-20.948h49.533c4.759 0 8.328-1.034 10.708-3.103 2.38-2.07 3.901-5.46 4.564-10.172l1.732-12.328c.663-4.712.094-8.103-1.704-10.172-1.799-2.069-5.077-3.104-9.836-3.104h-49.533l-5.464 38.879zm159.294 20.948h-42.656l29.072-54.482 13.584 54.482zm98.845-17.414h49.533c4.759 0 8.328-1.034 10.708-3.103 2.38-2.069 3.901-5.46 4.564-10.172l2.229-15.862c.662-4.712.094-8.103-1.704-10.172-1.799-2.069-5.077-3.104-9.836-3.104h-49.533l-5.961 42.413zm157.599-3.534h-49.533l5.464-38.879h49.533c4.758 0 8.037 1.035 9.836 3.104 1.798 2.069 2.366 5.46 1.704 10.172l-1.733 12.328c-.662 4.712-2.183 8.103-4.563 10.172-2.38 2.069-5.95 3.103-10.708 3.103zm363.445 3.534h-49.53l5.96-42.413h49.53c4.76 0 8.04 1.035 9.84 3.104 1.79 2.069 2.36 5.46 1.7 10.172l-2.23 15.862c-.66 4.712-2.18 8.103-4.56 10.172-2.38 2.069-5.95 3.103-10.71 3.103z" fill="#FF0300"/></svg>