<svg width="64" height="64" fill="none" xmlns="http://www.w3.org/2000/svg"><g clip-path="url(#clip0_3028_2220)"><rect width="64" height="64" rx="19.483" fill="#fff"/><rect x="11.554" y="38.267" width="59.556" height="2.31" rx="1.155" fill="#FF0300"/><path d="M35.232 39.418c0 3.06-2.534 5.58-5.709 5.58-3.174 0-5.708-2.52-5.708-5.58s2.534-5.58 5.708-5.58c3.175 0 5.709 2.52 5.709 5.58z" stroke="#FF0300" stroke-width="2.446"/><path d="M15.08 20.498l-2.59 13.385a.88.88 0 00.864 1.047h7.286a.887.887 0 00.758-.43c1.14-1.877 3.312-4.944 8.069-4.944 5.165 0 7.515 3.013 8.562 4.895.162.291.463.48.796.48h18.167a.88.88 0 00.864-.714l2.59-13.384a.88.88 0 00-.864-1.048H15.944a.88.88 0 00-.864.713z" fill="#FF0300"/></g><defs><clipPath id="clip0_3028_2220"><rect width="64" height="64" rx="19.483" fill="#fff"/></clipPath></defs></svg>