<svg width="58" height="27" fill="none" xmlns="http://www.w3.org/2000/svg"><rect x="-.002" y="18.811" width="58" height="2.25" rx="1.125" fill="#FF0A07"/><path d="M23.057 19.933c0 2.98-2.468 5.434-5.559 5.434s-5.56-2.454-5.56-5.434 2.469-5.434 5.56-5.434c3.091 0 5.56 2.453 5.56 5.434z" stroke="#FF0A07" stroke-width="2.382"/><path d="M3.433 1.507L.91 14.542a.857.857 0 00.842 1.02h7.096a.865.865 0 00.739-.418c1.108-1.829 3.224-4.815 7.857-4.815 5.03 0 7.319 2.934 8.338 4.766a.893.893 0 00.776.467H44.25c.411 0 .764-.29.842-.694l2.523-13.035a.857.857 0 00-.842-1.02H4.275a.857.857 0 00-.842.694z" fill="#FF0A07"/></svg>