<svg width="126" height="20" fill="none" xmlns="http://www.w3.org/2000/svg"><path d="M0 4.572h1.536v4.016c.48-.864 1.328-1.328 2.544-1.328 2.368 0 3.504 2.048 3.504 4.432 0 2.384-1.136 4.432-3.504 4.432-1.28 0-2.16-.528-2.624-1.408l-.048 1.216H0V4.572zm1.392 7.12c0 1.552.688 3.008 2.288 3.008 1.632 0 2.304-1.424 2.304-3.008 0-1.632-.672-3.072-2.304-3.072-1.6 0-2.288 1.472-2.288 3.072zm6.818-4.24h1.632l2.432 6.752 2.336-6.752h1.632l-3.408 9.472c-.336.96-.992 1.408-2.032 1.408H9.698v-1.328h.912c.448 0 .704-.176.864-.608l.288-.72h-.48L8.21 7.452zm12.44-3.125h2.938v1.538h.044c.41-.586.9-1.04 1.47-1.362.584-.322 1.25-.484 1.995-.484.716 0 1.367.14 1.951.418.6.278 1.053.77 1.36 1.472.336-.498.79-.937 1.36-1.318.584-.381 1.271-.572 2.06-.572.6 0 1.156.074 1.667.22.512.147.95.381 1.316.703.366.323.65.748.855 1.275.205.513.307 1.135.307 1.868v7.604H34.86v-6.44c0-.38-.014-.74-.043-1.076-.03-.337-.11-.63-.242-.88a1.445 1.445 0 00-.592-.593c-.248-.146-.592-.22-1.03-.22-.439 0-.797.089-1.075.264a1.84 1.84 0 00-.636.66 2.856 2.856 0 00-.307.923 7.988 7.988 0 00-.066 1.033v6.329h-3.113V9.316c0-.337-.008-.667-.022-.99a2.661 2.661 0 00-.198-.922 1.27 1.27 0 00-.548-.66c-.248-.175-.621-.263-1.118-.263a2.23 2.23 0 00-.592.11 1.826 1.826 0 00-.702.373c-.22.176-.41.44-.57.791-.161.337-.241.784-.241 1.34v6.594H20.65V4.327zm21.451 5.692c0 .454.044.9.132 1.34.088.425.234.813.439 1.165.219.337.504.608.855.813.35.205.79.308 1.315.308.527 0 .965-.103 1.316-.308.366-.205.65-.476.855-.813.22-.351.373-.74.46-1.165a6.835 6.835 0 000-2.68 3.294 3.294 0 00-.46-1.165 2.287 2.287 0 00-.855-.814c-.35-.22-.79-.33-1.316-.33s-.964.11-1.315.33a2.534 2.534 0 00-.855.814 3.594 3.594 0 00-.44 1.164c-.087.44-.13.887-.13 1.34zm-3.114 0c0-.909.14-1.729.417-2.461.278-.748.673-1.378 1.184-1.89a5.106 5.106 0 011.842-1.21c.717-.292 1.52-.439 2.412-.439.892 0 1.696.147 2.413.44a5.072 5.072 0 011.863 1.209c.512.512.907 1.142 1.185 1.89.277.732.416 1.552.416 2.46 0 .91-.139 1.73-.416 2.462a5.457 5.457 0 01-1.184 1.89 5.217 5.217 0 01-1.864 1.187c-.717.278-1.52.417-2.413.417-.891 0-1.695-.139-2.412-.417a5.255 5.255 0 01-1.842-1.187 5.455 5.455 0 01-1.184-1.89c-.278-.732-.417-1.553-.417-2.461zm15.073 1.978c0 .337.065.63.197.879.146.234.329.432.548.593.22.147.468.256.746.33a3.688 3.688 0 001.579.044 2.67 2.67 0 00.657-.242c.205-.117.373-.264.505-.44a1.21 1.21 0 00.197-.703c0-.469-.314-.82-.943-1.055-.614-.234-1.476-.469-2.587-.703-.454-.102-.9-.22-1.338-.351a5.15 5.15 0 01-1.14-.55 2.826 2.826 0 01-.812-.857c-.204-.352-.307-.776-.307-1.275 0-.732.14-1.333.417-1.802a3.153 3.153 0 011.14-1.098 4.618 4.618 0 011.58-.572 9.128 9.128 0 011.797-.176 8.8 8.8 0 011.776.176 4.719 4.719 0 011.557.594c.454.278.826.652 1.119 1.12.307.455.49 1.033.548 1.736h-2.96c-.044-.6-.27-1.003-.68-1.208-.41-.22-.892-.33-1.447-.33a4.04 4.04 0 00-.57.044 1.804 1.804 0 00-.57.132c-.162.073-.3.183-.417.33-.117.131-.176.315-.176.549 0 .278.103.505.307.681.205.176.468.323.79.44.336.102.716.198 1.14.285.424.088.855.184 1.294.286.453.103.892.227 1.315.374.439.146.826.344 1.163.593.336.235.606.535.811.901.205.352.307.791.307 1.319 0 .747-.154 1.377-.46 1.89-.293.498-.68.9-1.163 1.208a4.651 4.651 0 01-1.666.638 8.953 8.953 0 01-1.886.197 9.373 9.373 0 01-1.93-.197 5.21 5.21 0 01-1.688-.66 3.958 3.958 0 01-1.206-1.208c-.307-.513-.475-1.15-.505-1.912h2.96zm15.988-3.67c-.205-1.304-.972-1.956-2.303-1.956-.497 0-.913.117-1.25.351-.336.22-.614.513-.833.88-.205.351-.35.747-.438 1.186a6.186 6.186 0 000 2.527c.087.425.226.813.416 1.165a2.6 2.6 0 00.812.835c.336.22.745.33 1.228.33.745 0 1.315-.205 1.71-.615.41-.425.665-.99.767-1.693h3.005c-.205 1.51-.79 2.66-1.755 3.45-.964.792-2.2 1.187-3.706 1.187-.847 0-1.63-.139-2.346-.417a5.33 5.33 0 01-1.798-1.209 5.482 5.482 0 01-1.162-1.824 6.464 6.464 0 01-.417-2.351c0-.88.124-1.692.373-2.44a5.52 5.52 0 011.14-1.956 5.105 5.105 0 011.82-1.296c.717-.308 1.535-.462 2.456-.462.673 0 1.316.088 1.93.264a4.915 4.915 0 011.667.813c.497.352.899.799 1.206 1.34.307.528.482 1.158.526 1.89h-3.048zm6.539 1.692c0 .454.044.9.132 1.34.088.425.234.813.439 1.165.219.337.504.608.855.813.35.205.79.308 1.315.308.527 0 .965-.103 1.316-.308.366-.205.65-.476.855-.813.22-.351.373-.74.46-1.165a6.835 6.835 0 000-2.68 3.294 3.294 0 00-.46-1.165 2.287 2.287 0 00-.855-.814c-.35-.22-.79-.33-1.316-.33s-.964.11-1.315.33a2.546 2.546 0 00-.856.814c-.204.337-.35.725-.438 1.164-.088.44-.132.887-.132 1.34zm-3.114 0c0-.909.14-1.729.417-2.461.278-.748.673-1.378 1.184-1.89a5.106 5.106 0 011.842-1.21c.717-.292 1.52-.439 2.412-.439.892 0 1.696.147 2.412.44a5.072 5.072 0 011.865 1.209c.511.512.906 1.142 1.184 1.89.277.732.416 1.552.416 2.46 0 .91-.139 1.73-.416 2.462a5.457 5.457 0 01-1.184 1.89 5.217 5.217 0 01-1.865 1.187c-.716.278-1.52.417-2.412.417-.891 0-1.695-.139-2.412-.417a5.255 5.255 0 01-1.842-1.187 5.455 5.455 0 01-1.184-1.89c-.278-.732-.416-1.553-.416-2.461zm25.62 5.67h-3.201l-2.018-7.626h-.044l-1.93 7.626h-3.223L85.081 4.327h3.29l2.082 7.714h.044l1.886-7.714h3.026l1.93 7.692h.044l2.083-7.692h3.202L99.093 15.69zm11.435-6.901c-.146-.791-.409-1.392-.79-1.802-.365-.41-.928-.615-1.688-.615-.497 0-.914.088-1.25.264a2.377 2.377 0 00-.789.615c-.19.249-.329.513-.417.791a4.08 4.08 0 00-.132.747h5.066zm-5.066 1.978c.044 1.01.3 1.743.768 2.198.468.454 1.14.68 2.017.68.629 0 1.17-.153 1.623-.46.453-.323.731-.66.833-1.011h2.741c-.438 1.362-1.111 2.336-2.017 2.922-.906.586-2.003.88-3.289.88-.892 0-1.696-.14-2.412-.418a5.14 5.14 0 01-1.821-1.23 5.634 5.634 0 01-1.162-1.89c-.263-.733-.394-1.54-.394-2.418 0-.85.138-1.641.416-2.374a5.468 5.468 0 011.184-1.89 5.534 5.534 0 011.82-1.274c.717-.308 1.506-.462 2.369-.462.965 0 1.805.19 2.521.572a4.831 4.831 0 011.755 1.494c.468.63.804 1.348 1.008 2.154.205.806.278 1.648.22 2.527h-8.18zm17.241-.747c0-.484-.051-.945-.153-1.385a3.643 3.643 0 00-.483-1.164 2.39 2.39 0 00-.833-.792c-.322-.205-.717-.307-1.184-.307-.454 0-.848.102-1.184.307a2.39 2.39 0 00-.834.792 3.62 3.62 0 00-.482 1.164 6.05 6.05 0 00-.154 1.385c0 .469.051.923.154 1.362.102.44.263.828.482 1.165a2.6 2.6 0 00.834.813c.336.19.73.286 1.184.286.467 0 .862-.095 1.184-.286.336-.205.614-.476.833-.813a3.64 3.64 0 00.483-1.165c.102-.44.153-.893.153-1.362zM114.392-.002h3.114v5.714h.044a3.27 3.27 0 011.535-1.275 5.182 5.182 0 012.039-.418c.57 0 1.133.118 1.689.352a4.228 4.228 0 011.491 1.077c.453.483.818 1.106 1.096 1.868.278.747.417 1.64.417 2.68 0 1.041-.139 1.942-.417 2.704-.278.747-.643 1.362-1.096 1.846a4.228 4.228 0 01-1.491 1.077 4.313 4.313 0 01-1.689.351c-.833 0-1.579-.132-2.237-.395a2.846 2.846 0 01-1.491-1.34h-.044v1.45h-2.96V-.002z" fill="#fff"/></svg>