<svg width="82" height="82" fill="none" xmlns="http://www.w3.org/2000/svg"><g clip-path="url(#clip0_958_9560)"><path fill-rule="evenodd" clip-rule="evenodd" d="M40.956 20.69c5.683 0 10.292.81 10.292 1.81 0 .999-4.609 1.809-10.292 1.809s-10.292-.81-10.292-1.81c0-.999 4.609-1.81 10.292-1.81z" fill="#A92926" stroke="#70614E" stroke-width=".205" stroke-linecap="round" stroke-linejoin="round"/><path fill-rule="evenodd" clip-rule="evenodd" d="M20.87 60.788c2.073.131.383-2.684 2.132-4.638-1.675-.548-1.58.994-2.959 1.186l.827 3.452z" fill="#F8C300" stroke="#70614E" stroke-width=".246" stroke-linecap="round" stroke-linejoin="round"/><path fill-rule="evenodd" clip-rule="evenodd" d="M65.531 32.216c.681-1.014 2.095-1.426.933-2.77.41.455.244 1.108-.38 1.529l-.553 1.241z" fill="#007CC3" stroke="#007CC3" stroke-width=".246" stroke-linecap="round" stroke-linejoin="round"/><path fill-rule="evenodd" clip-rule="evenodd" d="M61.148 37.489l3.842-.005c-.106-.343-.148-.769-.147-1.35a7.76 7.76 0 00-.091-1.277c-.172-1.021-.565-1.398-.953-1.73.554-1.003-.1-1.75.693-1.74 1.843.023 2.658-1.258 1.936-1.98-.341-.338-1.022-.553-2.098-.452a1.566 1.566 0 00-.05.006v-.002c-1.963.287-2.335 2.082-3.05 2.74-.784.724-3.244 1.927-.186 5.637.037.045.072.096.104.153zm3.733 18.789a7.993 7.993 0 00.422-2.385c.052-2.317-.36-2.132-.432-3.023-.058-.728 1.215-.988 2.085-2.263l.057-.087.013-.022a2.77 2.77 0 00.052-.087c.926-1.651-.381-3.652-2.3-5.143-.146.743-1.215 3.595-2.764 4.895-.839.704-.688 2.879-.324 4.276.242.93.162 1.245.12 2.136a5.175 5.175 0 01-.325 1.614l3.396.089z" fill="#007CC3" stroke="#007CC3" stroke-width=".246" stroke-linecap="round" stroke-linejoin="round"/><path d="M64.779 43.266c-.145.738-1.214 3.596-2.765 4.898-.839.704-.688 2.878-.324 4.275.242.93.162 1.246.12 2.137-.023.51.056.904.176 1.256" stroke="#0F488E" stroke-width=".246" stroke-linecap="round" stroke-linejoin="round"/><path fill-rule="evenodd" clip-rule="evenodd" d="M44.853 69.903l3.12 3.923 1.377-4.855c.18-1.683-.452-1.808-1.373-1.085-.492.386-.742-1.014-1.403-.66-.446.24-.025 1.339-.358 1.662-.444.43-1.818-.704-1.363 1.015z" fill="#F8C300" stroke="#70614E" stroke-width=".246" stroke-linecap="round" stroke-linejoin="round"/><path d="M47.903 68.776c-.685.484-1.233 1.303-1.68 2.364" stroke="#70614E" stroke-width=".246" stroke-linecap="round" stroke-linejoin="round"/><path fill-rule="evenodd" clip-rule="evenodd" d="M50.96 76.732l4.098.55-.24 4.237c-.06 1.422-.966 2.252-1.656 1.447-.632-.738-.177-1.646-1.215-1.531-1.488.164-.14-1.636-.943-1.669-.847-.035-.998-.28-.744-1.327.18-.742.53-1.515.7-1.707z" fill="#F8C300" stroke="#70614E" stroke-width=".246" stroke-linecap="round" stroke-linejoin="round"/><path fill-rule="evenodd" clip-rule="evenodd" d="M50.965 76.73l.755-1.934c.916.163 2.003.152 2.75.448 1.49.589.757 1.173 1.303 1.363 1.264.439 1.871.702 1.721 1.647-.193 1.216.34 1.908-.04 2.435-.344.479-.902.09-1.574.03-.39-.035-1.13.514-1.56.332-.453-.193-.15-1.156-.413-1.387-.336-.294-.852.326-1.19.05-.337-.274-.032-1.229-.294-1.794-.308-.66-1.202.712-1.458-1.19z" fill="#F8C300" stroke="#70614E" stroke-width=".246" stroke-linecap="round" stroke-linejoin="round"/><path d="M51.441 75.503c2.407.548 3.765 1.795 4.536 3.434m-2.895-1.572l.113-1.26.995-.001" stroke="#70614E" stroke-width=".246" stroke-linecap="round" stroke-linejoin="round"/><path d="M54.227 78.608l.085-1.806.8.154" stroke="#70614E" stroke-width=".246" stroke-linecap="round" stroke-linejoin="round"/><path fill-rule="evenodd" clip-rule="evenodd" d="M68.483 53.9l.34-.792c-.637-.256-1.132.167-.34.792zm.329-.757l-.312.72c.91.424 1.2-.332.312-.72zm-1.798-13.481l.002-1.734c-1.21.052-1.735 1.378-.002 1.734zm.004-1.674l-.002 1.606c1.886.272 2.136-1.653.002-1.606zm.33-14.038l.768-.912c-.74-.594-1.66-.035-.768.912z" fill="#F8C300" stroke="#70614E" stroke-width=".246" stroke-linecap="round" stroke-linejoin="round"/><path fill-rule="evenodd" clip-rule="evenodd" d="M68.08 23.077l-.701.828c1.035.927 1.722.043.701-.828zm3.6 46.583l7.623 2.129c.396.321.228 1.276.453 1.51.773.806.926 1.532.63 1.96-.201.294-1.175.134-1.932-.093-.865-.26-1.628.049-1.932-.032-.69-.183-.714-.828-1.506-1.544-.445-.402-.98-.004-1.354-.64-.635-1.08-.623-1.78-1.982-3.29z" fill="#F8C300" stroke="#70614E" stroke-width=".246" stroke-linecap="round" stroke-linejoin="round"/><path d="M78.226 73.994c-1.591-1.329-4.067-2.882-6.546-4.334m6.36 3.143l-1.4-.02.22 1.122" stroke="#70614E" stroke-width=".246" stroke-linecap="round" stroke-linejoin="round"/><path d="M74.996 72.644l.038-.934.914.095" stroke="#70614E" stroke-width=".246" stroke-linecap="round" stroke-linejoin="round"/><path fill-rule="evenodd" clip-rule="evenodd" d="M71.68 69.66l.193-.484c1.642-.064 2.023-.676 2.81-1.187 1.131-.735.72.88 1.194.9.543.022 1.024-.894 1.412-1.086 1.062-.523.808.918 1.283.934.512.017.844-.552 1.49-.577.466-.018.261.615.551.833.286.216 1.095.076 1.051.617-.051.638-1.125.629-1.262 1.087-.19.63-.062 1.442-1.05.823-1.411-.884-1.148 1.486-2.54.003-1.107-1.18-1.791.524-2.454-.028-1.04-.868-.904-.91-2.678-1.835z" fill="#F8C300" stroke="#70614E" stroke-width=".246" stroke-linecap="round" stroke-linejoin="round"/><path d="M71.777 69.423c1.407.499 4.627.587 7.23.483m-1.052-.756l-1.135.798.841.799" stroke="#70614E" stroke-width=".246" stroke-linecap="round" stroke-linejoin="round"/><path d="M74.76 69.066l-.483.778.463.672" stroke="#70614E" stroke-width=".246" stroke-linecap="round" stroke-linejoin="round"/><path fill-rule="evenodd" clip-rule="evenodd" d="M67.844 65.66l.609 3.885c1.224-.008 1.168-2.022 2.215-2.967.453-.409.61-1.053.18-1.278-.67-.351-1.22.812-2.025-.063-.281-.304-.698-.358-.98.422zm-1.551-5.247l.389-.583c1.38-.154 4.572-.931 5.49-.674 1.149.322.041.818 2.103 2.391.76.58.688 2.331.423 3.053-.33.903-1.085.861-1.251.405-.54-1.479-1.287.746-1.56-1.16-.22-1.527-1.273.519-1.692-.85-.7-2.294-1.17.08-1.764-1.032-.71-1.327-.888-1.503-2.138-1.55z" fill="#F8C300" stroke="#70614E" stroke-width=".246" stroke-linecap="round" stroke-linejoin="round"/><path d="M66.691 59.826c2.708-.453 4.825.832 6.019 2.647m-2-.914l-.604-1.335.756-.036" stroke="#70614E" stroke-width=".246" stroke-linecap="round" stroke-linejoin="round"/><path d="M69.09 60.854l-.309-1.033.443-.186m3.216 1.921l-.877-.401.403 1.227" stroke="#70614E" stroke-width=".246" stroke-linecap="round" stroke-linejoin="round"/><path fill-rule="evenodd" clip-rule="evenodd" d="M71.606 55.906c.958-2.424.058-2.98-.459-1.943-.298.598-1.185-.238-1.357.826-.238 1.476-.934.127-.89 2.022l2.706-.905z" fill="#F8C300" stroke="#70614E" stroke-width=".246" stroke-linecap="round" stroke-linejoin="round"/><path fill-rule="evenodd" clip-rule="evenodd" d="M67.065 59.142l-.37.693c.561-.32 1.163-.78 1.68-.727 1.625.167.872-1.164 2.52-.49 1.463.597.926-1.607 2.59-.019.879.84 1.186-.362 1.294-1.14.07-.493 1.078-.808 1.03-1.48-.067-.936-1.605.108-1.746-.863-.098-.67-.824-.74-1.143-.224-1.364 2.204-1.184-1.433-2.354.388-.826 1.287-1.986-.518-1.962 1.603.014 1.215.057 1.03-1.539 2.259z" fill="#F8C300" stroke="#70614E" stroke-width=".246" stroke-linecap="round" stroke-linejoin="round"/><path d="M66.93 59.395c2.947-1.249 3.37-2.927 6.426-2.609m-2.248 1.295l-.971-.604.82-.972" stroke="#70614E" stroke-width=".246" stroke-linecap="round" stroke-linejoin="round"/><path d="M72.51 57.156l-.432-.378.288-.126" stroke="#70614E" stroke-width=".246" stroke-linecap="round" stroke-linejoin="round"/><path fill-rule="evenodd" clip-rule="evenodd" d="M70.474 45.747l.746-.947c-.677-.465-1.477-.054-.746.947z" fill="#F8C300" stroke="#70614E" stroke-width=".246" stroke-linecap="round" stroke-linejoin="round"/><path fill-rule="evenodd" clip-rule="evenodd" d="M69.526 45.548l.288.21c6.338-9.487 3.541-9.087 3.234-8.48-.716 1.418-1.08.098-1.489 1.146-.441 1.13-.85.127-.944 1.12-.183 1.934-1.257.25-1.075 1.748.287 2.35.083 3.166-.014 4.256z" fill="#F8C300" stroke="#70614E" stroke-width=".246" stroke-linecap="round" stroke-linejoin="round"/><path fill-rule="evenodd" clip-rule="evenodd" d="M69.527 45.548l.3.194c.59-1.41 1.01-1.215 2.065-1.104 1.538.163.293-1.15 1.12-1.093.54.036.519.48 1.37.514 1.023.04.32-1.551.637-1.738.49-.288.86.51 1.413.31.957-.346-.606-1.21.456-1.401.92-.166 1.055-1.41-.584-1.04-.791.18-.55-1.14-1.61-.579-1.21.642-1.152-.41-1.667.3-1.297 1.792-1.268.253-1.815 1.06-1.11 1.636-.285 2.115-1.685 4.577z" fill="#F8C300" stroke="#70614E" stroke-width=".246" stroke-linecap="round" stroke-linejoin="round"/><path fill-rule="evenodd" clip-rule="evenodd" d="M71.19 44.845l-.678.855c.945.745 1.611-.163.679-.855z" fill="#F8C300" stroke="#70614E" stroke-width=".246" stroke-linecap="round" stroke-linejoin="round"/><path fill-rule="evenodd" clip-rule="evenodd" d="M69.775 50.127l3.772-.855c.086-.489.42-.73.549-1.01.795-1.724-1.381-.044-.415-1.779.426-.766-.36-1.21-.682-.772-1.299 1.765-1.276-.728-2.03.794-.807 1.632-1.614 1.733-1.194 3.622z" fill="#F8C300" stroke="#70614E" stroke-width=".246" stroke-linecap="round" stroke-linejoin="round"/><path d="M72.675 46.956c-1.04 1.147-1.479 1.891-1.964 2.96" stroke="#70614E" stroke-width=".246" stroke-linecap="round" stroke-linejoin="round"/><path fill-rule="evenodd" clip-rule="evenodd" d="M68.098 51.171l.117.47c.604-.05.936-.052 1.509.352.779.552.59-.619 2.027.345 1.228.823 1.358-.634 2.148-.623 1.795.024 1.088-1.207.397-1.347-1.076-.217-.107-1.55-1.314-1.152-2.603.858-1.017-.586-2.281-.145-1.032.359-1.024 1.743-2.603 2.1z" fill="#F8C300" stroke="#70614E" stroke-width=".246" stroke-linecap="round" stroke-linejoin="round"/><path d="M68.168 51.403c2.094-.521 2.99-.98 5.34-.456m-2.67.105l-.674-.162.431-.323" stroke="#70614E" stroke-width=".246" stroke-linecap="round" stroke-linejoin="round"/><path d="M72.672 51.08l-.512-.351.459-.108" stroke="#70614E" stroke-width=".246" stroke-linecap="round" stroke-linejoin="round"/><path fill-rule="evenodd" clip-rule="evenodd" d="M61.039 60.788c-2.074.131-.383-2.684-2.133-4.638 1.676-.548 1.581.994 2.96 1.186l-.827 3.452zm2.699-17.567l.141 4.224c.372-.258 2.277-5.978-.14-4.224z" fill="#F8C300" stroke="#70614E" stroke-width=".246" stroke-linecap="round" stroke-linejoin="round"/><path d="M74.666 41.083c-2.436 1.982-3.344 1.247-4.998 4.566m4.644-4.825l-.324.769.628-.06" stroke="#70614E" stroke-width=".246" stroke-linecap="round" stroke-linejoin="round"/><path d="M73.08 41.7l-.974 1.023 1.32.064" stroke="#70614E" stroke-width=".246" stroke-linecap="round" stroke-linejoin="round"/><path fill-rule="evenodd" clip-rule="evenodd" d="M65.086 35.54l6.228-1.998c3.183 1.792.41 1.35 1.445 2.144.355.273.458 1.518-1.184.804-1.533-.666-.475.894-2.086.65-2.612-.393-.81-2.27-4.403-1.6z" fill="#F8C300" stroke="#70614E" stroke-width=".246" stroke-linecap="round" stroke-linejoin="round"/><path fill-rule="evenodd" clip-rule="evenodd" d="M64.832 35.66l-.023-.624c.99-.407 1.641-1.483 2.206-2.669.332-.696.717.651 1.853-1.252.518-.868.732.081 2.253-.679 1.04-.52 1.042.69 2.39.503 2.174-.3 1.78 2.104.384 2.012-2.403-.16.046 2.426-2.391 1.78-3.489-.925-.28 2.005-3.075 1.331-2.062-.497-2.524-.478-3.597-.402z" fill="#F8C300" stroke="#70614E" stroke-width=".246" stroke-linecap="round" stroke-linejoin="round"/><path d="M72.123 32.14c-2.742-.162-4.462 2.594-7.303 3.208m6.1-2.445l-1.748.13.615-1.102" stroke="#70614E" stroke-width=".246" stroke-linecap="round" stroke-linejoin="round"/><path d="M68.584 35.018l-1.166-.842.486-.616" stroke="#70614E" stroke-width=".246" stroke-linecap="round" stroke-linejoin="round"/><path fill-rule="evenodd" clip-rule="evenodd" d="M66.776 28.88l-.077-.261 4.017-1.921c.372-.081.815.149 1.166.113 1.26-.127 1.192-.836 1.935-.826.638.009.36 1.004.766 1.136.895.29 1.168 1.042-.888 1.208-1.207.098-1.205 1.255-2.678.488-1.534-.8-1.638-.713-4.24.062z" fill="#F8C300" stroke="#70614E" stroke-width=".246" stroke-linecap="round" stroke-linejoin="round"/><path d="M70.504 27.638c.635-.027.908.204 2.14-.147" stroke="#70614E" stroke-width=".246" stroke-linecap="round" stroke-linejoin="round"/><path fill-rule="evenodd" clip-rule="evenodd" d="M66.684 28.606l.108.287c2.278-.926 3.438-1.215 4.184-1.361 1.126-.221-.34-.791 1.082-1.542 1.019-.538-.41-1.306.173-2.3.398-.68-.291-1.486-.886-.713-.777 1.009-2.102-.535-2.16.937-.119 2.937-1.114.748-1.568 1.82-.323.76.626 1.845-.933 2.872z" fill="#F8C300" stroke="#70614E" stroke-width=".246" stroke-linecap="round" stroke-linejoin="round"/><path d="M66.746 28.743c4.02-2.422 2.816-2.965 4.33-4.533m-.788 2.833l-.972-.202.243-1.073" stroke="#70614E" stroke-width=".246" stroke-linecap="round" stroke-linejoin="round"/><path d="M71.097 25.647l-.89-.162v-.688" stroke="#70614E" stroke-width=".246" stroke-linecap="round" stroke-linejoin="round"/><path fill-rule="evenodd" clip-rule="evenodd" d="M66.279 24.462l.3-.116-3.166-5.88c-2.084-1.836-2.493-.292-2.083.106.758.738.043 1.42.767 1.687 1.716.632-.073 1.314 1.16 1.619 1.878.465 2.4-.04 3.022 2.584z" fill="#F8C300" stroke="#70614E" stroke-width=".246" stroke-linecap="round" stroke-linejoin="round"/><path fill-rule="evenodd" clip-rule="evenodd" d="M66.278 24.454l.3-.115c-.724-3.545 1.414-4.267 1.547-5.164.223-1.503-1.312.012-1.058-1.876.264-1.954-1.513-.381-2.062-1.669-.48-1.125-1.706-1.246-1.469.027.129.691-.403.982-.214 1.601.515 1.685-.048 2.607.536 3.335 1.387 1.73 1.778 1.915 2.42 3.861z" fill="#F8C300" stroke="#70614E" stroke-width=".246" stroke-linecap="round" stroke-linejoin="round"/><path d="M66.417 24.408c-1.047-4.013-.478-4.444-1.433-6.956m-.14 2.496l.878.855.131-.785" stroke="#70614E" stroke-width=".246" stroke-linecap="round" stroke-linejoin="round"/><path d="M64.89 18.169c.07.023.093.07.14.092l.3.231.123-.393" stroke="#70614E" stroke-width=".246" stroke-linecap="round" stroke-linejoin="round"/><path d="M64.28 28.96c-1.963.286-2.335 2.08-3.05 2.74m1.588-.648c-.035-1 .457-1.997 1.512-2.097 2-.189 2.638.716 2.258 1.475" stroke="#0F488E" stroke-width=".246" stroke-linecap="round" stroke-linejoin="round"/><path fill-rule="evenodd" clip-rule="evenodd" d="M65.711 29.148l-.209.31c-1.11-.521-1.44-.778-3.44-.673-.912.048-.422-.773-1.415-.752-1.104.024-.432-.8-1.094-1.553-.73-.83-.069-2.153 2.7-.177l3.458 2.845z" fill="#F8C300" stroke="#70614E" stroke-width=".246" stroke-linecap="round" stroke-linejoin="round"/><path fill-rule="evenodd" clip-rule="evenodd" d="M65.5 29.46l.22-.302c-1.724-1.926-.633-2.597-1.024-4.513-.218-1.07-.819.286-1.347-1.336-.299-.915-1.312-.318-1.884-.751-.424-.321-1.083-.073-.875.744.37 1.451-.66 1.97.39 2.573 1.443.832.01 1.632.99 2.005 1.82.693 2.358.503 3.53 1.58z" fill="#F8C300" stroke="#70614E" stroke-width=".246" stroke-linecap="round" stroke-linejoin="round"/><path d="M61.66 23.784c1.19 2.269 2.039 3.708 3.949 5.538m-3.894-4.112l1.151.767-.027-1.645" stroke="#70614E" stroke-width=".246" stroke-linecap="round" stroke-linejoin="round"/><path d="M63.718 25.813l.027 1.426-1.097-.384" stroke="#70614E" stroke-width=".246" stroke-linecap="round" stroke-linejoin="round"/><path d="M66.445 31.24c.482-.49.757-.972-.011-1.833" stroke="#0F488E" stroke-width=".246" stroke-linecap="round" stroke-linejoin="round"/><path fill-rule="evenodd" clip-rule="evenodd" d="M66.267 24.452c-.08 1.873.1 4.293-.549 4.71l-.224.298c-.28 1.16-.666 2.114-1.021 2.442l.58.878c.425-1.444 1.337-3.334 1.737-3.893l-.1-.274c-.268-.107.063-2.815-.124-4.285l-.3.124z" fill="#F8C300" stroke="#70614E" stroke-width=".246" stroke-linecap="round" stroke-linejoin="round"/><path d="M67.04 23.015l-.276-.032-.42 1.132M68.1 53.207l-1.03-.255" stroke="#70614E" stroke-width=".246" stroke-linecap="round" stroke-linejoin="round"/><path fill-rule="evenodd" clip-rule="evenodd" d="M71.607 67.415l1.112.613c-.36.627-1.449.18-1.112-.613z" fill="#F8C300" stroke="#70614E" stroke-width=".246" stroke-linecap="round" stroke-linejoin="round"/><path fill-rule="evenodd" clip-rule="evenodd" d="M72.67 68.002l-1.014-.555c.53-1.239 1.61-.633 1.013.555z" fill="#F8C300" stroke="#70614E" stroke-width=".246" stroke-linecap="round" stroke-linejoin="round"/><path fill-rule="evenodd" clip-rule="evenodd" d="M65.788 69.01l-2.028.496c-.54.838-.933.593-1.973 1.364-.614.456-.862 1.396-2.138 1.46-1.574.077-1.37-.974-3.146-1.065-.876-.045-1.755.517-2.105-.046-.354-.572-.764-.525-1.418-.668v1.346c.472-.275.922-.29 1.049.024.395.982-.36 1.068-.3 1.757.107 1.247.985 1.643 1.5 1.697 1.854.192 2.532.723 3.183 1.395.207.214 1.91 1.3 3.143.367.909-.686 2.666-2.133 3.135-3.09 1.085-2.211 2.914-1.931 3.613-3.658l-2.515-1.379z" fill="#007CC3" stroke="#007CC3" stroke-width=".246" stroke-linecap="round" stroke-linejoin="round"/><path d="M68.193 70.63c-.812 1.552-5.074 5.327-6.637 6.508-1.234.932-2.936-.153-3.143-.367-.651-.673-1.33-1.203-3.183-1.396-.515-.053-1.393-.45-1.5-1.697-.06-.688.695-.775.3-1.756-.109-.269-.452-.297-.843-.129" stroke="#0F488E" stroke-width=".246" stroke-linecap="round" stroke-linejoin="round"/><path fill-rule="evenodd" clip-rule="evenodd" d="M71.242 70.957l-1.265.015c.025-.75 1.187-1.073 1.265-.015z" fill="#F8C300" stroke="#70614E" stroke-width=".246" stroke-linecap="round" stroke-linejoin="round"/><path fill-rule="evenodd" clip-rule="evenodd" d="M70.03 70.972l1.16-.018c.195 1.455-1.269 1.599-1.16.018zm1.834-1.797l-3.24-.49c-.015.182-.035.377-.061.586l3.112.39.189-.486z" fill="#F8C300" stroke="#70614E" stroke-width=".246" stroke-linecap="round" stroke-linejoin="round"/><path d="M71.89 68.251l-.699.818" stroke="#70614E" stroke-width=".246" stroke-linecap="round" stroke-linejoin="round"/><path fill-rule="evenodd" clip-rule="evenodd" d="M56.867 74.352l1.636-.072c-.09-.944-1.357-2.031-1.636.072z" fill="#F8C300" stroke="#70614E" stroke-width=".246" stroke-linecap="round" stroke-linejoin="round"/><path d="M56.89 72.292c.304.206.505.466.649.856m13.14-2.87l-.035-.75" stroke="#70614E" stroke-width=".246" stroke-linecap="round" stroke-linejoin="round"/><path fill-rule="evenodd" clip-rule="evenodd" d="M58.448 74.283l-1.516.067c-.244 1.85 1.652 1.945 1.516-.067z" fill="#F8C300" stroke="#70614E" stroke-width=".246" stroke-linecap="round" stroke-linejoin="round"/><path fill-rule="evenodd" clip-rule="evenodd" d="M61.482 56.19c-.272.73-.63 1.258-.743 1.937-.365 2.171-.109 4.123 1.128 5.318.567.58 1.426.974 1.644 1.197 1.09 1.12.68 4.194.248 4.864l2.029-.495 2.515 1.379c.1-.247.177-.535.225-.876.065-.462.103-.858.116-1.201.095-2.402-.986-2.224-1.933-4.154-.396-.806.284-2.032-1.052-3.587-.381-.444-.798-.626-1.181-.832.235-1.475-.932-1.393-.55-1.78.371-.376.705-.97.95-1.682l-3.396-.088z" fill="#007CC3" stroke="#007CC3" stroke-width=".246" stroke-linecap="round" stroke-linejoin="round"/><path d="M66.343 49.314c-.753.704-1.52.988-1.474 1.556.071.891.484.706.432 3.023-.038 1.688-.63 3.316-1.372 4.067-.382.387.785.306.55 1.78" stroke="#0F488E" stroke-width=".246" stroke-linecap="round" stroke-linejoin="round"/><path fill-rule="evenodd" clip-rule="evenodd" d="M66.086 30.975c-.375.252-.914.42-1.593.412-.792-.01-.138.737-.692 1.74.387.332.78.709.953 1.73.907-.558.093-1.618.78-2.64l.552-1.242z" fill="#007CC3" stroke="#007CC3" stroke-width=".246" stroke-linecap="round" stroke-linejoin="round"/><path d="M61.96 63.53c-1.317-1.185-1.595-3.179-1.221-5.404.182-1.086.988-1.783 1.069-3.55m2.049 3.529l-.533.172" stroke="#0F488E" stroke-width=".246" stroke-linecap="round" stroke-linejoin="round"/><path fill-rule="evenodd" clip-rule="evenodd" d="M65.873 54.3c-2.48 2.635-4.239.284-7.963 1.957 3.29-1.181 1.284-4.903 7.828-3.24l.135 1.282z" fill="#F8C300" stroke="#70614E" stroke-width=".246" stroke-linecap="round" stroke-linejoin="round"/><path d="M60.273 55.022c.88-.686 1.834-1.24 2.854-1.673" stroke="#70614E" stroke-width=".246" stroke-linecap="round" stroke-linejoin="round"/><path fill-rule="evenodd" clip-rule="evenodd" d="M66.994 58.26c-.023.226-.814 1.187-1.549 2.09.073.066.145.14.216.222.117.136.218.269.306.4l.328-.559.397-.58.374-.698.473-.35c1.651-1.374-2.448-5.56.675-7.149l-.108-.467c-.503.174-1.472 1.442-.88-.521.403-1.34 1.522-2.392 2.606-4.909l-.305-.197c-1 1.634-2.3 3.948-2.632 3.6l-.06-.369-.511.56.042.265-.327-.281-.295.441c.733 1.076.573 2.007.5 3.031l1.296 4.12-.017 1.311-.53.04z" fill="#F8C300" stroke="#70614E" stroke-width=".246" stroke-linecap="round" stroke-linejoin="round"/><path d="M61.983 55.832c.264.775.726 1.353.735 2.551.015 2.053-1.552 2.333-1.358 4.116.123 1.12 1.831 1.815 2.151 2.143 1.09 1.12.68 4.194.249 4.864m-.807-11.764c.19-.027.271.11.332.38.404 1.803 1.487 1.415 2.375 2.45 1.336 1.555.657 2.781 1.052 3.587 1.083 2.206 2.34 1.659 1.817 5.355-.065.459-.181.82-.336 1.116m-3.439-35.773c.908-.558.093-1.618.78-2.64.258-.385.622-.683.911-.977m.143-.81c-.26.52-.995.97-2.097.957-.792-.01-.14.735-.694 1.738" stroke="#0F488E" stroke-width=".246" stroke-linecap="round" stroke-linejoin="round"/><path fill-rule="evenodd" clip-rule="evenodd" d="M66.99 58.264c.18.381.532.262.722-.058-.133-1.805-.688-3.23-1.337-5.122-.409-1.194-1.326.066-1.624-2.744-.171-1.61-.942.35-2.523-1.881-.621-.876-1.916-.495-1.66.117.858 2.058-1.337 1.735.278 2.7 2.212 1.321-.294 2.358 1.993 2.578 4.437.429 4.082 3.05 4.152 4.41z" fill="#F8C300" stroke="#70614E" stroke-width=".246" stroke-linecap="round" stroke-linejoin="round"/><path fill-rule="evenodd" clip-rule="evenodd" d="M64.752 48.596c-1.262-.403-3.386.184-10.307-2.673 7.664-1.825 7.264-1.27 10.307 2.673z" fill="#F8C300" stroke="#70614E" stroke-width=".246" stroke-linecap="round" stroke-linejoin="round"/><path fill-rule="evenodd" clip-rule="evenodd" d="M65.748 49.749l.288-.432c-1.356-1.297-1.791-1.393-1.886-2.855-.07-1.068.377-2.533.074-3.249-1.091-2.577-1.185 1.588-1.973-.875-.585-1.828-1.035-2.245-1.778-1.708-.345.25-.384 1.147.13 2.272.893 1.956-1.202 1.04.169 2.69 1.288 1.55 3.663 2.438 4.976 4.157z" fill="#F8C300" stroke="#70614E" stroke-width=".246" stroke-linecap="round" stroke-linejoin="round"/><path d="M62.375 44.588c.586 2.444 2.008 3.493 3.52 4.945m1.12 5.451c-1.383-3.44-2.398-.183-5.34-5.922" stroke="#70614E" stroke-width=".246" stroke-linecap="round" stroke-linejoin="round"/><path d="M61.293 50.346l1.185.16.023-.41m.159 2.099l1.253.068-.524-1.118" stroke="#70614E" stroke-width=".246" stroke-linecap="round" stroke-linejoin="round"/><path fill-rule="evenodd" clip-rule="evenodd" d="M16.376 32.216c-.681-1.014-2.095-1.426-.933-2.77-.41.455-.244 1.108.38 1.529l.553 1.241z" fill="#007CC3" stroke="#007CC3" stroke-width=".246" stroke-linecap="round" stroke-linejoin="round"/><path fill-rule="evenodd" clip-rule="evenodd" d="M20.76 37.489l-3.842-.005c.107-.343.148-.769.147-1.35 0-.514.033-.932.091-1.277.173-1.021.565-1.398.953-1.73-.554-1.003.1-1.75-.693-1.74-1.843.023-2.658-1.258-1.936-1.98.341-.338 1.023-.553 2.098-.452l.05.006v-.002c1.963.287 2.335 2.082 3.05 2.74.785.724 3.244 1.927.186 5.637a1.118 1.118 0 00-.104.153zm-3.731 18.789a7.99 7.99 0 01-.422-2.385c-.052-2.317.36-2.132.431-3.023.059-.728-1.214-.988-2.084-2.263a3.085 3.085 0 01-.057-.087l-.013-.022a2.977 2.977 0 01-.052-.087c-.927-1.651.38-3.652 2.3-5.143.146.743 1.215 3.595 2.764 4.895.838.704.688 2.879.324 4.276-.242.93-.162 1.245-.121 2.136.03.663.163 1.175.326 1.614l-3.396.089z" fill="#007CC3" stroke="#007CC3" stroke-width=".246" stroke-linecap="round" stroke-linejoin="round"/><path d="M17.133 43.266c.144.738 1.214 3.596 2.765 4.898.838.704.688 2.878.324 4.275-.243.93-.162 1.246-.121 2.137a3.29 3.29 0 01-.175 1.256" stroke="#0F488E" stroke-width=".246" stroke-linecap="round" stroke-linejoin="round"/><path fill-rule="evenodd" clip-rule="evenodd" d="M37.059 69.903l-3.12 3.923-1.377-4.855c-.18-1.683.452-1.808 1.373-1.085.491.386.742-1.014 1.403-.66.445.24.025 1.339.358 1.662.443.43 1.818-.704 1.363 1.015zm-6.109 6.829l-4.098.55.24 4.237c.06 1.422.966 2.252 1.656 1.447.632-.738.176-1.646 1.215-1.531 1.488.164.14-1.636.943-1.669.846-.035.998-.28.744-1.327-.18-.742-.53-1.515-.7-1.707z" fill="#F8C300" stroke="#70614E" stroke-width=".246" stroke-linecap="round" stroke-linejoin="round"/><path fill-rule="evenodd" clip-rule="evenodd" d="M30.946 76.73l-.755-1.934c-.916.163-2.003.152-2.75.448-1.491.589-.757 1.173-1.303 1.363-1.264.439-1.871.702-1.721 1.647.192 1.216-.34 1.908.04 2.435.344.479.901.09 1.574.03.39-.035 1.13.514 1.56.332.452-.193.15-1.156.413-1.387.336-.294.852.326 1.19.05.337-.274.032-1.229.294-1.794.307-.66 1.202.712 1.458-1.19z" fill="#F8C300" stroke="#70614E" stroke-width=".246" stroke-linecap="round" stroke-linejoin="round"/><path d="M30.465 75.503c-2.406.548-3.764 1.795-4.535 3.434m2.896-1.572l-.113-1.26-.994-.001" stroke="#70614E" stroke-width=".246" stroke-linecap="round" stroke-linejoin="round"/><path d="M27.687 78.608l-.086-1.806-.8.154m7.203-8.18c.685.484 1.232 1.303 1.68 2.364" stroke="#70614E" stroke-width=".246" stroke-linecap="round" stroke-linejoin="round"/><path fill-rule="evenodd" clip-rule="evenodd" d="M13.426 53.9l-.34-.792c.637-.256 1.132.167.34.792z" fill="#F8C300" stroke="#70614E" stroke-width=".246" stroke-linecap="round" stroke-linejoin="round"/><path fill-rule="evenodd" clip-rule="evenodd" d="M13.1 53.143l.312.72c-.91.424-1.2-.332-.312-.72zm1.793-13.481l-.002-1.734c1.211.052 1.735 1.378.002 1.734z" fill="#F8C300" stroke="#70614E" stroke-width=".246" stroke-linecap="round" stroke-linejoin="round"/><path fill-rule="evenodd" clip-rule="evenodd" d="M14.89 37.988l.003 1.606c-1.886.272-2.136-1.653-.002-1.606zm-.325-14.038l-.768-.912c.74-.594 1.66-.035.768.912z" fill="#F8C300" stroke="#70614E" stroke-width=".246" stroke-linecap="round" stroke-linejoin="round"/><path fill-rule="evenodd" clip-rule="evenodd" d="M13.83 23.077l.702.828c-1.035.927-1.722.043-.702-.828zm-3.6 46.583l-7.623 2.129c-.396.321-.229 1.276-.453 1.51-.774.806-.926 1.532-.631 1.96.202.294 1.175.134 1.933-.093.864-.26 1.628.049 1.932-.032.69-.183.714-.828 1.506-1.544.445-.402.979-.004 1.354-.64.635-1.08.623-1.78 1.982-3.29z" fill="#F8C300" stroke="#70614E" stroke-width=".246" stroke-linecap="round" stroke-linejoin="round"/><path d="M3.684 73.994c1.59-1.329 4.067-2.882 6.546-4.334m-6.363 3.143l1.4-.02-.22 1.122" stroke="#70614E" stroke-width=".246" stroke-linecap="round" stroke-linejoin="round"/><path d="M6.913 72.644l-.038-.934-.914.095" stroke="#70614E" stroke-width=".246" stroke-linecap="round" stroke-linejoin="round"/><path fill-rule="evenodd" clip-rule="evenodd" d="M10.229 69.66l-.193-.484c-1.643-.064-2.024-.676-2.81-1.187-1.132-.735-.721.88-1.195.9-.543.022-1.023-.894-1.412-1.086-1.062-.523-.807.918-1.283.934-.512.017-.844-.552-1.49-.577-.466-.018-.261.615-.55.833-.287.216-1.096.076-1.052.617.051.638 1.125.629 1.263 1.087.189.63.061 1.442 1.05.823 1.41-.884 1.147 1.486 2.539.003 1.107-1.18 1.791.524 2.454-.028 1.041-.868.904-.91 2.679-1.835z" fill="#F8C300" stroke="#70614E" stroke-width=".246" stroke-linecap="round" stroke-linejoin="round"/><path d="M10.132 69.423c-1.407.499-4.627.587-7.23.483m1.051-.756l1.135.798-.84.799" stroke="#70614E" stroke-width=".246" stroke-linecap="round" stroke-linejoin="round"/><path d="M7.148 69.066l.484.778-.463.672" stroke="#70614E" stroke-width=".246" stroke-linecap="round" stroke-linejoin="round"/><path fill-rule="evenodd" clip-rule="evenodd" d="M14.066 65.66l-.61 3.885c-1.224-.008-1.168-2.022-2.215-2.967-.453-.409-.61-1.053-.18-1.278.671-.351 1.22.812 2.026-.063.28-.304.698-.358.979.422zm1.547-5.247l-.388-.583c-1.382-.154-4.573-.931-5.491-.674-1.149.322-.041.818-2.103 2.391-.76.58-.688 2.331-.423 3.053.33.903 1.085.861 1.251.405.54-1.479 1.287.746 1.56-1.16.22-1.527 1.273.519 1.692-.85.701-2.294 1.17.08 1.764-1.032.71-1.327.888-1.503 2.138-1.55z" fill="#F8C300" stroke="#70614E" stroke-width=".246" stroke-linecap="round" stroke-linejoin="round"/><path d="M15.218 59.826c-2.708-.453-4.825.832-6.019 2.647m2.001-.914l.603-1.335-.756-.036" stroke="#70614E" stroke-width=".246" stroke-linecap="round" stroke-linejoin="round"/><path d="M12.817 60.854l.31-1.033-.443-.186m-3.215 1.921l.877-.401-.403 1.227" stroke="#70614E" stroke-width=".246" stroke-linecap="round" stroke-linejoin="round"/><path fill-rule="evenodd" clip-rule="evenodd" d="M10.305 55.906c-.958-2.424-.058-2.98.46-1.943.297.598 1.185-.238 1.356.826.238 1.476.934.127.89 2.022l-2.706-.905z" fill="#F8C300" stroke="#70614E" stroke-width=".246" stroke-linecap="round" stroke-linejoin="round"/><path fill-rule="evenodd" clip-rule="evenodd" d="M14.847 59.142l.37.693c-.561-.32-1.163-.78-1.68-.727-1.625.167-.872-1.164-2.52-.49-1.463.597-.926-1.607-2.59-.019-.879.84-1.186-.362-1.294-1.14-.07-.493-1.078-.808-1.03-1.48.067-.936 1.605.108 1.746-.863.098-.67.824-.74 1.143-.224 1.364 2.204 1.184-1.433 2.354.388.826 1.287 1.986-.518 1.962 1.603-.014 1.215-.057 1.03 1.539 2.259z" fill="#F8C300" stroke="#70614E" stroke-width=".246" stroke-linecap="round" stroke-linejoin="round"/><path d="M14.98 59.395c-2.946-1.249-3.369-2.927-6.425-2.609m2.245 1.295l.972-.604-.82-.972" stroke="#70614E" stroke-width=".246" stroke-linecap="round" stroke-linejoin="round"/><path d="M9.398 57.156l.432-.378-.288-.126" stroke="#70614E" stroke-width=".246" stroke-linecap="round" stroke-linejoin="round"/><path fill-rule="evenodd" clip-rule="evenodd" d="M11.437 45.747l-.746-.947c.677-.465 1.478-.054.746.947z" fill="#F8C300" stroke="#70614E" stroke-width=".246" stroke-linecap="round" stroke-linejoin="round"/><path fill-rule="evenodd" clip-rule="evenodd" d="M12.384 45.548l-.287.21c-6.34-9.487-3.542-9.087-3.235-8.48.716 1.418 1.08.098 1.49 1.146.44 1.13.848.127.943 1.12.184 1.934 1.258.25 1.075 1.748-.286 2.35-.082 3.166.014 4.256z" fill="#F8C300" stroke="#70614E" stroke-width=".246" stroke-linecap="round" stroke-linejoin="round"/><path fill-rule="evenodd" clip-rule="evenodd" d="M12.383 45.548l-.299.194c-.59-1.41-1.01-1.215-2.066-1.104-1.537.163-.292-1.15-1.119-1.093-.54.036-.52.48-1.37.514-1.024.04-.32-1.551-.638-1.738-.488-.288-.859.51-1.413.31-.956-.346.607-1.21-.455-1.401-.92-.166-1.055-1.41.584-1.04.79.18.55-1.14 1.61-.579 1.21.642 1.151-.41 1.667.3 1.296 1.792 1.268.253 1.815 1.06 1.109 1.636.284 2.115 1.684 4.577z" fill="#F8C300" stroke="#70614E" stroke-width=".246" stroke-linecap="round" stroke-linejoin="round"/><path fill-rule="evenodd" clip-rule="evenodd" d="M10.718 44.845l.68.855c-.947.745-1.612-.163-.68-.855z" fill="#F8C300" stroke="#70614E" stroke-width=".246" stroke-linecap="round" stroke-linejoin="round"/><path fill-rule="evenodd" clip-rule="evenodd" d="M12.132 50.127l-3.772-.855c-.086-.489-.419-.73-.548-1.01-.796-1.724 1.38-.044.414-1.779-.426-.766.36-1.21.682-.772 1.299 1.765 1.276-.728 2.03.794.807 1.632 1.614 1.733 1.194 3.622z" fill="#F8C300" stroke="#70614E" stroke-width=".246" stroke-linecap="round" stroke-linejoin="round"/><path d="M9.234 46.956c1.04 1.147 1.48 1.891 1.964 2.96" stroke="#70614E" stroke-width=".246" stroke-linecap="round" stroke-linejoin="round"/><path fill-rule="evenodd" clip-rule="evenodd" d="M13.81 51.171l-.117.47c-.604-.05-.936-.052-1.508.352-.78.552-.59-.619-2.027.345-1.229.823-1.359-.634-2.148-.623-1.796.024-1.089-1.207-.398-1.347 1.076-.217.107-1.55 1.315-1.152 2.602.858 1.016-.586 2.28-.145 1.032.359 1.024 1.743 2.604 2.1z" fill="#F8C300" stroke="#70614E" stroke-width=".246" stroke-linecap="round" stroke-linejoin="round"/><path d="M13.74 51.403c-2.095-.521-2.99-.98-5.342-.456m2.672.105l.675-.162-.432-.323" stroke="#70614E" stroke-width=".246" stroke-linecap="round" stroke-linejoin="round"/><path d="M9.238 51.08l.513-.351-.459-.108m-2.05-9.538c2.436 1.982 3.344 1.247 4.998 4.566" stroke="#70614E" stroke-width=".246" stroke-linecap="round" stroke-linejoin="round"/><path d="M7.597 40.824l.323.769-.627-.06m1.537.167l.974 1.023-1.32.064" stroke="#70614E" stroke-width=".246" stroke-linecap="round" stroke-linejoin="round"/><path fill-rule="evenodd" clip-rule="evenodd" d="M16.823 35.54l-6.228-1.998c-3.183 1.792-.41 1.35-1.445 2.144-.355.273-.459 1.518 1.184.804 1.533-.666.474.894 2.085.65 2.613-.393.81-2.27 4.404-1.6z" fill="#F8C300" stroke="#70614E" stroke-width=".246" stroke-linecap="round" stroke-linejoin="round"/><path fill-rule="evenodd" clip-rule="evenodd" d="M17.077 35.66l.023-.624c-.99-.407-1.642-1.483-2.207-2.669-.331-.696-.716.651-1.853-1.252-.517-.868-.731.081-2.252-.679-1.04-.52-1.043.69-2.39.503-2.174-.3-1.78 2.104-.384 2.012 2.402-.16-.046 2.426 2.391 1.78 3.488-.925.28 2.005 3.074 1.331 2.063-.497 2.524-.478 3.598-.402z" fill="#F8C300" stroke="#70614E" stroke-width=".246" stroke-linecap="round" stroke-linejoin="round"/><path d="M9.785 32.14c2.742-.162 4.462 2.594 7.303 3.208m-6.1-2.445l1.75.13-.616-1.102" stroke="#70614E" stroke-width=".246" stroke-linecap="round" stroke-linejoin="round"/><path d="M13.324 35.018l1.166-.842-.486-.616" stroke="#70614E" stroke-width=".246" stroke-linecap="round" stroke-linejoin="round"/><path fill-rule="evenodd" clip-rule="evenodd" d="M15.134 28.88l.077-.261-4.017-1.921c-.372-.081-.815.149-1.166.113-1.26-.127-1.192-.836-1.934-.826-.64.009-.36 1.004-.767 1.136-.894.29-1.168 1.042.888 1.208 1.208.098 1.206 1.255 2.678.488 1.535-.8 1.638-.713 4.24.062z" fill="#F8C300" stroke="#70614E" stroke-width=".246" stroke-linecap="round" stroke-linejoin="round"/><path d="M11.406 27.638c-.634-.027-.908.204-2.14-.147" stroke="#70614E" stroke-width=".246" stroke-linecap="round" stroke-linejoin="round"/><path fill-rule="evenodd" clip-rule="evenodd" d="M15.225 28.606l-.108.287c-2.279-.926-3.438-1.215-4.184-1.361-1.126-.221.339-.791-1.083-1.542-1.018-.538.411-1.306-.172-2.3-.399-.68.29-1.486.886-.713.777 1.009 2.101-.535 2.16.937.118 2.937 1.114.748 1.568 1.82.322.76-.626 1.845.933 2.872z" fill="#F8C300" stroke="#70614E" stroke-width=".246" stroke-linecap="round" stroke-linejoin="round"/><path d="M15.163 28.743c-4.02-2.422-2.816-2.965-4.331-4.533m.789 2.833l.971-.202-.242-1.073" stroke="#70614E" stroke-width=".246" stroke-linecap="round" stroke-linejoin="round"/><path d="M10.813 25.647l.89-.162v-.688" stroke="#70614E" stroke-width=".246" stroke-linecap="round" stroke-linejoin="round"/><path fill-rule="evenodd" clip-rule="evenodd" d="M15.633 24.462l-.301-.116 3.167-5.88c2.084-1.836 2.492-.292 2.083.106-.758.738-.044 1.42-.767 1.687-1.716.632.072 1.314-1.16 1.619-1.879.465-2.4-.04-3.022 2.584z" fill="#F8C300" stroke="#70614E" stroke-width=".246" stroke-linecap="round" stroke-linejoin="round"/><path fill-rule="evenodd" clip-rule="evenodd" d="M15.631 24.454l-.3-.115c.724-3.545-1.414-4.267-1.547-5.164-.223-1.503 1.312.012 1.058-1.876-.264-1.954 1.513-.381 2.062-1.669.48-1.125 1.706-1.246 1.469.027-.13.691.403.982.214 1.601-.515 1.685.048 2.607-.536 3.335-1.387 1.73-1.778 1.915-2.42 3.861z" fill="#F8C300" stroke="#70614E" stroke-width=".246" stroke-linecap="round" stroke-linejoin="round"/><path d="M15.492 24.408c1.048-4.013.478-4.444 1.433-6.956m.139 2.496l-.878.855-.131-.785" stroke="#70614E" stroke-width=".246" stroke-linecap="round" stroke-linejoin="round"/><path d="M17.02 18.169c-.07.023-.093.07-.14.092l-.3.231-.123-.393" stroke="#70614E" stroke-width=".246" stroke-linecap="round" stroke-linejoin="round"/><path d="M17.629 28.96c1.963.286 2.336 2.08 3.05 2.74m-1.586-.648c.035-1-.457-1.997-1.512-2.097-2-.189-2.637.716-2.258 1.475" stroke="#0F488E" stroke-width=".246" stroke-linecap="round" stroke-linejoin="round"/><path fill-rule="evenodd" clip-rule="evenodd" d="M16.2 29.148l.208.31c1.11-.521 1.44-.778 3.44-.673.912.048.422-.773 1.415-.752 1.104.024.432-.8 1.094-1.553.73-.83.069-2.153-2.7-.177L16.2 29.148z" fill="#F8C300" stroke="#70614E" stroke-width=".246" stroke-linecap="round" stroke-linejoin="round"/><path fill-rule="evenodd" clip-rule="evenodd" d="M16.41 29.46l-.219-.302c1.724-1.926.633-2.597 1.024-4.513.218-1.07.818.286 1.347-1.336.299-.915 1.312-.318 1.884-.751.424-.321 1.083-.073.875.744-.37 1.451.66 1.97-.39 2.573-1.444.832-.01 1.632-.99 2.005-1.82.693-2.358.503-3.53 1.58z" fill="#F8C300" stroke="#70614E" stroke-width=".246" stroke-linecap="round" stroke-linejoin="round"/><path d="M20.25 23.784c-1.19 2.269-2.04 3.708-3.95 5.538m3.895-4.112l-1.152.767.027-1.645" stroke="#70614E" stroke-width=".246" stroke-linecap="round" stroke-linejoin="round"/><path d="M18.192 25.813l-.028 1.426 1.097-.384" stroke="#70614E" stroke-width=".246" stroke-linecap="round" stroke-linejoin="round"/><path d="M15.464 31.24c-.482-.49-.756-.972.011-1.833" stroke="#0F488E" stroke-width=".246" stroke-linecap="round" stroke-linejoin="round"/><path fill-rule="evenodd" clip-rule="evenodd" d="M15.64 24.452c.08 1.873-.1 4.293.549 4.71l.224.298c.28 1.16.666 2.114 1.021 2.442l-.58.878c-.425-1.444-1.336-3.334-1.737-3.893l.1-.274c.268-.107-.063-2.815.124-4.285l.3.124z" fill="#F8C300" stroke="#70614E" stroke-width=".246" stroke-linecap="round" stroke-linejoin="round"/><path d="M14.871 23.015l.275-.032.42 1.132m-1.757 29.092l1.028-.255" stroke="#70614E" stroke-width=".246" stroke-linecap="round" stroke-linejoin="round"/><path fill-rule="evenodd" clip-rule="evenodd" d="M10.304 67.415l-1.113.613c.36.627 1.449.18 1.113-.613z" fill="#F8C300" stroke="#70614E" stroke-width=".246" stroke-linecap="round" stroke-linejoin="round"/><path fill-rule="evenodd" clip-rule="evenodd" d="M9.237 68.002l1.014-.555c-.53-1.239-1.61-.633-1.014.555z" fill="#F8C300" stroke="#70614E" stroke-width=".246" stroke-linecap="round" stroke-linejoin="round"/><path fill-rule="evenodd" clip-rule="evenodd" d="M28.926 70.551c.534-.117 1.231-.361 2.196-1.173 1.082-.912 1.913-.037 2.284.546.685 1.075.158 1.93.679 2.864l.024.053.033-.11c.36-1.344.295-2.986 2.136-2.884 2.083.116 1.53 1.303 4.675 1.316 3.145-.013 2.592-1.2 4.674-1.316 1.841-.102 1.776 1.54 2.136 2.884.01.036.022.073.034.11l.024-.053c.52-.934-.006-1.79.678-2.864.372-.583 1.202-1.458 2.285-.546.964.812 1.662 1.056 2.196 1.173v1.347a2.687 2.687 0 00-1.284 2.168c-.053 1.157.041 2.614-2.277 3.712-1.011.479-1.891.695-3.014.327-.472-.155-.848-.643-.864-1.064v-.034c-.007-.578-.189-1.4-.371-1.635-1.064.154-2.813.287-4.166.293h-.102a34.76 34.76 0 01-4.166-.293c-.183.234-.364 1.057-.371 1.635v.034c-.016.421-.393.91-.864 1.064-1.123.368-2.003.152-3.014-.327-2.319-1.098-2.224-2.555-2.277-3.712a2.687 2.687 0 00-1.284-2.168V70.55z" fill="#007CC3" stroke="#007CC3" stroke-width=".246" stroke-linecap="round" stroke-linejoin="round"/><path d="M63.76 69.506c-2.944 3.572-4.312 1.91-7.256 1.76-.876-.046-1.756.516-2.105-.047-.644-1.038-1.468-.034-3.614-1.841" stroke="#0F488E" stroke-width=".246" stroke-linecap="round" stroke-linejoin="round"/><path fill-rule="evenodd" clip-rule="evenodd" d="M16.12 69.01l2.029.496c.54.838.933.593 1.973 1.364.614.456.861 1.396 2.138 1.46 1.573.077 1.369-.974 3.145-1.065.876-.045 1.756.517 2.105-.046.355-.572.764-.525 1.418-.668v1.346c-.472-.275-.921-.29-1.048.024-.396.982.36 1.068.3 1.757-.108 1.247-.985 1.643-1.5 1.697-1.854.192-2.533.723-3.184 1.395-.207.214-1.909 1.3-3.143.367-.908-.686-2.665-2.133-3.135-3.09-1.085-2.211-2.913-1.931-3.613-3.658l2.516-1.379z" fill="#007CC3" stroke="#007CC3" stroke-width=".246" stroke-linecap="round" stroke-linejoin="round"/><path d="M13.715 70.63c.812 1.552 5.074 5.327 6.637 6.508 1.234.932 2.936-.153 3.143-.367.65-.673 1.33-1.203 3.183-1.396.515-.053 1.393-.45 1.5-1.697.06-.688-.695-.775-.3-1.756.108-.269.451-.297.842-.129" stroke="#0F488E" stroke-width=".246" stroke-linecap="round" stroke-linejoin="round"/><path d="M18.148 69.506c2.945 3.572 4.312 1.91 7.257 1.76.876-.046 1.755.516 2.105-.047.644-1.038 1.468-.034 3.614-1.841" stroke="#0F488E" stroke-width=".246" stroke-linecap="round" stroke-linejoin="round"/><path fill-rule="evenodd" clip-rule="evenodd" d="M23.458 72.042l-.791-.79-5.861 1.653c-.347.576-.302 1.214-.657 1.798-.823 1.35.447.324.158 1.135-.305.855-.179 1.88.61 1.284.96-.725 1.116.108 1.639-.027.608-.157.39-.8.77-1.305.207-.276 1.526 0 1.813-.513.468-.837.34-.91 1.135-1.519.456-.348.131-1.123 1.184-1.716zm-12.79-1.085l1.266.015c-.026-.75-1.188-1.073-1.266-.015z" fill="#F8C300" stroke="#70614E" stroke-width=".246" stroke-linecap="round" stroke-linejoin="round"/><path fill-rule="evenodd" clip-rule="evenodd" d="M11.878 70.972l-1.16-.018c-.195 1.455 1.268 1.599 1.16.018zm-1.831-1.797l3.24-.49c.014.182.035.377.061.586l-3.112.39-.19-.486z" fill="#F8C300" stroke="#70614E" stroke-width=".246" stroke-linecap="round" stroke-linejoin="round"/><path d="M10.02 68.251l.698.818" stroke="#70614E" stroke-width=".246" stroke-linecap="round" stroke-linejoin="round"/><path fill-rule="evenodd" clip-rule="evenodd" d="M25.042 74.352l-1.636-.072c.09-.944 1.358-2.031 1.636.072z" fill="#F8C300" stroke="#70614E" stroke-width=".246" stroke-linecap="round" stroke-linejoin="round"/><path d="M25.02 72.292c-.304.206-.505.466-.649.856m-6.488 2.26c1.368-1.822 3.01-2.479 5.188-3.752M11.23 70.278l.034-.75m10.255 3.005l-.16 1.007" stroke="#70614E" stroke-width=".246" stroke-linecap="round" stroke-linejoin="round"/><path fill-rule="evenodd" clip-rule="evenodd" d="M23.46 74.283l1.516.067c.244 1.85-1.652 1.945-1.516-.067zm5.537-2.093c-.47-.072-.852-.34-1.115-.939l-.468.072.434.77c-.941-.008-1.493-.337-1.656-.986h-.611c.415 1.069-3.421-1.112-3.783-3.12l-.252-.281c-1.369-.557-2.337-2.116-3.02-3.169a.992.992 0 00-.128.105c-.172.176-.306.4-.41.657 1.364 2.228 3.35 2.832-.215 2.853.034.244.076.471.125.67 2.443-.084 2.652-.667 3.174.022.495.653 2.2 2.416 1.613 2.402l.767.796c.654-.28.993.072 1.566.25 2.33.72 3.777.851 5.008.907a2.734 2.734 0 00-.69-.999l-.34-.01z" fill="#F8C300" stroke="#70614E" stroke-width=".246" stroke-linecap="round" stroke-linejoin="round"/><path fill-rule="evenodd" clip-rule="evenodd" d="M20.426 56.19c.272.73.63 1.258.743 1.937.365 2.171.108 4.123-1.128 5.318-.567.58-1.427.974-1.644 1.197-1.09 1.12-.68 4.194-.249 4.864l-2.028-.495-2.515 1.379a3.702 3.702 0 01-.225-.876 12.038 12.038 0 01-.116-1.201c-.095-2.402.985-2.224 1.933-4.154.395-.806-.284-2.032 1.052-3.587.38-.444.798-.626 1.181-.832-.235-1.475.932-1.393.55-1.78-.372-.376-.705-.97-.95-1.682l3.396-.088z" fill="#007CC3" stroke="#007CC3" stroke-width=".246" stroke-linecap="round" stroke-linejoin="round"/><path d="M15.566 49.314c.753.704 1.52.988 1.474 1.556-.071.891-.484.706-.431 3.023.038 1.688.63 3.316 1.371 4.067.383.387-.784.306-.55 1.78" stroke="#0F488E" stroke-width=".246" stroke-linecap="round" stroke-linejoin="round"/><path fill-rule="evenodd" clip-rule="evenodd" d="M27.893 71.239c.387-1.364 1.602-1.27 1.71-2.023.148-1.025-.714-.591-.744-1.303-.037-.855 1.102-.877.749-2.476l-5.272-.95 3.062 6.843.495-.091z" fill="#F8C300" stroke="#70614E" stroke-width=".246" stroke-linecap="round" stroke-linejoin="round"/><path fill-rule="evenodd" clip-rule="evenodd" d="M26.192 71.107c.129-1.112 1.941-.998 1.89-1.81-.056-.913-1.589-.513-1.661-1.448-.061-.791.92-1.112.403-2.255l-2.394-.923c-1.846.475-2.105 1.364-.451 3.167.385.42-.912.653-.647 1.25.265.598 1.18-.307 2.25 2.02h.61z" fill="#F8C300" stroke="#70614E" stroke-width=".246" stroke-linecap="round" stroke-linejoin="round"/><path d="M25.882 71.1a31.56 31.56 0 00-1.1-5.084" stroke="#70614E" stroke-width=".246" stroke-linecap="round" stroke-linejoin="round"/><path fill-rule="evenodd" clip-rule="evenodd" d="M22.666 71.251l.524.525c-1.656.274-1.71.609-2.75 1.714-1.444 1.536-1.221-1.463-2.097-.483-.59.66-.54 2.04-1.462 2.032-.912-.009-.076-2.134-.981-1.54-.789.518-1.312 1.558-2.006 1.43-.566-.105-.707-1.63-.173-2.207.728-.786-.741-.56-.154-1.576.207-.358 1.423-.163 1.902-.417.463-.245-.306-1.3.772-1.386 1.083-.087.923.933 1.584.967.604.031.91-.993 2.018-.042 1.392 1.193 1.78.816 2.823.983z" fill="#F8C300" stroke="#70614E" stroke-width=".246" stroke-linecap="round" stroke-linejoin="round"/><path d="M22.67 71.24c-3.805-.46-6.476.107-8.014 1.699m1.621-2.348c.567.162 1.134.486 1.66.688l-.85 1.538" stroke="#70614E" stroke-width=".246" stroke-linecap="round" stroke-linejoin="round"/><path d="M19.07 70.673l.607.445-.242 1.045" stroke="#70614E" stroke-width=".246" stroke-linecap="round" stroke-linejoin="round"/><path fill-rule="evenodd" clip-rule="evenodd" d="M15.824 30.975c.375.252.914.42 1.593.412.792-.01.138.737.692 1.74-.387.332-.78.709-.953 1.73-.907-.558-.093-1.618-.78-2.64l-.552-1.242z" fill="#007CC3" stroke="#007CC3" stroke-width=".246" stroke-linecap="round" stroke-linejoin="round"/><path d="M28.723 71.793c.651.28 1.436 1.105 1.49 2.273.053 1.157-.042 2.614 2.277 3.712 1.011.479 1.89.694 3.014.326.767-.25 1.285-1.386.398-1.677-.373-.123-.92-.049-1.519-.344-.648-.321-.704-1.16-.471-1.36.493-.424 1.103.24 2.102.513m-4.889-5.858c1.083-.912 1.913-.037 2.284.546.685 1.075.159 1.93.68 2.864M19.95 63.53c1.315-1.185 1.594-3.179 1.22-5.404-.183-1.086-.988-1.783-1.07-3.55" stroke="#0F488E" stroke-width=".246" stroke-linecap="round" stroke-linejoin="round"/><path d="M35.202 76.317c-3.962-.494-1.459-2.089-1.057-3.586.36-1.344.295-2.986 2.136-2.884 2.094.116 1.471 1.316 4.675 1.316 3.202 0 2.58-1.2 4.674-1.316 1.841-.102 1.776 1.54 2.136 2.884.402 1.497 2.905 3.092-1.057 3.586m-10.342.724c0-.58.185-1.43.372-1.669M18.055 58.105l.532.172" stroke="#0F488E" stroke-width=".246" stroke-linecap="round" stroke-linejoin="round"/><path fill-rule="evenodd" clip-rule="evenodd" d="M16.04 54.3c2.479 2.635 4.238.284 7.962 1.957-3.29-1.181-1.284-4.903-7.828-3.24l-.135 1.282z" fill="#F8C300" stroke="#70614E" stroke-width=".246" stroke-linecap="round" stroke-linejoin="round"/><path d="M21.635 55.022a12.6 12.6 0 00-2.854-1.673" stroke="#70614E" stroke-width=".246" stroke-linecap="round" stroke-linejoin="round"/><path fill-rule="evenodd" clip-rule="evenodd" d="M14.917 58.26c.022.226.813 1.187 1.548 2.09a2.54 2.54 0 00-.216.222 4.26 4.26 0 00-.306.4l-.328-.559-.397-.58-.374-.698-.473-.35c-1.651-1.374 2.449-5.56-.675-7.149l.108-.467c.504.174 1.473 1.442.881-.521-.404-1.34-1.522-2.392-2.607-4.909l.306-.197c1 1.634 2.3 3.948 2.632 3.6l.06-.369.51.56-.042.265.328-.281.294.441c-.733 1.076-.573 2.007-.5 3.031l-1.295 4.12.016 1.311.53.04z" fill="#F8C300" stroke="#70614E" stroke-width=".246" stroke-linecap="round" stroke-linejoin="round"/><path d="M19.924 55.832c-.264.775-.726 1.353-.735 2.551-.015 2.053 1.552 2.333 1.358 4.116-.123 1.12-1.831 1.815-2.151 2.143-1.09 1.12-.68 4.194-.249 4.864m.809-11.764c-.19-.027-.272.11-.332.38-.404 1.803-1.487 1.415-2.375 2.45-1.336 1.555-.657 2.781-1.052 3.587-1.083 2.206-2.34 1.659-1.817 5.355.065.459.181.82.336 1.116m3.44-35.773c-.908-.558-.093-1.618-.78-2.64-.258-.385-.622-.683-.911-.977m-.145-.81c.26.52.995.97 2.097.957.793-.01.14.735.694 1.738" stroke="#0F488E" stroke-width=".246" stroke-linecap="round" stroke-linejoin="round"/><path fill-rule="evenodd" clip-rule="evenodd" d="M14.92 58.264c-.178.381-.53.262-.72-.058.132-1.805.688-3.23 1.336-5.122.41-1.194 1.327.066 1.625-2.744.17-1.61.941.35 2.523-1.881.62-.876 1.915-.495 1.66.117-.858 2.058 1.337 1.735-.278 2.7-2.212 1.321.293 2.358-1.993 2.578-4.437.429-4.083 3.05-4.152 4.41z" fill="#F8C300" stroke="#70614E" stroke-width=".246" stroke-linecap="round" stroke-linejoin="round"/><path d="M14.895 54.984c1.382-3.44 2.397-.183 5.338-5.922m.381 1.284l-1.185.16-.023-.41" stroke="#70614E" stroke-width=".246" stroke-linecap="round" stroke-linejoin="round"/><path d="M19.25 52.195l-1.254.068.524-1.118" stroke="#70614E" stroke-width=".246" stroke-linecap="round" stroke-linejoin="round"/><path d="M33.837 72.006c-.17.15-.082.4-.286.459M30.577 73.5c-.208.105-.202.156-.386.348" stroke="#0F488E" stroke-width=".246" stroke-linecap="round" stroke-linejoin="round"/><path fill-rule="evenodd" clip-rule="evenodd" d="M40.708 75.663c-3.12 2.402-6.34 4.193-7.057 6.324l-1.995-.35c3.421-4.116 4.172-3.701 7.542-6.031.527.035 1.03.054 1.51.058z" fill="#F8C300" stroke="#70614E" stroke-width=".246" stroke-linecap="round" stroke-linejoin="round"/><path d="M32.6 82.106c-.556-.079-.987-.272-.962-.432.025-.16.497-.224 1.054-.145.556.08.987.273.962.432-.026.16-.497.225-1.054.145z" fill="#F8C300" stroke="#70614E" stroke-width=".203" stroke-linecap="round" stroke-linejoin="round"/><path d="M53.188 71.793c-.651.28-1.436 1.105-1.49 2.273-.053 1.157.042 2.614-2.277 3.712-1.011.479-1.89.694-3.014.326-.767-.25-1.285-1.386-.398-1.677.373-.123.92-.049 1.519-.344.648-.321.704-1.16.471-1.36-.493-.424-1.102.24-2.102.513m5.435-1.736c.208.105.203.156.386.348m-6.175 3.193c0-.58-.185-1.43-.371-1.669" stroke="#0F488E" stroke-width=".246" stroke-linecap="round" stroke-linejoin="round"/><path fill-rule="evenodd" clip-rule="evenodd" d="M41.2 75.663c3.118 2.402 6.339 4.193 7.056 6.324l1.995-.35c-3.42-4.116-4.172-3.701-7.542-6.031-.527.035-1.03.054-1.51.058z" fill="#F8C300" stroke="#70614E" stroke-width=".246" stroke-linecap="round" stroke-linejoin="round"/><path d="M49.31 82.106c.557-.079.987-.272.962-.432-.025-.16-.497-.224-1.053-.145-.557.08-.988.273-.962.432.025.16.497.225 1.053.145z" fill="#F8C300" stroke="#70614E" stroke-width=".203" stroke-linecap="round" stroke-linejoin="round"/><path d="M36.012 75.236c.758.206 3.19.43 4.941.43 1.752 0 4.184-.224 4.942-.43m4.892-5.858c-1.082-.912-1.913-.037-2.284.546-.685 1.075-.158 1.93-.679 2.864m.246-.782c.17.15.082.4.286.459" stroke="#0F488E" stroke-width=".246" stroke-linecap="round" stroke-linejoin="round"/><path fill-rule="evenodd" clip-rule="evenodd" d="M58.45 72.042l.79-.79 5.861 1.653c.347.576.302 1.214.657 1.798.822 1.35-.447.324-.158 1.135.305.855.179 1.88-.61 1.284-.96-.725-1.116.108-1.639-.027-.608-.157-.39-.8-.77-1.305-.207-.276-1.526 0-1.813-.513-.468-.837-.34-.91-1.136-1.519-.456-.348-.13-1.123-1.183-1.716z" fill="#F8C300" stroke="#70614E" stroke-width=".246" stroke-linecap="round" stroke-linejoin="round"/><path d="M64.024 75.408c-1.368-1.822-3.01-2.479-5.188-3.752m1.554.877l.16 1.007" stroke="#70614E" stroke-width=".246" stroke-linecap="round" stroke-linejoin="round"/><path fill-rule="evenodd" clip-rule="evenodd" d="M52.912 72.19c.47-.072.85-.34 1.115-.939l.467.072-.434.77c.942-.008 1.494-.337 1.657-.986h.61c-.415 1.069 3.422-1.112 3.783-3.12l.253-.281c1.368-.557 2.337-2.116 3.019-3.169a.978.978 0 01.129.105 2 2 0 01.408.657c-1.363 2.228-3.348 2.832.216 2.853a6.65 6.65 0 01-.125.67c-2.443-.084-2.652-.667-3.174.022-.495.653-2.199 2.416-1.613 2.402l-.767.796c-.654-.28-.993.072-1.565.25-2.33.72-3.777.851-5.008.907.163-.409.414-.747.69-.999l.339-.01z" fill="#F8C300" stroke="#70614E" stroke-width=".246" stroke-linecap="round" stroke-linejoin="round"/><path fill-rule="evenodd" clip-rule="evenodd" d="M54.017 71.239c-.387-1.364-1.602-1.27-1.71-2.023-.148-1.025.715-.591.745-1.303.036-.855-1.103-.877-.75-2.476l5.273-.95-3.062 6.843-.496-.091z" fill="#F8C300" stroke="#70614E" stroke-width=".246" stroke-linecap="round" stroke-linejoin="round"/><path fill-rule="evenodd" clip-rule="evenodd" d="M55.72 71.107c-.13-1.112-1.941-.998-1.89-1.81.056-.913 1.589-.513 1.66-1.448.062-.791-.919-1.112-.403-2.255l2.394-.923c1.846.475 2.105 1.364.452 3.167-.386.42.912.653.647 1.25-.265.598-1.18-.307-2.25 2.02h-.61z" fill="#F8C300" stroke="#70614E" stroke-width=".246" stroke-linecap="round" stroke-linejoin="round"/><path d="M56.027 71.1c.236-1.81.62-3.49 1.102-5.084" stroke="#70614E" stroke-width=".246" stroke-linecap="round" stroke-linejoin="round"/><path fill-rule="evenodd" clip-rule="evenodd" d="M59.243 71.251l-.524.525c1.655.274 1.71.609 2.75 1.714 1.444 1.536 1.22-1.463 2.097-.483.59.66.54 2.04 1.462 2.032.912-.009.076-2.134.98-1.54.79.518 1.313 1.558 2.007 1.43.566-.105.707-1.63.172-2.207-.727-.786.742-.56.155-1.576-.207-.358-1.423-.163-1.902-.417-.463-.245.306-1.3-.772-1.386-1.084-.087-.924.933-1.584.967-.604.031-.91-.993-2.019-.042-1.391 1.193-1.779.816-2.822.983z" fill="#F8C300" stroke="#70614E" stroke-width=".246" stroke-linecap="round" stroke-linejoin="round"/><path d="M59.238 71.24c3.805-.46 6.476.107 8.014 1.699m-1.62-2.348c-.567.162-1.133.486-1.66.688l.85 1.538" stroke="#70614E" stroke-width=".246" stroke-linecap="round" stroke-linejoin="round"/><path d="M62.842 70.673l-.608.445.243 1.045" stroke="#70614E" stroke-width=".246" stroke-linecap="round" stroke-linejoin="round"/><path fill-rule="evenodd" clip-rule="evenodd" d="M61.748 40.502c.06.574.119 1.094.206 1.435.056.219.676 1.48 1.241 1.269.25-.094.05-.448.219-.852h-.001.002l.12.07.005.004.11.066.02.013.113.069.002.001.002.002.107.067.031.02.08.052.046.03.081.055.041.028.076.051.053.037.042.03.02.015.065.046.04.029.02.014.04.03h.002l.02.016.044.033.054.04.005.004.02.015.038.028.054.043.01.007c1.919 1.491 3.226 3.492 2.299 5.143.865-1.513.43-3.782.816-4.72.591-1.433 1.843-2.408.108-3.617-1.879-1.31-2.707-1.62-3.01-2.591h-3.845c.36.617.487 1.917.604 3.018z" fill="#007CC3" stroke="#007CC3" stroke-width=".246" stroke-linecap="round" stroke-linejoin="round"/><path d="M63.414 42.353c2.669 1.542 4.94 4.204 3.54 6.254-.19.279-.4.509-.61.706" stroke="#0F488E" stroke-width=".246" stroke-linecap="round" stroke-linejoin="round"/><path d="M61.043 37.336c.65.788.641 3.548.91 4.6.057.22.677 1.48 1.242 1.27.25-.094.05-.448.219-.853.335-.799.784-1.3 1.255-1.786m2.284 8.04c1.027-1.506.533-3.936.938-4.916.59-1.432 1.842-2.407.108-3.616-2.543-1.773-3.161-1.713-3.158-3.94.006-3.888-1.927-2.278-2.025-5.083" stroke="#0F488E" stroke-width=".246" stroke-linecap="round" stroke-linejoin="round"/><path fill-rule="evenodd" clip-rule="evenodd" d="M17.156 48.596c1.263-.403 3.387.184 10.307-2.673-7.664-1.825-7.263-1.27-10.307 2.673z" fill="#F8C300" stroke="#70614E" stroke-width=".246" stroke-linecap="round" stroke-linejoin="round"/><path fill-rule="evenodd" clip-rule="evenodd" d="M18.17 43.221l-.14 4.224c-.373-.258-2.278-5.978.14-4.224z" fill="#F8C300" stroke="#70614E" stroke-width=".246" stroke-linecap="round" stroke-linejoin="round"/><path fill-rule="evenodd" clip-rule="evenodd" d="M16.159 49.749l-.288-.432c1.356-1.297 1.791-1.393 1.886-2.855.07-1.068-.377-2.533-.074-3.249 1.091-2.577 1.185 1.588 1.973-.875.585-1.828 1.035-2.245 1.778-1.708.345.25.384 1.147-.13 2.272-.893 1.956 1.202 1.04-.168 2.69-1.29 1.55-3.664 2.438-4.977 4.157z" fill="#F8C300" stroke="#70614E" stroke-width=".246" stroke-linecap="round" stroke-linejoin="round"/><path d="M19.535 44.588c-.585 2.444-2.007 3.493-3.52 4.945" stroke="#70614E" stroke-width=".246" stroke-linecap="round" stroke-linejoin="round"/><path fill-rule="evenodd" clip-rule="evenodd" d="M20.16 40.502c-.062.574-.12 1.094-.207 1.435-.056.219-.677 1.48-1.242 1.269-.25-.094-.048-.448-.218-.852h0-.001l-.12.07-.005.004-.11.066-.021.013-.112.069-.002.001-.003.002a10.64 10.64 0 00-.106.067l-.032.02-.079.052-.046.03-.082.055-.04.028-.076.051-.053.037-.042.03-.021.015a10.6 10.6 0 00-.065.046l-.04.029-.02.014-.04.03h-.001l-.021.016-.044.033-.053.04-.005.004-.02.015-.038.028-.055.043-.009.007c-1.92 1.491-3.227 3.492-2.299 5.143-.866-1.513-.43-3.782-.817-4.72-.59-1.433-1.842-2.408-.108-3.617 1.88-1.31 2.707-1.62 3.01-2.591h3.845c-.36.617-.486 1.917-.603 3.018z" fill="#007CC3" stroke="#007CC3" stroke-width=".246" stroke-linecap="round" stroke-linejoin="round"/><path d="M18.495 42.353c-2.67 1.542-4.94 4.204-3.541 6.254.19.279.4.509.61.706" stroke="#0F488E" stroke-width=".246" stroke-linecap="round" stroke-linejoin="round"/><path d="M20.864 37.336c-.65.788-.641 3.548-.91 4.6-.057.22-.677 1.48-1.242 1.27-.25-.094-.05-.448-.219-.853-.335-.799-.783-1.3-1.255-1.786m-2.285 8.04c-1.027-1.506-.534-3.936-.938-4.916-.59-1.432-1.842-2.407-.108-3.616 2.543-1.773 3.161-1.713 3.158-3.94-.006-3.888 1.927-2.278 2.024-5.083" stroke="#0F488E" stroke-width=".246" stroke-linecap="round" stroke-linejoin="round"/><path fill-rule="evenodd" clip-rule="evenodd" d="M22.45 23.953h36.942v37.493a4.49 4.49 0 01-4.495 4.506l-9.45.24c-2.304 0-4.174 1.726-4.445 3.956h-.068a4.516 4.516 0 00-4.48-3.956l-9.45-.24c-2.494 0-4.555-2.012-4.555-4.506V23.953z" fill="#DEDEDD" stroke="#707477" stroke-width=".328" stroke-linecap="round" stroke-linejoin="round"/><path fill-rule="evenodd" clip-rule="evenodd" d="M41.95 34.652c-2.556-.435-2.506-2.696-1.957-4.512.255-.846 1.206-2.578 3.3-3.3-2.426-.146-2.849 1.74-3.258 1.573-.268-.11.086-1.803.402-2.526-1.33.815-.971 3.149-1.057 3.917-.205 1.833-.562 2.085-1.71.636-.379-.479-.48-.916-.65-2.05-.692 2.478 1.608 3.67 2.127 4.615.227.413-.196.68-.954.36-.427-.181-.502-.255-.907-.901.436 2.289 1.883.839 2.873 2.531a2.033 2.033 0 011.11.023l.682-.366z" fill="#0A0B0C"/><path fill-rule="evenodd" clip-rule="evenodd" d="M52.383 46.74c.202-.095.547-.242.557-.671.019-.787-.12.139-.92.178-1.18-.99-1.613-1.66-3.653-1.63-1.76.027-1.61.605-2.98.655-.892.032-.968-.432-2.268-.497-.833-.042-1.645.615-2.075.23-.456-.408-.461-1.59-.094-2.006 2.048-2.323 2.008-5.216 1.657-6.638a7.273 7.273 0 01-.307-.061c.774.17 1.332.219 1.657-.658.178-.482-.022-.41-.204-.213-.35.38-.98.466-1.36.344-.386-.492-.986-.814-1.6-.835-1.221-.043-1.01.575-2.546.792a9.89 9.89 0 01-1.167.083l-.245.913c1.52.02 2.015.557.525.55-.232 0-.76-.079-.582.24.145.26.269.11.57.101.266-.007.614.02.98.065.372.047.47.588 1.118.689-.02.833-.22 1.817-1.323 2.022-.45.084-4.083.74-4.097 4.148-.006 1.379-.023 1.355.023 2.123.05.807.303 1.351.476 1.908-1.402.315-1.527.529-2.258.721-1.174.309-2.394.415-3.711.342l-.251.164c-.61 1.468-2.38 2.528-3.8 3.746l-.022.109c.135.583.012 1.219-.088 1.755l.69-.24c-.035-.484.036-.937.27-1.307l.37-.172c1.151-1.28 2.25-2.112 3.534-3.062.956-.347 2.244-.32 3.014-.2 1.025.158 1.874.896 3.19 1.176.117.53.24 1.09.416 1.426.575 1.096.728 1.93.584 3.373l.064.174c.834 1.175 1.574 2.44 1.952 4.29l.007.083c-.024.496-.504 1.352-1.182 2.125l.702.204c.345-.638.926-1.32 1.558-1.826l.011-.26a18.577 18.577 0 01-1.734-5.149l-.04-.163c-.515-1.007-.526-3.098.347-3.789 1.628 1.447 4.109.144 7.12-.61-.68.587-.604 2.516.382 6.061.015.803-1.158 2.576-2.15 3.499-.283.866-.654 1.407-1.288 2.033l.702.204c.326-.688.79-1.144 1.208-1.358l.277-.248c.223-1.166 1.596-2.854 2.533-3.967v-.434c-.765-.972-.82-1.4-.825-1.768-.013-1.182 1.93-1.177 2.66-2.873 3.247 1.92 4.375 2.46 5.809 4.52.69.99 1.175 2.478 1.738 4.155-.358.734-.723 1.28-1.176 1.77l.702.203c.295-.448.816-1.281 1.344-1.322l-.114-.606c-.763-1.466-1.046-2.965-1.229-4.664l-.247-.45c-2.066-1.27-3.586-3.327-3.3-5.209.19-1.26 1.524-1.914.089-4.288z" fill="#D52E26"/><path d="M52.017 46.247l.365.493m0 0c.203-.095.548-.242.558-.671.019-.787-.12.139-.92.178-1.18-.99-1.613-1.66-3.653-1.63-1.76.027-1.61.605-2.98.655-.892.032-.968-.432-2.268-.497-.833-.042-1.645.615-2.075.23-.456-.408-.461-1.59-.094-2.006 2.048-2.323 2.008-5.216 1.657-6.638a7.273 7.273 0 01-.307-.061c.774.17 1.332.219 1.657-.658.178-.482-.022-.41-.204-.213-.35.38-.98.466-1.36.344-.386-.492-.986-.814-1.6-.835-1.221-.043-1.01.575-2.546.792m14.136 11.01c1.435 2.374.102 3.029-.09 4.288-.285 1.882 1.235 3.938 3.301 5.208l.247.451c.183 1.7.466 3.198 1.229 4.664l.114.607c-.528.04-1.048.873-1.344 1.321l-.702-.204c.453-.489.818-1.035 1.176-1.769-.563-1.677-1.049-3.164-1.738-4.155-1.434-2.06-2.562-2.6-5.81-4.52m-10.52-16.9l.049.195m-.048-.196a9.89 9.89 0 01-1.167.083l-.245.913c1.52.02 2.015.557.525.55-.232 0-.76-.079-.582.24.145.26.269.11.57.101.266-.007.614.02.98.065.372.047.47.588 1.118.689m0 0c.759.118 1.414-.39 2.074-1.272m-2.074 1.272c-.02.833-.22 1.817-1.323 2.022-.45.084-4.083.74-4.097 4.148-.006 1.379-.023 1.355.023 2.123.05.807.303 1.351.476 1.908-1.402.315-1.527.529-2.258.721-1.174.309-2.394.415-3.711.342l-.251.164c-.61 1.468-2.38 2.528-3.8 3.746l-.022.109c.135.583.012 1.219-.088 1.755l.69-.24c-.035-.484.036-.937.27-1.307l.37-.172c1.151-1.28 2.25-2.112 3.534-3.062.956-.347 2.244-.32 3.014-.2 1.025.158 1.874.896 3.19 1.176m0 0a5.568 5.568 0 01-.096-1.439m.096 1.439c.117.53.24 1.09.416 1.426.575 1.096.728 1.93.584 3.373l.064.174c.834 1.175 1.574 2.44 1.952 4.29l.007.083c-.024.496-.504 1.352-1.182 2.125l.702.204c.345-.638.926-1.32 1.558-1.826l.011-.26a18.577 18.577 0 01-1.734-5.149l-.04-.163c-.515-1.007-.526-3.098.347-3.789m0 0c.281-.222.039-2.096.058-3.143m-.058 3.143c1.628 1.447 4.109.144 7.12-.61m0 0a8.201 8.201 0 001.844-.682m-1.845.682c-.678.587-.603 2.516.383 6.061.015.803-1.158 2.576-2.15 3.499-.283.866-.654 1.407-1.288 2.033l.702.204c.326-.688.79-1.144 1.208-1.358l.277-.248c.223-1.166 1.596-2.854 2.533-3.967v-.434c-.765-.972-.82-1.4-.825-1.768-.013-1.182 1.93-1.177 2.66-2.873m0 0c-.808-.477-1.702-1.595-2.29-3.196" stroke="#A92926" stroke-width=".246" stroke-linecap="round" stroke-linejoin="round"/><path d="M40.008 36.264c.181 0 .328-.094.328-.21 0-.117-.147-.212-.328-.212-.181 0-.328.095-.328.211 0 .117.147.211.328.211z" fill="#0A0B0C"/><path d="M61.23 31.7c-.784.723-3.244 1.925-.186 5.636M20.68 31.7c.785.723 3.245 1.925.186 5.636" stroke="#0F488E" stroke-width=".246" stroke-linecap="round" stroke-linejoin="round"/><path fill-rule="evenodd" clip-rule="evenodd" d="M37.084 35.809l-.248.917c-.253 0-.351-.332-.339-.657.01-.261.192-.267.587-.26z" fill="#1F1A17" stroke="#1F1A17" stroke-width=".246" stroke-linecap="round" stroke-linejoin="round"/><path fill-rule="evenodd" clip-rule="evenodd" d="M42.895 63.952l.02-.673-.701-.204c-.415.204-.686.494-.94.877h1.621zm-4.91 0l.02-.673-.702-.204c-.414.204-.686.494-.94.877h1.622zm17.836 0l.02-.673-.702-.204c-.414.204-.686.494-.94.877h1.622zM25.457 55.73l-.372-.561-.69.24c-.22.406-.274.8-.26 1.26l1.322-.94z" fill="#0A0B0C" stroke="#0A0B0C" stroke-width=".246" stroke-linecap="round" stroke-linejoin="round"/><path fill-rule="evenodd" clip-rule="evenodd" d="M41.268 35.018c.356.11.698.323 1.027.639 1.637-1.428 3.818-1.739 4.783-3.693.636-1.285.827-4.55-.266-6.419.631 4.656-.204 6.01-1.255 1.62-.467 2.538 1.73 4.196.249 5.53-.784.706-1.32-.162-1.868-2.252-.73 1.919.714 2.552-.004 3.303-.803.84-1.822.768-1.979-1.199-.488.671-.245 1.478-.006 2.105l-.534-.063-.88.003.733.426z" fill="#0A0B0C"/><path fill-rule="evenodd" clip-rule="evenodd" d="M42.352 11.573c.57-3.567.994-4.674 2.322-6.709 7.813-1.07 12.258 6.67 5.469 13.403L42.834 17l-1.303-2.958.821-2.469zm-2.793 0c-.57-3.567-.994-4.674-2.322-6.709-7.813-1.07-12.258 6.67-5.469 13.403L39.076 17l1.303-2.958-.82-2.469z" fill="#DA2724" stroke="#A92926" stroke-width=".205" stroke-linecap="round" stroke-linejoin="round"/><path fill-rule="evenodd" clip-rule="evenodd" d="M42.584 10.21l-.234 1.363-.812 2.468 1.289 2.962 7.32 1.261 1.043-1.151.054 2.495H30.652l.055-2.495 1.042 1.151 7.321-1.261 1.289-2.962-.801-2.468-.273-1.363h3.3z" fill="#F8C300" stroke="#70614E" stroke-width=".205" stroke-linecap="round" stroke-linejoin="round"/><path fill-rule="evenodd" clip-rule="evenodd" d="M35.775 17.668c-.1-5.521-.598-8.616-1.45-12.865 1.005-.132 1.762-.124 2.636-.065 1.004 3.487 1.678 8.448 1.672 12.665l-2.858.265z" fill="#F8C300" stroke="#70614E" stroke-width=".205" stroke-linecap="round" stroke-linejoin="round"/><path fill-rule="evenodd" clip-rule="evenodd" d="M34.234 15.173c.665-.084.952.075 1.176.621l.113-.02c.13-.838.224-.993.844-1.31l-.025-.182c-.678-.086-.81-.2-1.167-.953l-.112.02c-.061.597-.292.847-.948.996-.107-1.02.065-1.459.678-1.793l-.025-.172c-.948-.214-1.126-.361-1.494-1.318l-.205.035c-.084 1.038-.212 1.24-1.054 1.77l.025.173c.675.105.96.464 1.141 1.47-.664.085-.953-.072-1.177-.619l-.113.02c-.13.838-.223.994-.844 1.31l.026.182c.678.086.811.201 1.167.953l.112-.02c.062-.597.293-.846.948-.996.036 1.338.009 2.654-.737 2.97a19.564 19.564 0 013.283-.64c-.796-.042-1.304-1.207-1.612-2.497zm-4.64 1.287c.842 1.266.916 1.977 2 2.175-.383.172-.834.467-.906.846-.439-.862-.81-1.69-1.445-2.87l.067.56c-.49-.535-.738-1.277-.858-1.958l.41.497c-.263-.885-.164-.848-.532-1.69a5.897 5.897 0 01-.145-.764c.03-.339-.001-.81-.056-1.325l.12-.008c.37 1.109.275 1.251.852 1.488l.056.197c-.254.398-.307.903.024 2.008.273-.217.31-.498.284-1.13l.074-.03c.269.75.404.863.782.883l.043.175c-.196.387-.181.555.18 1.418l-.042.031c-.421-.527-.626-.66-.908-.504zm16.541 1.208c.1-5.521.599-8.616 1.451-12.865-1.006-.132-1.763-.124-2.637-.065-1.004 3.487-1.677 8.448-1.672 12.665l2.858.265z" fill="#F8C300" stroke="#70614E" stroke-width=".205" stroke-linecap="round" stroke-linejoin="round"/><path fill-rule="evenodd" clip-rule="evenodd" d="M47.676 15.173c-.664-.084-.952.075-1.176.621l-.113-.02c-.129-.838-.223-.993-.844-1.31l.025-.182c.679-.086.811-.2 1.167-.953l.112.02c.062.597.293.847.948.996.107-1.02-.064-1.459-.677-1.793l.024-.172c.949-.214 1.126-.361 1.494-1.318l.205.035c.084 1.038.212 1.24 1.054 1.77l-.024.173c-.676.105-.96.464-1.142 1.47.665.085.953-.072 1.178-.619l.112.02c.13.838.224.994.845 1.31l-.027.182c-.678.086-.81.201-1.167.953l-.112-.02c-.061-.597-.292-.846-.948-.996-.036 1.338-.008 2.654.737 2.97a19.566 19.566 0 00-3.283-.64c.796-.042 1.304-1.207 1.612-2.497zm4.641 1.287c-.842 1.266-.916 1.977-2 2.175.382.172.834.467.905.846.44-.862.81-1.69 1.445-2.87l-.163.505c.491-.536.738-1.278.858-1.958l-.313.552c.263-.885.164-.848.531-1.69.048-.156.126-.57.146-.764-.031-.339 0-.81.056-1.325l-.12-.008c-.37 1.109-.276 1.251-.852 1.488l-.056.197c.254.398.307.903-.024 2.008-.274-.217-.311-.498-.284-1.13l-.075-.03c-.268.75-.403.863-.781.883l-.044.175c.196.387.182.555-.18 1.418l.043.031c.421-.527.625-.66.908-.504zm-10.355-4.343c.172-5.589.314-4.743.889-6.74h-3.777c.576 1.997.703 1.151.875 6.74h2.013z" fill="#F8C300" stroke="#70614E" stroke-width=".205" stroke-linecap="round" stroke-linejoin="round"/><path fill-rule="evenodd" clip-rule="evenodd" d="M42.851 5.377a1.944 1.944 0 01-3.777 0h3.777zm-2.347-.918h-1.43a1.947 1.947 0 011.43-1.43v1.43zm.918-1.429c.704.17 1.259.725 1.43 1.429h-1.43v-1.43z" fill="#fff" stroke="#70614E" stroke-width=".205" stroke-linecap="round" stroke-linejoin="round"/><path fill-rule="evenodd" clip-rule="evenodd" d="M41.422 3.03v1.429h1.43a1.946 1.946 0 010 .918h-3.778a1.951 1.951 0 010-.918h1.43v-1.43a1.948 1.948 0 01.918 0z" fill="#96AEBE" stroke="#70614E" stroke-width=".205" stroke-linecap="round" stroke-linejoin="round"/><path fill-rule="evenodd" clip-rule="evenodd" d="M40.704 1.148c-.843 0-1.12.12-1.329.432V.2c.208.312.486.432 1.33.432 0-.844-.12-1.122-.433-1.33h1.381c-.313.208-.432.486-.432 1.33.843 0 1.12-.12 1.33-.433V1.58c-.21-.313-.487-.432-1.33-.432 0 .844.12 1.121.432 1.33V3.1a1.937 1.937 0 00-1.381 0v-.624c.313-.208.432-.485.432-1.329z" fill="#F8C300" stroke="#70614E" stroke-width=".205" stroke-linejoin="bevel"/><path fill-rule="evenodd" clip-rule="evenodd" d="M41.079 10.464c.284 1.008.474 1.184 1.596 1.56v.174c-.807.222-1.093.625-1.14 1.648.827-.033 1.153-.238 1.332-.816h.14c.304.804.446.94 1.26 1.144v.183c-.814.203-.956.34-1.26 1.143h-.141c-.179-.578-.504-.783-1.33-.816.188 1.324.326 2.552 1.292 2.733H39.08c.965-.18 1.104-1.409 1.292-2.733-.826.033-1.152.238-1.33.816H38.9c-.304-.803-.446-.94-1.26-1.143v-.183c.813-.204.955-.34 1.259-1.144h.14c.18.578.505.783 1.332.816-.046-1.023-.333-1.426-1.14-1.648v-.174c1.122-.376 1.313-.552 1.597-1.56h.25z" fill="#F8C300" stroke="#70614E" stroke-width=".205" stroke-linecap="round" stroke-linejoin="round"/><path d="M41.388 13.332h-.862a.451.451 0 00-.452.452v.862c0 .25.202.452.452.452h.862c.25 0 .451-.203.451-.452v-.862a.451.451 0 00-.451-.452z" fill="#EFF0F2" stroke="#C2C1C1" stroke-width=".205" stroke-linecap="round" stroke-linejoin="round"/><path d="M48.671 14.018l-.667-.092a.518.518 0 00-.572.457l-.095.7c-.04.29.152.554.428.592l.667.091a.518.518 0 00.572-.456l.096-.7a.518.518 0 00-.429-.592zm-15.432 0l.667-.092a.518.518 0 01.572.457l.095.7a.518.518 0 01-.428.592l-.667.091a.518.518 0 01-.572-.456l-.096-.7a.518.518 0 01.429-.592z" fill="#EFF0F2" stroke="#C2C1C1" stroke-width=".235" stroke-linecap="round" stroke-linejoin="round"/><path d="M53.186 15.357l-.12-.057c-.05-.024-.192.17-.318.435l-.305.636c-.127.264-.189.497-.14.52l.12.058c.05.024.192-.17.319-.434l.305-.637c.126-.264.188-.497.139-.52z" fill="#EFF0F2" stroke="#C2C1C1" stroke-width=".104" stroke-linecap="round" stroke-linejoin="round"/><path fill-rule="evenodd" clip-rule="evenodd" d="M53.19 15.36c.504.19-.274 1.778-.762 1.592-.038-.015.037-.247.163-.51l.305-.636c.126-.262.257-.46.294-.446z" fill="#EFF0F2" stroke="#C2C1C1" stroke-width=".205" stroke-linecap="round" stroke-linejoin="round"/><path d="M41.096 7.472h-.283a.371.371 0 00-.372.371v.285c0 .204.166.37.371.37h.285a.371.371 0 00.37-.37v-.285a.371.371 0 00-.37-.37zm0 1.512h-.283a.371.371 0 00-.372.371v.284a.37.37 0 00.371.371h.285a.371.371 0 00.37-.37v-.285a.371.371 0 00-.37-.37zm3.913 5.956h-.49a.371.371 0 00-.37.371v.49c0 .205.166.37.37.37h.49a.371.371 0 00.37-.37v-.49a.371.371 0 00-.37-.37zm.066-1.644h-.407a.371.371 0 00-.371.371v.407a.37.37 0 00.37.371h.408a.371.371 0 00.371-.37v-.408a.371.371 0 00-.37-.371zm.127-1.624h-.366a.371.371 0 00-.371.371v.366a.37.37 0 00.37.371h.367a.371.371 0 00.371-.37v-.367a.371.371 0 00-.37-.37zm.162-1.597h-.325a.371.371 0 00-.371.372v.325c0 .204.166.37.371.37h.325a.371.371 0 00.371-.37v-.325a.371.371 0 00-.37-.372zm.197-1.561h-.284a.371.371 0 00-.37.371v.284a.37.37 0 00.37.371h.284a.371.371 0 00.371-.371v-.284a.371.371 0 00-.37-.371zm.252-1.638h-.243a.371.371 0 00-.37.372v.243c0 .204.165.37.37.37h.243a.371.371 0 00.371-.37v-.243a.371.371 0 00-.37-.372zm.272-1.493h-.202a.371.371 0 00-.371.37v.203c0 .205.166.37.37.37h.203a.371.371 0 00.37-.37v-.202a.371.371 0 00-.37-.371zm-8.693 9.557h-.49a.371.371 0 00-.37.371v.49c0 .205.165.37.37.37h.49a.371.371 0 00.37-.37v-.49a.371.371 0 00-.37-.37zm-.149-1.644h-.407a.371.371 0 00-.371.371v.407a.37.37 0 00.37.371h.408a.371.371 0 00.371-.37v-.408a.371.371 0 00-.37-.371zm-.17-1.624h-.366a.371.371 0 00-.371.371v.366a.37.37 0 00.371.371h.366a.371.371 0 00.371-.37v-.367a.371.371 0 00-.37-.37zm-.201-1.597h-.325a.371.371 0 00-.371.372v.325c0 .204.166.37.37.37h.326a.371.371 0 00.371-.37v-.325a.371.371 0 00-.371-.372zm-.236-1.561h-.285a.371.371 0 00-.37.371v.284a.37.37 0 00.37.371h.285a.371.371 0 00.37-.371v-.284a.371.371 0 00-.37-.371zm-.296-1.638h-.242a.371.371 0 00-.371.372v.243c0 .204.166.37.37.37h.244a.371.371 0 00.37-.37v-.243a.371.371 0 00-.37-.372zm-.314-1.493h-.202a.371.371 0 00-.37.37v.203c0 .205.165.37.37.37h.202a.371.371 0 00.371-.37v-.202a.371.371 0 00-.37-.371z" fill="#fff" stroke="#C2C1C1" stroke-width=".205" stroke-linecap="round" stroke-linejoin="round"/><path d="M28.724 15.357l.12-.057c.05-.024.192.17.318.435l.305.636c.127.264.19.497.14.52l-.12.058c-.05.024-.192-.17-.318-.434l-.306-.637c-.126-.264-.188-.497-.139-.52z" fill="#EFF0F2" stroke="#C2C1C1" stroke-width=".104" stroke-linecap="round" stroke-linejoin="round"/><path fill-rule="evenodd" clip-rule="evenodd" d="M28.718 15.36c-.504.19.275 1.778.763 1.592.037-.015-.038-.247-.164-.51l-.305-.636c-.126-.262-.257-.46-.294-.446z" fill="#EFF0F2" stroke="#C2C1C1" stroke-width=".205" stroke-linecap="round" stroke-linejoin="round"/><path fill-rule="evenodd" clip-rule="evenodd" d="M56.031 19.736c-.648.25-1.134.182-.633 1.39.876 2.109-.423 2.023-1.432 2.498-.276.13-.543.283-.798.428h.002c-1.813 1.083-2.421.573-3.01.032-.793-.732-2.226-.128-3.05-.499-.67-.3-1.316-1.86-1.422-3.206l3.8-.024c-.022.405.015.73.092 1.008 1.94 2.632 2.354 1.35 3.016.919.573-.374 1.919-.062.985-1.77-1.278-2.337 1.686-3.688 2.577-2.973 1.289 1.035 2.52-.177 2.254 2.18l.005.001 1.269-.29-.003.003v-.001l-.015.003c.152-.068.94.267 1.178.82.308.713-.286.775-3.505 2.071a.194.194 0 01-.067.027l-.002.001h0c-.269.05-.719-.49-1.238-2.604l-.003-.014z" fill="#007CC3" stroke="#007CC3" stroke-width=".246" stroke-linecap="round" stroke-linejoin="round"/><path d="M49.487 20.355c-.094 1.665.826 1.975 1.386 3.343.686 1.677 1.788.54 3.092-.074 1.009-.475 2.307-.39 1.432-2.498-.649-1.564.357-.988 1.226-1.736 1.584-1.362 1.748-.812 1.787.328" stroke="#0F488E" stroke-width=".246" stroke-linecap="round" stroke-linejoin="round"/><path d="M45.688 20.38c.106 1.345.752 2.904 1.421 3.205.825.371 2.258-.233 3.052.498.588.542 1.196 1.052 3.009-.03" stroke="#0F488E" stroke-width=".246" stroke-linecap="round" stroke-linejoin="round"/><path d="M58.41 19.718c.267-2.356-.965-1.144-2.253-2.179-.892-.715-3.855.636-2.578 2.972.934 1.709-.412 1.397-.984 1.77-.663.433-1.076 1.714-3.017-.918m6.457-1.613c.972 3.953 1.7 2.402 1.457 1.781" stroke="#0F488E" stroke-width=".246" stroke-linecap="round" stroke-linejoin="round"/><path d="M57.27 22.354c3.28-1.323 3.884-1.381 3.575-2.1-.388-.9-2.236-1.224-.414-.164-1.033.382-2.14.85-3.354 1.586-.6-.996-.927-1.456 1.064-1.893l1.54-.353" stroke="#0F488E" stroke-width=".246" stroke-linecap="round" stroke-linejoin="round"/><path fill-rule="evenodd" clip-rule="evenodd" d="M25.879 19.736c.648.25 1.134.182.633 1.39-.875 2.109.423 2.023 1.432 2.498.276.13.543.283.799.428h-.002c1.812 1.083 2.42.573 3.009.032.794-.732 2.226-.128 3.051-.499.67-.3 1.316-1.86 1.422-3.206l-3.801-.024c.023.405-.014.73-.092 1.008-1.94 2.632-2.354 1.35-3.016.919-.573-.374-1.918-.062-.984-1.77 1.277-2.337-1.686-3.688-2.578-2.973-1.288 1.035-2.52-.177-2.253 2.18l-.006.001-1.269-.29.003.003.001-.001.014.003c-.152-.068-.94.267-1.178.82-.308.713.287.775 3.505 2.071a.195.195 0 00.067.027l.002.001h0c.27.05.719-.49 1.238-2.604l.003-.014z" fill="#007CC3" stroke="#007CC3" stroke-width=".246" stroke-linecap="round" stroke-linejoin="round"/><path d="M32.423 20.355c.095 1.665-.826 1.975-1.386 3.343-.686 1.677-1.788.54-3.091-.074-1.01-.475-2.308-.39-1.433-2.498.65-1.564-.357-.988-1.226-1.736-1.584-1.362-1.748-.812-1.787.328" stroke="#0F488E" stroke-width=".246" stroke-linecap="round" stroke-linejoin="round"/><path d="M36.224 20.38c-.106 1.345-.752 2.904-1.421 3.205-.825.371-2.258-.233-3.052.498-.588.542-1.196 1.052-3.009-.03" stroke="#0F488E" stroke-width=".246" stroke-linecap="round" stroke-linejoin="round"/><path d="M23.497 19.718c-.266-2.356.966-1.144 2.254-2.179.892-.715 3.855.636 2.578 2.972-.934 1.709.411 1.397.984 1.77.662.433 1.076 1.714 3.017-.918m-6.455-1.613c-.971 3.953-1.7 2.402-1.457 1.781" stroke="#0F488E" stroke-width=".246" stroke-linecap="round" stroke-linejoin="round"/><path d="M24.639 22.354c-3.28-1.323-3.885-1.381-3.575-2.1.388-.9 2.236-1.224.414-.164 1.033.382 2.14.85 3.354 1.586.6-.996.926-1.456-1.064-1.893l-1.541-.353" stroke="#0F488E" stroke-width=".246" stroke-linecap="round" stroke-linejoin="round"/><path fill-rule="evenodd" clip-rule="evenodd" d="M51.248 19.617c0-1.215-4.609-2.2-10.292-2.2s-10.292.974-10.292 2.19v2.892c0-.999 4.609-1.81 10.292-1.81s10.292.811 10.292 1.81v-2.882z" fill="#F8C300" stroke="#70614E" stroke-width=".205" stroke-linecap="round" stroke-linejoin="round"/><path d="M41.241 18.303h-.575a.451.451 0 00-.451.452v.575c0 .25.202.451.451.451h.575c.25 0 .452-.202.452-.451v-.575a.451.451 0 00-.452-.451zm1.949.04h-.555a.451.451 0 00-.451.452v.575a.45.45 0 00.45.451h.555c.25 0 .452-.202.452-.451v-.575a.451.451 0 00-.452-.452zm1.908.116h-.514a.451.451 0 00-.451.451v.575c0 .25.202.452.451.452h.514a.45.45 0 00.45-.452v-.575a.451.451 0 00-.45-.451zm1.844.221h-.452a.451.451 0 00-.45.452v.575a.45.45 0 00.45.451h.452c.25 0 .452-.202.452-.451v-.575a.451.451 0 00-.452-.452zm1.762.266h-.37a.451.451 0 00-.451.45v.576c0 .25.202.451.451.451h.37a.45.45 0 00.451-.451v-.575a.451.451 0 00-.451-.451zm1.635.597h-.247a.451.451 0 00-.451.451v.575c0 .25.202.452.451.452h.247a.45.45 0 00.45-.452v-.575a.451.451 0 00-.45-.451zm-11.064-1.2h-.554a.451.451 0 00-.451.452v.575a.45.45 0 00.45.451h.555c.25 0 .452-.202.452-.451v-.575a.451.451 0 00-.452-.452zm-1.947.116h-.513a.451.451 0 00-.452.451v.575c0 .25.202.452.452.452h.513a.45.45 0 00.451-.452v-.575a.451.451 0 00-.45-.451zm-1.909.221h-.452a.451.451 0 00-.451.452v.575c0 .249.202.451.451.451h.452a.45.45 0 00.451-.451v-.575a.451.451 0 00-.451-.452zm-1.844.266h-.37a.451.451 0 00-.451.45v.576c0 .25.202.451.451.451h.37a.45.45 0 00.451-.451v-.575a.451.451 0 00-.451-.451zm-1.76.597h-.247a.451.451 0 00-.45.451v.575c0 .25.201.452.45.452h.247a.45.45 0 00.451-.452v-.575a.451.451 0 00-.45-.451z" fill="#EFF0F2" stroke="#C2C1C1" stroke-width=".205" stroke-linecap="round" stroke-linejoin="round"/></g><defs><clipPath id="clip0_958_9560"><path fill="#fff" transform="translate(-.094 -.987)" d="M0 0h82.094v84.557H0z"/></clipPath></defs></svg>