<svg width="35" height="39" fill="none" xmlns="http://www.w3.org/2000/svg"><g clip-path="url(#clip0_916_74025)"><mask id="a" style="mask-type:luminance" maskUnits="userSpaceOnUse" x="0" y="0" width="81" height="40"><path d="M80.63.219H.29v39h80.34v-39z" fill="#fff"/></mask><g mask="url(#a)"><path d="M10.057 19.715L4.99 22.65l-4.7 8.18 19.177-11.115h-9.41z" fill="#874691"/><path d="M24.534 11.334l-5.067 2.935-4.701 8.18 19.17-11.116h-9.402z" fill="#DA1844"/><path d="M19.467 8.398L14.766.218v39l4.701-8.18V8.399z" fill="#F9B229"/><path d="M14.766.219l4.701 8.18 5.067 2.935h9.403L14.766.219z" fill="#F07F1A"/><path d="M14.766 16.988v22.23l4.701-8.18v-5.877l-4.701-8.173z" fill="#72B22C"/><path d="M24.534 28.103l-5.067 2.936-4.701 8.18 19.17-11.116h-9.402z" fill="#00743E"/><path d="M.29 8.6v22.23l4.7-8.18v-5.87L.29 8.6z" fill="#5F5A94"/><path d="M14.766 16.988v.008L.289 8.6l4.701 8.18 19.544 11.323h9.403L14.766 16.989z" fill="#0D90CD"/></g></g><defs><clipPath id="clip0_916_74025"><path fill="#fff" d="M0 0h34.32v39H0z"/></clipPath></defs></svg>