<svg width="47" height="47" fill="none" xmlns="http://www.w3.org/2000/svg"><path d="M25.885 30.68a2.876 2.876 0 11-5.752 0 2.876 2.876 0 015.752 0z" fill="#000"/><path d="M27.511 1.266L33.61 9.81l4.02-1.371 3.67 10.736h1.846v23.01H2.877v-23.01h.978v-.02l1.242.012L27.511 1.266zm-9.491 17.91h19.228l-1.988-5.817-2.919.934-14.322 4.882zm-2.988-3.036l14.786-5.038-3.076-4.314-11.71 9.352zm-4.485 6.87H6.712v3.835a3.835 3.835 0 003.835-3.835zm19.175 7.67a6.71 6.71 0 10-13.42 0 6.71 6.71 0 0013.42 0zm9.587 7.67v-3.835a3.835 3.835 0 00-3.834 3.835h3.834zm-3.834-15.34a3.835 3.835 0 003.834 3.835V23.01h-3.834zM6.711 38.35h3.835a3.835 3.835 0 00-3.835-3.835v3.835z" fill="#000"/></svg>