<svg width="1894" height="779" fill="none" xmlns="http://www.w3.org/2000/svg"><path opacity=".6" fill-rule="evenodd" clip-rule="evenodd" d="M1191.95 427.063H494.635c-9.455 0-16.482 8.75-14.442 17.982l71.043 321.377a14.791 14.791 0 0014.442 11.598h702.812c9.55 0 16.6-8.923 14.39-18.217l-76.54-321.377a14.794 14.794 0 00-14.39-11.363zM712.671.753H15.353C5.897.754-1.13 9.504.91 18.737l71.043 321.377a14.79 14.79 0 0014.441 11.598h702.811c9.554 0 16.601-8.923 14.388-18.217L727.059 12.117A14.791 14.791 0 00712.671.754zM1105.09 25.98h697.32c6.85 0 12.8 4.701 14.39 11.364l76.53 321.377c2.21 9.294-4.83 18.216-14.39 18.216h-702.81c-6.94 0-12.94-4.823-14.44-11.598l-71.04-321.377c-2.04-9.232 4.98-17.982 14.44-17.982z" fill="#EB4B51"/></svg>