<svg width="1485" height="136" fill="none" xmlns="http://www.w3.org/2000/svg"><mask id="a" maskUnits="userSpaceOnUse" x="-2.964" y=".068" width="1497.07" height="135.667" fill="#000"><path fill="#fff" d="M-2.964.068h1497.07v135.667H-2.964z"/><path d="M27.844 77.157c-2.56 0-4.931-.483-7.112-1.449-2.112-1.026-3.907-2.355-5.385-3.985-1.47-1.69-2.535-3.653-3.197-5.886-.653-2.295-.801-4.71-.445-7.246l5.219-37.131a19.657 19.657 0 012.469-7.155c1.298-2.294 2.915-4.256 4.851-5.887a22.944 22.944 0 016.505-3.984c2.46-1.027 4.972-1.54 7.532-1.54h63.653c2.561 0 4.897.513 7.009 1.54 2.181.966 4.006 2.294 5.476 3.984 1.478 1.63 2.543 3.593 3.196 5.887.662 2.234.814 4.619.458 7.155l-2.355 16.754H96.97l2.355-16.754H35.672l-5.218 37.13h63.652c2.561 0 4.901.483 7.022 1.45 2.181.966 4.006 2.294 5.476 3.984 1.469 1.69 2.53 3.683 3.184 5.978.661 2.234.814 4.618.457 7.154l-5.205 37.041c-.357 2.536-1.184 4.951-2.482 7.245a22.927 22.927 0 01-4.851 5.887 22.58 22.58 0 01-6.596 3.985 19.658 19.658 0 01-7.429 1.449H18.2c-2.56 0-4.931-.483-7.112-1.449-2.12-.966-3.915-2.294-5.385-3.985-1.47-1.69-2.535-3.653-3.197-5.887-.653-2.294-.801-4.709-.445-7.245l2.342-16.664h18.748l-2.341 16.664h65.48l5.206-37.04H27.844zM195.738 2.894l32.322 129.87h-18.748l-7.415-29.886h-59.171l-15.815 29.886h-18.748l68.826-129.87h18.749zm-43.269 81.418h44.813l-14.271-57.237-30.542 57.237zm148.909 48.452L265.826 37.58l-13.377 95.184h-18.748l18.252-129.87h20.486l36.188 97.81 63.772-97.81h20.395l-18.252 129.87h-18.657l13.377-95.184-62.306 95.184h-5.578zM467.849 2.894l32.322 129.87h-18.748l-7.414-29.886h-59.172l-15.815 29.886h-18.748l68.827-129.87h18.748zM424.58 84.312h44.813l-14.271-57.237-30.542 57.237zm196.586-35.049c-2.546 18.113-11.801 28.438-27.766 30.973l17.311 52.528h-20.76L572.917 80.87h-41.063l-7.293 51.894h-18.749l18.252-129.87h71.792c21.218 0 30.346 10.536 27.385 31.607l-2.075 14.762zm-86.703 13.042h52.038c4.999 0 8.749-1.087 11.25-3.26 2.5-2.174 4.098-5.736 4.794-10.687l1.82-12.951c.696-4.951.099-8.513-1.79-10.687-1.89-2.173-5.334-3.26-10.334-3.26h-52.038l-5.74 40.845zM700.269 2.894l32.322 129.87h-18.748l-7.415-29.886h-59.171l-15.815 29.886h-18.748L681.52 2.894h18.749zM657 84.312h44.813l-14.271-57.237L657 84.312zm81.232 48.452l18.252-129.87h71.792c21.218 0 30.346 10.536 27.384 31.607l-2.596 18.475c-2.961 21.072-15.051 31.608-36.269 31.608h-53.043l-6.772 48.18h-18.748zm28.129-66.746h52.038c4.999 0 8.749-1.087 11.25-3.26 2.5-2.174 4.098-5.736 4.794-10.687l2.342-16.664c.696-4.951.099-8.513-1.791-10.687-1.889-2.173-5.334-3.26-10.333-3.26h-52.038l-6.262 44.558zm200.234-16.755c-2.546 18.113-11.801 28.438-27.766 30.973l17.311 52.528h-20.76L918.346 80.87h-41.063l-7.294 51.894h-18.748l18.252-129.87h71.792c21.218 0 30.346 10.536 27.384 31.607l-2.074 14.762zm-86.703 13.042h52.038c4.999 0 8.749-1.087 11.25-3.26 2.5-2.174 4.098-5.736 4.794-10.687l1.82-12.951c.696-4.951.099-8.513-1.791-10.687-1.889-2.173-5.333-3.26-10.333-3.26h-52.038l-5.74 40.845zM1006.37 2.894l-18.25 129.87h-18.748l18.252-129.87h18.746zm14.28 18.566c.36-2.536 1.18-4.92 2.47-7.155 1.3-2.294 2.92-4.256 4.85-5.887a23.069 23.069 0 016.51-3.984c2.46-1.027 4.97-1.54 7.53-1.54h71.15c2.56 0 4.9.513 7.01 1.54 2.18.966 4.01 2.294 5.48 3.984 1.47 1.63 2.54 3.593 3.19 5.887.66 2.234.82 4.619.46 7.155l-2.35 16.754h-18.75l2.35-16.754h-71.15l-13.03 92.738h71.15l2.34-16.664h18.75l-2.34 16.664c-.36 2.536-1.19 4.951-2.48 7.245a22.872 22.872 0 01-4.86 5.887 22.521 22.521 0 01-6.59 3.985 19.662 19.662 0 01-7.43 1.449h-71.15c-2.56 0-4.93-.483-7.11-1.449-2.12-.966-3.92-2.294-5.39-3.985-1.47-1.69-2.53-3.653-3.2-5.887-.65-2.294-.8-4.709-.44-7.245l13.03-92.738zm124.4-18.566h95.57l-2.61 18.566h-76.82l-5.22 37.131h65.57l-2.61 18.566h-65.57l-5.2 37.041h76.82l-2.61 18.566h-95.57l18.25-129.87zm88.54 129.87l18.25-129.87h71.79c21.22 0 30.35 10.536 27.39 31.607l-2.6 18.475c-2.96 21.072-15.05 31.608-36.27 31.608h-53.04l-6.77 48.18h-18.75zm28.13-66.746h52.04c4.99 0 8.74-1.087 11.25-3.26 2.5-2.174 4.09-5.736 4.79-10.687l2.34-16.664c.7-4.951.1-8.513-1.79-10.687-1.89-2.173-5.33-3.26-10.33-3.26h-52.04l-6.26 44.558zm86.5 1.811c1.37-9.72 4.3-18.656 8.8-26.807 4.5-8.151 10.15-15.185 16.96-21.102 6.87-5.917 14.65-10.536 23.35-13.856 8.76-3.32 18.01-4.981 27.77-4.981 9.81 0 18.6 1.66 26.37 4.98 7.76 3.321 14.22 7.94 19.36 13.857 5.14 5.917 8.82 12.951 11.03 21.102 2.21 8.15 2.63 17.086 1.26 26.807-1.36 9.66-4.29 18.596-8.8 26.807-4.5 8.151-10.15 15.185-16.96 21.102-6.8 5.917-14.55 10.536-23.25 13.856-8.7 3.321-17.96 4.981-27.77 4.981-9.76 0-18.55-1.66-26.37-4.981-7.77-3.32-14.25-7.939-19.46-13.856-5.14-5.917-8.82-12.951-11.02-21.102-2.2-8.211-2.62-17.147-1.27-26.807zm59.91 53.977c7.99 0 15.46-1.329 22.42-3.985 7.02-2.657 13.24-6.37 18.67-11.14 5.42-4.769 9.91-10.445 13.46-17.026 3.55-6.641 5.88-13.917 7-21.826 1.11-7.91.82-15.154-.88-21.735-1.69-6.642-4.58-12.348-8.66-17.117-4.09-4.77-9.27-8.483-15.54-11.14-6.21-2.656-13.31-3.985-21.3-3.985-8.04 0-15.58 1.329-22.6 3.985-6.95 2.657-13.15 6.37-18.57 11.14-5.37 4.77-9.83 10.475-13.38 17.116-3.55 6.581-5.88 13.827-6.99 21.736-1.11 7.91-.82 15.185.86 21.826 1.7 6.581 4.56 12.257 8.59 17.026 4.08 4.77 9.23 8.483 15.44 11.14 6.27 2.656 13.43 3.985 21.48 3.985zm-18.27-79.516c.19-1.389.65-2.687 1.37-3.895.73-1.268 1.61-2.354 2.65-3.26a13.44 13.44 0 013.61-2.264 11.08 11.08 0 014.14-.815h37.41c1.4 0 2.67.272 3.81.815 1.21.543 2.2 1.298 2.98 2.264.85.906 1.46 1.992 1.83 3.26.38 1.208.47 2.506.27 3.895l-1.64 11.683h-12.71l1.31-9.329h-32.65l-6.52 46.37h32.65l1.3-9.238h12.71l-1.64 11.683c-.19 1.388-.66 2.717-1.38 3.985a12.129 12.129 0 01-2.73 3.17c-1.05.905-2.24 1.63-3.6 2.173-1.3.543-2.65.815-4.05.815h-37.4c-1.41 0-2.71-.272-3.91-.815a9.793 9.793 0 01-2.99-2.173c-.79-.906-1.37-1.963-1.75-3.17a9.325 9.325 0 01-.26-3.985l7.19-51.17z"/></mask><path d="M20.732 75.708l-.544.9.013.007.014.006.517-.913zm-5.385-3.985l-.805.7.005.007.006.006.794-.713zm-3.197-5.886l-.975.384.002.009.973-.393zm7.243-51.532l.862.393.005-.008-.867-.385zm4.851-5.887l.594.713.007-.006.008-.006-.609-.7zm6.505-3.984l.269.909.012-.005-.281-.904zm78.194 0l-.544.9.013.006.014.006.517-.912zm5.476 3.984l-.806.7.006.007.005.006.795-.713zm3.196 5.887l-.975.385.002.008.973-.393zm-1.897 23.91l-.139.99h1l.139-.99h-1zm-18.748 0h-1l-.14.99h1l.14-.99zm2.355-16.755h1l.139-.99h-1l-.14.99zm-63.653 0l.14-.99h-1l-.14.99h1zm-5.218 37.13h-1l-.14.99h1l.14-.99zm70.674 1.45l-.525.908.008.004.517-.913zm8.66 9.962l-.976.384.002.009.974-.393zm-7.23 51.44l.863.393.005-.008-.868-.385zm-11.447 9.872l-.26-.913-.01.004.27.909zm-80.023 0l-.525.909.008.004.517-.913zm-5.385-3.985l-.806.7.806-.7zm-3.197-5.887l-.975.385.002.008.973-.393zm1.897-23.909l.14-.99h-1l-.14.99h1zm18.748 0h1l.14-.99h-1l-.14.99zm-2.341 16.664h-1l-.14.991h1l.14-.991zm65.481 0l-.139.991h1l.14-.991h-1zm5.206-37.04h1l.14-.991h-1l-.14.99zm-63.513-.991c-2.43 0-4.673-.458-6.736-1.371l-1.033 1.825c2.3 1.018 4.799 1.526 7.49 1.526l.279-1.98zm-6.708-1.359c-2.02-.982-3.73-2.248-5.134-3.798l-1.59 1.426c1.552 1.711 3.433 3.101 5.636 4.172l1.088-1.8zm-5.123-3.785c-1.392-1.6-2.401-3.458-3.03-5.58l-1.946.787c.695 2.346 1.817 4.413 3.365 6.194l1.61-1.4zm-3.027-5.57c-.618-2.171-.759-4.455-.42-6.862h-2c-.375 2.666-.22 5.212.469 7.63l1.951-.769zm-.42-6.862l5.218-37.131h-2L10.705 58.59h2zm5.218-37.131a18.567 18.567 0 012.331-6.762l-1.725-.786a20.751 20.751 0 00-2.606 7.548h2zm2.336-6.77c1.233-2.179 2.759-4.027 4.578-5.559L23.65 7.706c-2.053 1.728-3.761 3.804-5.125 6.215l1.735.769zm4.593-5.571a21.737 21.737 0 016.165-3.776l-.538-1.818a24.154 24.154 0 00-6.845 4.193l1.218 1.4zm6.177-3.781c2.323-.97 4.691-1.454 7.112-1.454l.279-1.98c-2.7 0-5.355.542-7.954 1.626l.563 1.808zm7.112-1.454h63.653l.278-1.98H38.421l-.279 1.98zm63.653 0c2.421 0 4.618.485 6.604 1.45l1.088-1.8c-2.239-1.088-4.714-1.63-7.414-1.63l-.278 1.98zm6.631 1.462c2.074.919 3.8 2.176 5.187 3.773l1.611-1.4c-1.551-1.786-3.476-3.184-5.765-4.198l-1.033 1.825zm5.198 3.785c1.389 1.532 2.396 3.38 3.016 5.559l1.951-.77c-.686-2.41-1.811-4.486-3.378-6.214l-1.589 1.425zm3.018 5.567c.623 2.105.769 4.355.431 6.762h2c.375-2.665.215-5.185-.485-7.548l-1.946.786zm.431 6.762l-2.355 16.754h2l2.355-16.754h-2zm-1.215 15.764H97.109l-.278 1.98h18.748l.279-1.98zm-17.888.99l2.355-16.754h-2L95.97 38.214h2zm1.494-17.744H35.811l-.278 1.98h63.653l.278-1.98zm-64.792.99L29.454 58.59h2l5.218-37.131h-2zm-4.357 38.122h63.652l.279-1.98H30.593l-.279 1.98zm63.652 0c2.43 0 4.639.457 6.636 1.367l1.049-1.817c-2.243-1.022-4.715-1.53-7.406-1.53l-.279 1.98zm6.644 1.371c2.074.918 3.799 2.176 5.187 3.772l1.611-1.4c-1.551-1.785-3.476-3.184-5.765-4.197l-1.033 1.825zm5.187 3.772c1.388 1.597 2.393 3.48 3.014 5.662l1.951-.769c-.685-2.407-1.802-4.508-3.354-6.293l-1.611 1.4zm3.016 5.67c.624 2.105.769 4.356.431 6.762h2c.375-2.665.215-5.184-.484-7.547l-1.947.786zm.431 6.762l-5.205 37.041h2l5.205-37.04h-2zm-5.205 37.041a19.273 19.273 0 01-2.35 6.861l1.736.769c1.368-2.419 2.239-4.964 2.614-7.63h-2zm-2.345 6.852a21.722 21.722 0 01-4.597 5.58l1.217 1.4a24.142 24.142 0 005.106-6.194l-1.726-.786zm-4.597 5.58a21.378 21.378 0 01-6.247 3.772l.52 1.826a23.805 23.805 0 006.944-4.198l-1.217-1.4zm-6.257 3.776a18.568 18.568 0 01-7.02 1.368l-.278 1.98a20.75 20.75 0 007.837-1.53l-.539-1.818zm-7.02 1.368H18.34l-.279 1.98h65.482l.278-1.98zm-65.481 0c-2.43 0-4.673-.458-6.736-1.372l-1.033 1.826c2.3 1.018 4.799 1.526 7.49 1.526l.279-1.98zm-6.728-1.368c-2.013-.917-3.712-2.175-5.103-3.776l-1.612 1.4c1.548 1.781 3.439 3.179 5.666 4.194l1.05-1.818zM6.51 126.63c-1.392-1.601-2.401-3.458-3.03-5.58l-1.946.786c.695 2.347 1.817 4.414 3.365 6.194l1.61-1.4zm-3.027-5.571c-.618-2.17-.759-4.454-.42-6.861h-2c-.375 2.666-.22 5.211.469 7.63l1.951-.769zm-.42-6.861l2.341-16.664h-2l-2.342 16.664h2zm1.202-15.673h18.748l.279-1.981H4.542l-.278 1.98zm17.887-.99l-2.341 16.663h2l2.341-16.664h-2zm-1.48 17.654h65.481l.278-1.981H20.95l-.279 1.981zm66.62-.991l5.206-37.04h-2l-5.206 37.04h2zm4.345-38.031H27.984l-.279 1.98h63.653l.278-1.98zM195.738 2.894l.983-.356-.158-.634h-.686l-.139.99zm32.322 129.87l-.139.99h1.457l-.335-1.346-.983.356zm-18.748 0l-.983.356.157.634h.687l.139-.99zm-7.415-29.886l.984-.356-.158-.635h-.687l-.139.991zm-59.171 0l.139-.991h-.687l-.335.635.883.356zm-15.815 29.886l-.139.99h.686l.336-.634-.883-.356zm-18.748 0l-.883-.356-.714 1.346h1.457l.14-.99zm68.826-129.87l.139-.99h-.686l-.336.634.883.356zm-24.52 81.418l-.882-.36-.72 1.35h1.463l.139-.99zm44.813 0l-.14.99h1.458l-.335-1.347-.983.357zm-14.271-57.237l.983-.357-.594-2.383-1.271 2.38.882.36zM194.754 3.25l32.323 129.87 1.966-.712-32.322-129.87-1.967.712zm33.445 128.524h-18.748l-.278 1.98h18.748l.278-1.98zm-17.904.634l-7.414-29.886-1.967.711 7.415 29.887 1.966-.712zm-8.259-30.521h-59.171l-.278 1.981h59.171l.278-1.981zm-60.193.635l-15.815 29.886 1.766.712 15.815-29.887-1.766-.711zm-14.793 29.252h-18.748l-.279 1.98h18.749l.278-1.98zm-18.004 1.346L177.872 3.25l-1.766-.712-68.826 129.87 1.766.712zM176.85 3.884h18.748l.279-1.98h-18.749l-.278 1.98zm-24.52 81.418h44.812l.279-1.98h-44.813l-.278 1.98zm45.935-1.347l-14.271-57.237-1.966.713 14.271 57.237 1.966-.713zm-16.136-57.24l-30.542 57.238 1.763.718 30.542-57.237-1.763-.718zm119.249 106.049l-.955.449.202.541h.613l.14-.99zM265.826 37.58l.955-.449-1.955.45h1zm-13.377 95.184l-.139.99h1l.139-.99h-1zm-18.748 0h-1l-.139.99h1l.139-.99zm18.252-129.87l.139-.99h-1l-.139.99h1zm20.486 0l.955-.447-.201-.543h-.615l-.139.99zm36.188 97.81l-.955.447.646 1.746 1.138-1.745-.829-.448zm63.772-97.81l.139-.99h-.614l-.354.543.829.447zm20.395 0h1l.139-.99h-1l-.139.99zm-18.252 129.87l-.14.99h1l.14-.99h-1zm-18.657 0h-1l-.139.99h1l.139-.99zm13.377-95.184h1l-1.828-.449.828.45zm-62.306 95.184l-.139.99h.613l.354-.541-.828-.449zm-4.624-.449l-35.551-95.184-1.909.899 35.551 95.183 1.909-.898zM264.826 37.58l-13.377 95.184h2l13.377-95.184h-2zm-12.238 94.194H233.84l-.278 1.98h18.748l.278-1.98zm-17.887.99l18.252-129.87h-2l-18.252 129.87h2zm17.113-128.88H272.3l.278-1.98h-20.486l-.278 1.98zm19.67-.543l36.188 97.81 1.91-.894-36.188-97.81-1.91.894zm37.972 97.811l63.772-97.81-1.658-.895-63.772 97.81 1.658.895zM372.26 3.884h20.394l.279-1.98h-20.395l-.278 1.98zm19.534-.99l-18.252 129.87h2l18.252-129.87h-2zm-17.113 128.88h-18.657l-.278 1.98h18.656l.279-1.98zm-17.796.99l13.377-95.184h-2l-13.377 95.184h2zm11.549-95.633l-62.306 95.184 1.656.898L370.09 38.03l-1.656-.899zm-61.338 94.643h-5.579l-.279 1.98h5.579l.279-1.98zM467.849 2.894l.983-.356-.158-.634h-.686l-.139.99zm32.322 129.87l-.139.99h1.458l-.336-1.346-.983.356zm-18.748 0l-.983.356.157.634h.687l.139-.99zm-7.414-29.886l.983-.356-.158-.635h-.686l-.139.991zm-59.172 0l.139-.991h-.686l-.336.635.883.356zm-15.815 29.886l-.139.99h.687l.335-.634-.883-.356zm-18.748 0l-.883-.356-.714 1.346h1.458l.139-.99zm68.827-129.87l.139-.99h-.686l-.336.634.883.356zM424.58 84.312l-.881-.36-.721 1.35h1.463l.139-.99zm44.813 0l-.139.99h1.458l-.336-1.347-.983.357zm-14.271-57.237l.983-.357-.594-2.383-1.27 2.38.881.36zM466.866 3.25l32.322 129.87 1.966-.712-32.322-129.87-1.966.712zm33.445 128.524h-18.749l-.278 1.98h18.748l.279-1.98zm-17.905.634l-7.414-29.886-1.967.711 7.415 29.887 1.966-.712zm-8.258-30.521h-59.172l-.278 1.981h59.171l.279-1.981zm-60.194.635l-15.815 29.886 1.766.712 15.816-29.887-1.767-.711zm-14.793 29.252h-18.748l-.278 1.98h18.748l.278-1.98zm-18.004 1.346L449.983 3.25l-1.765-.712-68.827 129.87 1.766.712zM448.961 3.884h18.749l.278-1.98H449.24l-.279 1.98zm-24.52 81.418h44.813l.278-1.98h-44.813l-.278 1.98zm45.935-1.347l-14.271-57.237-1.966.713 14.271 57.237 1.966-.713zm-16.135-57.24l-30.542 57.238 1.762.718 30.542-57.237-1.762-.718zM593.4 80.237l-.024-.977-1.331.212.39 1.183.965-.418zm17.311 52.528l-.139.99h1.568l-.464-1.408-.965.418zm-20.76 0l-.966.417.188.573h.639l.139-.99zM572.917 80.87l.966-.417-.189-.573h-.638l-.139.99zm-41.063 0l.139-.99h-1l-.139.99h1zm-7.293 51.894l-.14.99h1l.14-.99h-1zm-18.749 0h-1l-.139.99h1l.139-.99zm18.252-129.87l.139-.99h-1l-.139.99h1zm10.399 59.41h-1l-.139.99h1l.139-.99zm5.74-40.844l.14-.99h-1l-.14.99h1zm79.963 27.803c-1.255 8.927-4.145 15.801-8.568 20.735-4.406 4.915-10.441 8.025-18.222 9.261l.049 1.955c8.184-1.3 14.758-4.62 19.608-10.03 4.832-5.39 7.842-12.735 9.133-21.92h-2zm-27.731 31.391l17.311 52.528 1.93-.836-17.31-52.528-1.931.836zm18.415 51.12h-20.76l-.278 1.98h20.76l.278-1.98zm-19.934.573l-17.033-51.894-1.932.834 17.034 51.894 1.931-.834zm-17.86-52.467h-41.063l-.278 1.98h41.063l.278-1.98zm-42.202.99l-7.293 51.894h2l7.293-51.894h-2zm-6.154 50.904h-18.749l-.278 1.98h18.748l.279-1.98zm-17.888.99l18.252-129.87h-2l-18.252 129.87h2zm17.113-128.88h71.792l.279-1.98h-71.793l-.278 1.98zm71.792 0c10.454 0 17.746 2.595 22.092 7.611 4.347 5.017 5.891 12.622 4.432 23.006h2c1.502-10.687-.037-18.885-4.819-24.404-4.782-5.52-12.663-8.193-23.426-8.193l-.279 1.98zm26.524 30.617l-2.075 14.762h2l2.075-14.762h-2zm-87.917 28.794h52.038l.278-1.98h-52.038l-.278 1.98zm52.038 0c5.109 0 9.184-1.105 11.997-3.55l-1.217-1.401c-2.188 1.902-5.612 2.97-10.502 2.97l-.278 1.98zm11.997-3.55c2.813-2.446 4.475-6.328 5.186-11.387h-2c-.681 4.842-2.215 8.084-4.403 9.986l1.217 1.4zm5.186-11.387l1.82-12.951h-2l-1.82 12.95h2zm1.82-12.951c.711-5.06.141-8.942-1.985-11.387l-1.611 1.4c1.653 1.902 2.277 5.145 1.596 9.987h2zM603.38 24.02c-2.126-2.445-5.89-3.55-11-3.55l-.278 1.98c4.89 0 8.014 1.069 9.667 2.97l1.611-1.4zm-11-3.55h-52.037l-.279 1.98h52.038l.278-1.98zm-53.177.99l-5.74 40.845h2l5.74-40.845h-2zM700.269 2.894l.983-.356-.158-.634h-.686l-.139.99zm32.322 129.87l-.139.99h1.457l-.335-1.346-.983.356zm-18.748 0l-.983.356.157.634h.687l.139-.99zm-7.415-29.886l.984-.356-.158-.635h-.686l-.14.991zm-59.171 0l.139-.991h-.686l-.336.635.883.356zm-15.815 29.886l-.139.99h.686l.336-.634-.883-.356zm-18.748 0l-.883-.356-.714 1.346h1.458l.139-.99zM681.52 2.894l.14-.99h-.687l-.336.634.883.356zM657 84.312l-.882-.36-.72 1.35h1.463l.139-.99zm44.813 0l-.139.99h1.458l-.336-1.347-.983.357zm-14.271-57.237l.983-.357-.594-2.383-1.271 2.38.882.36zM699.286 3.25l32.322 129.87 1.966-.712-32.322-129.87-1.966.712zm33.444 128.524h-18.748l-.278 1.98h18.748l.278-1.98zm-17.904.634l-7.414-29.886-1.967.711 7.415 29.887 1.966-.712zm-8.258-30.521h-59.172l-.278 1.981h59.171l.279-1.981zm-60.194.635l-15.815 29.886 1.766.712 15.815-29.887-1.766-.711zm-14.793 29.252h-18.748l-.278 1.98h18.748l.278-1.98zm-18.004 1.346L682.403 3.25l-1.766-.712-68.826 129.87 1.766.712zM681.381 3.884h18.748l.279-1.98H681.66l-.279 1.98zm-24.52 81.418h44.813l.278-1.98h-44.813l-.278 1.98zm45.935-1.347l-14.271-57.237-1.966.713 14.271 57.237 1.966-.713zm-16.136-57.24l-30.542 57.238 1.763.718 30.542-57.237-1.763-.718zm51.572 106.049h-1l-.139.99h1l.139-.99zm18.252-129.87l.139-.99h-1l-.139.99h1zm7.268 81.69l.139-.99h-1l-.139.99h1zm-6.772 48.18l-.139.99h1l.139-.99h-1zm9.381-66.746h-1l-.139.99h1l.139-.99zm6.262-44.558l.139-.99h-1l-.139.99h1zm-33.391 111.304l18.252-129.87h-2l-18.252 129.87h2zm17.113-128.88h71.792l.278-1.98h-71.792l-.278 1.98zm71.792 0c10.454 0 17.746 2.595 22.092 7.611 4.346 5.017 5.891 12.622 4.431 23.006h2c1.502-10.687-.036-18.885-4.818-24.404-4.782-5.52-12.663-8.193-23.427-8.193l-.278 1.98zm26.523 30.617l-2.596 18.475h2l2.596-18.475h-2zm-2.596 18.475c-1.459 10.384-5.142 17.99-10.898 23.007-5.756 5.016-13.777 7.61-24.231 7.61l-.279 1.98c10.764 0 19.396-2.672 25.73-8.192 6.333-5.52 10.176-13.717 11.678-24.405h-2zm-35.129 30.617h-53.044l-.278 1.98h53.043l.279-1.98zm-54.183.99l-6.772 48.181h2l6.772-48.18h-2zm-5.632 47.191h-18.749l-.278 1.98h18.748l.279-1.98zm9.102-64.766h52.038l.278-1.98H766.5l-.278 1.98zm52.038 0c5.109 0 9.184-1.105 11.997-3.55l-1.217-1.4c-2.188 1.9-5.612 2.97-10.502 2.97l-.278 1.98zm11.997-3.55c2.813-2.446 4.475-6.328 5.186-11.387h-2c-.681 4.842-2.215 8.084-4.403 9.986l1.217 1.4zm5.186-11.387l2.342-16.664h-2l-2.342 16.664h2zm2.342-16.664c.711-5.06.141-8.942-1.985-11.387l-1.611 1.4c1.653 1.902 2.276 5.145 1.596 9.987h2zM835.8 24.02c-2.126-2.445-5.891-3.55-11-3.55l-.278 1.98c4.89 0 8.014 1.069 9.667 2.97l1.611-1.4zm-11-3.55h-52.038l-.278 1.98h52.038l.278-1.98zm-53.177.99l-6.262 44.558h2l6.262-44.558h-2zm167.206 58.776l-.024-.977-1.331.212.39 1.183.965-.418zm17.311 52.528l-.139.99h1.568l-.464-1.408-.965.418zm-20.76 0l-.966.417.188.573h.638l.14-.99zM918.346 80.87l.965-.417-.188-.573h-.638l-.139.99zm-41.063 0l.139-.99h-1l-.139.99h1zm-7.294 51.894l-.139.99h1l.139-.99h-1zm-18.748 0h-1l-.139.99h1l.139-.99zm18.252-129.87l.139-.99h-1l-.139.99h1zm10.399 59.41h-1l-.139.99h1l.139-.99zm5.74-40.844l.139-.99h-1l-.139.99h1zm79.963 27.803c-1.255 8.927-4.145 15.801-8.568 20.735-4.406 4.915-10.441 8.025-18.222 9.261l.049 1.955c8.184-1.3 14.758-4.62 19.607-10.03 4.833-5.39 7.843-12.735 9.134-21.92h-2zm-27.731 31.391l17.311 52.528 1.93-.836-17.31-52.528-1.931.836zm18.415 51.12h-20.76l-.279 1.98h20.761l.278-1.98zm-19.934.573l-17.034-51.894-1.931.834 17.034 51.894 1.931-.834zm-17.86-52.467h-41.063l-.279 1.98h41.064l.278-1.98zm-42.202.99l-7.294 51.894h2l7.294-51.894h-2zm-6.154 50.904H851.38l-.278 1.98h18.748l.279-1.98zm-17.888.99l18.252-129.87h-2l-18.252 129.87h2zm17.113-128.88h71.792l.278-1.98h-71.792l-.278 1.98zm71.792 0c10.454 0 17.746 2.595 22.092 7.611 4.346 5.017 5.891 12.622 4.431 23.006h2c1.502-10.687-.036-18.885-4.818-24.404-4.782-5.52-12.663-8.193-23.427-8.193l-.278 1.98zm26.523 30.617l-2.074 14.762h2l2.074-14.762h-2zm-87.916 28.794h52.037l.279-1.98h-52.038l-.278 1.98zm52.037 0c5.11 0 9.185-1.105 11.998-3.55l-1.217-1.401c-2.188 1.902-5.612 2.97-10.502 2.97l-.279 1.98zm11.998-3.55c2.813-2.446 4.475-6.328 5.186-11.387h-2c-.681 4.842-2.215 8.084-4.403 9.986l1.217 1.4zm5.186-11.387l1.82-12.951h-2l-1.82 12.95h2zm1.82-12.951c.711-5.06.141-8.942-1.985-11.387l-1.611 1.4c1.653 1.902 2.276 5.145 1.596 9.987h2zm-1.985-11.387c-2.126-2.445-5.89-3.55-11-3.55l-.278 1.98c4.89 0 8.014 1.069 9.667 2.97l1.611-1.4zm-11-3.55h-52.038l-.278 1.98h52.038l.278-1.98zm-53.177.99l-5.74 40.845h2l5.74-40.845h-2zM1006.37 2.894h1l.14-.99h-1l-.14.99zm-18.25 129.87l-.139.99h1l.139-.99h-1zm-18.748 0h-1l-.14.99h1l.14-.99zm18.252-129.87l.139-.99h-1l-.139.99h1zm17.746 0l-18.25 129.87h2l18.25-129.87h-2zm-17.111 128.88h-18.748l-.279 1.98h18.749l.278-1.98zm-17.887.99l18.252-129.87h-2l-18.252 129.87h2zm17.112-128.88h18.746l.28-1.98h-18.747l-.279 1.98zm35.636 10.421l.86.393.01-.008-.87-.385zm4.85-5.887l.6.713v-.006l.01-.006-.61-.7zm6.51-3.984l.27.909.01-.005-.28-.904zm85.69 0l-.54.9.01.006.01.006.52-.912zm5.48 3.984l-.81.7.01.007v.006l.8-.713zm3.19 5.887l-.97.385v.008l.97-.393zm-1.89 23.91l-.14.99h1l.14-.99h-1zm-18.75 0h-1l-.14.99h1l.14-.99zm2.35-16.755h1l.14-.99h-1l-.14.99zm-71.15 0l.14-.99h-1l-.14.99h1zm-13.03 92.738h-1l-.14.991h1l.14-.991zm71.15 0l-.14.991h1l.14-.991h-1zm2.34-16.664l.14-.99h-1l-.14.99h1zm18.75 0h1l.14-.99h-1l-.14.99zm-4.82 23.909l.86.393v-.008l-.86-.385zm-11.45 9.872l-.26-.913-.01.004.27.909zm-85.69 0l-.53.909.01.004.52-.913zm-5.39-3.985l-.8.7.8-.7zm-3.2-5.887l-.97.385v.008l.97-.393zm13.59-99.983a18.688 18.688 0 012.33-6.762l-1.72-.786a20.749 20.749 0 00-2.61 7.548h2zm2.34-6.77c1.23-2.179 2.76-4.027 4.58-5.559l-1.19-1.425c-2.05 1.728-3.76 3.804-5.13 6.215l1.74.769zm4.59-5.571a21.76 21.76 0 016.17-3.776l-.54-1.818a24.239 24.239 0 00-6.85 4.193l1.22 1.4zm6.18-3.781c2.32-.97 4.69-1.454 7.11-1.454l.28-1.98c-2.7 0-5.36.542-7.95 1.626l.56 1.808zm7.11-1.454h71.15l.28-1.98h-71.15l-.28 1.98zm71.15 0c2.42 0 4.62.485 6.61 1.45l1.08-1.8c-2.23-1.088-4.71-1.63-7.41-1.63l-.28 1.98zm6.63 1.462c2.08.919 3.8 2.176 5.19 3.773l1.61-1.4c-1.55-1.786-3.47-3.184-5.76-4.198l-1.04 1.825zm5.2 3.785c1.39 1.532 2.4 3.38 3.02 5.559l1.95-.77c-.69-2.41-1.81-4.486-3.38-6.214l-1.59 1.425zm3.02 5.567c.62 2.105.77 4.355.43 6.762h2c.38-2.665.22-5.185-.48-7.548l-1.95.786zm.43 6.762l-2.35 16.754h2l2.35-16.754h-2zm-1.21 15.764h-18.75l-.28 1.98h18.75l.28-1.98zm-17.89.99l2.35-16.754h-2l-2.35 16.754h2zm1.49-17.744h-71.15l-.28 1.98h71.15l.28-1.98zm-72.29.99l-13.03 92.738h2l13.03-92.738h-2zm-12.17 93.729h71.15l.28-1.981h-71.15l-.28 1.981zm72.29-.991l2.34-16.664h-2l-2.34 16.664h2zm1.2-15.673h18.75l.28-1.981H1100l-.28 1.98zm17.89-.99l-2.34 16.663h2l2.34-16.664h-2zm-2.34 16.663a19.253 19.253 0 01-2.35 6.861l1.73.769a21.53 21.53 0 002.62-7.63h-2zm-2.35 6.852a21.64 21.64 0 01-4.59 5.58l1.21 1.4a24.233 24.233 0 005.11-6.194l-1.73-.786zm-4.59 5.58a21.463 21.463 0 01-6.25 3.772l.52 1.826a23.783 23.783 0 006.94-4.198l-1.21-1.4zm-6.26 3.776c-2.25.91-4.59 1.368-7.02 1.368l-.28 1.98c2.69 0 5.31-.508 7.84-1.53l-.54-1.818zm-7.02 1.368h-71.15l-.28 1.98h71.15l.28-1.98zm-71.15 0c-2.43 0-4.68-.458-6.74-1.372l-1.03 1.826c2.3 1.018 4.8 1.526 7.49 1.526l.28-1.98zm-6.73-1.368c-2.01-.917-3.71-2.175-5.1-3.776l-1.61 1.4c1.54 1.781 3.43 3.179 5.66 4.194l1.05-1.818zm-5.1-3.776c-1.4-1.601-2.4-3.458-3.03-5.58l-1.95.786c.7 2.347 1.82 4.414 3.37 6.194l1.61-1.4zm-3.03-5.571c-.62-2.17-.76-4.454-.42-6.861h-2c-.38 2.666-.22 5.211.47 7.63l1.95-.769zm-.42-6.861l13.03-92.738h-2l-13.03 92.738h2zM1145.05 2.894l.14-.99h-1l-.14.99h1zm95.57 0h1l.14-.99h-1l-.14.99zm-2.61 18.566l-.14.99h1l.14-.99h-1zm-76.82 0l.14-.99h-1l-.14.99h1zm-5.22 37.131h-1l-.14.99h1l.14-.99zm65.57 0h1l.14-.99h-1l-.14.99zm-2.61 18.566l-.13.99h1l.13-.99h-1zm-65.57 0l.14-.99h-1l-.14.99h1zm-5.2 37.041h-1l-.14.991h1l.14-.991zm76.82 0h1l.14-.99h-1l-.14.99zm-2.61 18.566l-.14.99h1l.14-.99h-1zm-95.57 0h-1l-.14.99h1l.14-.99zm18.11-128.88h95.57l.28-1.98h-95.57l-.28 1.98zm94.71-.99l-2.61 18.566h2l2.61-18.566h-2zm-1.47 17.575h-76.82l-.28 1.981h76.82l.28-1.98zm-77.96.99l-5.22 37.132h2l5.22-37.131h-2zm-4.36 38.123h65.57l.28-1.98h-65.57l-.28 1.98zm64.71-.99l-2.61 18.565h2l2.61-18.566h-2zm-1.47 17.575h-65.57l-.28 1.98h65.58l.27-1.98zm-66.71.99l-5.2 37.041h2l5.2-37.04h-2zm-4.34 38.032h76.82l.28-1.981h-76.83l-.27 1.981zm75.96-.991l-2.61 18.566h2l2.61-18.566h-2zm-1.47 17.576h-95.57l-.28 1.98h95.57l.28-1.98zm-94.71.99l18.25-129.87h-2l-18.25 129.87h2zm105.79 0h-1l-.14.99h1l.14-.99zm18.25-129.87l.14-.99h-1l-.14.99h1zm7.27 81.69l.14-.99h-1l-.14.99h1zm-6.77 48.18l-.14.99h1l.14-.99h-1zm9.38-66.746h-1l-.14.99h1l.14-.99zm6.26-44.558l.14-.99h-1l-.14.99h1zm-33.39 111.304l18.25-129.87h-2l-18.25 129.87h2zm17.11-128.88h71.79l.28-1.98h-71.79l-.28 1.98zm71.79 0c10.46 0 17.75 2.595 22.1 7.611 4.34 5.017 5.89 12.622 4.43 23.006h2c1.5-10.687-.04-18.885-4.82-24.404-4.78-5.52-12.66-8.193-23.43-8.193l-.28 1.98zm26.53 30.617l-2.6 18.475h2l2.6-18.475h-2zm-2.6 18.475c-1.46 10.384-5.14 17.99-10.9 23.007-5.75 5.016-13.77 7.61-24.23 7.61l-.28 1.98c10.77 0 19.4-2.672 25.73-8.192 6.34-5.52 10.18-13.717 11.68-24.405h-2zm-35.13 30.617h-53.04l-.28 1.98h53.04l.28-1.98zm-54.18.99l-6.77 48.181h2l6.77-48.18h-2zm-5.63 47.191h-18.75l-.28 1.98h18.75l.28-1.98zm9.1-64.766h52.04l.27-1.98h-52.03l-.28 1.98zm52.04 0c5.11 0 9.18-1.105 11.99-3.55l-1.21-1.4c-2.19 1.9-5.62 2.97-10.51 2.97l-.27 1.98zm11.99-3.55c2.82-2.446 4.48-6.328 5.19-11.387h-2c-.68 4.842-2.22 8.084-4.4 9.986l1.21 1.4zm5.19-11.387l2.34-16.664h-2l-2.34 16.664h2zm2.34-16.664c.71-5.06.14-8.942-1.98-11.387l-1.61 1.4c1.65 1.902 2.27 5.145 1.59 9.987h2zm-1.98-11.387c-2.13-2.445-5.89-3.55-11-3.55l-.28 1.98c4.89 0 8.01 1.069 9.67 2.97l1.61-1.4zm-11-3.55h-52.04l-.28 1.98h52.04l.28-1.98zm-53.18.99l-6.26 44.558h2l6.26-44.558h-2zm107-1.54l-.6-.704-.01.004.61.7zm23.35-13.856l-.25-.918.25.918zm76.99 88.572l.88.374v-.003l-.88-.37zm-94.35 34.958l-.51.917v.001l.51-.918zm-19.46-13.856l-.8.7v.004l.8-.704zm-11.02-21.102l-.98.371v.003l.98-.374zm81.06 23.185l-.25-.918v.001l.25.917zm32.13-28.166l.88.364v-.003l-.88-.36zm6.12-43.562l-.98.361v.003l.98-.364zm-24.2-28.256l-.5.917v.002l.5-.919zm-43.9 0l-.24-.918-.01.001.25.917zm-18.57 11.14l-.62-.696v.005l.62.69zm-13.38 17.116l.88.364v-.003l-.88-.36zm-6.13 43.562l-.98.36v.004l.98-.364zm8.59 17.026l-.82.692.01.004.81-.696zm15.44 11.14l-.5.917v.001l.5-.918zm4.58-79.426l.85.407.01-.008v-.008l-.86-.39zm2.65-3.26l.61.7-.61-.7zm3.61-2.264l-.26-.91-.01.003-.01.004.28.903zm45.36 0l-.53.903v.004l.01.003.52-.91zm2.98 2.264l-.83.677.02.024.02.022.79-.723zm1.83 3.26l-.98.39.01.009v.008l.97-.407zm-1.37 15.578l-.14.99h1l.14-.99h-1zm-12.71 0h-1l-.14.99h1l.14-.99zm1.31-9.329h1l.14-.99h-1l-.14.99zm-32.65 0l.14-.99h-1l-.14.99h1zm-6.52 46.37h-1l-.14.99h1l.14-.99zm32.65 0l-.14.99h1l.14-.99h-1zm1.3-9.238l.14-.99h-1l-.14.99h1zm12.71 0h1l.14-.99h-1l-.14.99zm-3.02 15.668l.85.406.01-.008v-.008l-.86-.39zm-2.73 3.17l-.59-.723-.01.011-.01.011.61.701zm-3.6 2.173l-.27-.91-.01.003-.01.004.29.903zm-45.36 0l-.54.903.01.004v.003l.53-.91zm-2.99-2.173l-.81.7.01.011.01.011.79-.722zm-1.75-3.17l-.97.39v.016l.97-.406zm-33.71-29.615c1.35-9.606 4.25-18.413 8.68-26.433l-1.75-.748c-4.57 8.281-7.54 17.346-8.93 27.181h2zm8.68-26.433c4.43-8.036 9.99-14.957 16.69-20.776l-1.22-1.4c-6.92 6.015-12.66 13.162-17.22 21.428l1.75.747zm16.68-20.772c6.76-5.821 14.42-10.37 23-13.643l-.5-1.834c-8.82 3.367-16.73 8.057-23.7 14.07l1.2 1.407zm22.99-13.642c8.63-3.269 17.75-4.909 27.39-4.909l.28-1.98c-9.87 0-19.26 1.68-28.16 5.053l.49 1.836zm27.39-4.909c9.7 0 18.36 1.64 26 4.908l1.02-1.834c-7.89-3.374-16.81-5.055-26.74-5.055l-.28 1.981zm26 4.908c7.66 3.273 14.01 7.82 19.07 13.64l1.61-1.401c-5.23-6.015-11.79-10.705-19.66-14.073l-1.02 1.834zm19.07 13.64c5.05 5.818 8.67 12.74 10.85 20.774l1.96-.747c-2.24-8.266-5.98-15.413-11.2-21.428l-1.61 1.4zm10.85 20.774c2.17 8.02 2.59 16.828 1.24 26.434h2c1.38-9.835.96-18.9-1.28-27.18l-1.96.746zm1.24 26.434c-1.34 9.545-4.24 18.353-8.67 26.436l1.75.742c4.58-8.339 7.55-17.402 8.92-27.178h-2zm-8.67 26.434c-4.44 8.035-10 14.956-16.69 20.775l1.21 1.4c6.92-6.015 12.66-13.162 17.23-21.428l-1.75-.747zm-16.69 20.775c-6.7 5.818-14.33 10.366-22.9 13.639l.5 1.834c8.82-3.368 16.69-8.058 23.61-14.073l-1.21-1.4zm-22.9 13.639c-8.56 3.268-17.68 4.908-27.38 4.908l-.28 1.981c9.93 0 19.32-1.681 28.16-5.055l-.5-1.834zm-27.38 4.908c-9.64 0-18.31-1.64-26.01-4.909l-1.01 1.836c7.95 3.373 16.87 5.054 26.74 5.054l.28-1.981zm-26.01-4.908c-7.65-3.274-14.03-7.822-19.15-13.643l-1.61 1.408c5.29 6.012 11.88 10.702 19.75 14.069l1.01-1.834zm-19.15-13.639c-5.06-5.819-8.68-12.74-10.85-20.775l-1.96.747c2.24 8.266 5.97 15.413 11.2 21.428l1.61-1.4zm-10.85-20.773c-2.17-8.083-2.59-16.891-1.25-26.436h-2c-1.37 9.776-.95 18.839 1.29 27.178l1.96-.742zm57.52 28.531c8.1 0 15.71-1.348 22.81-4.058l-.5-1.834c-6.82 2.602-14.16 3.911-22.03 3.911l-.28 1.981zm22.8-4.057c7.15-2.704 13.5-6.49 19.04-11.362l-1.23-1.391c-5.31 4.668-11.4 8.308-18.3 10.917l.49 1.836zm19.04-11.362c5.54-4.87 10.12-10.66 13.73-17.358l-1.76-.727c-3.49 6.464-7.88 12.024-13.2 16.694l1.23 1.391zm13.73-17.361c3.62-6.769 5.99-14.168 7.12-22.187h-2c-1.1 7.8-3.4 14.951-6.88 21.466l1.76.72zm7.12-22.187c1.12-8.02.83-15.39-.9-22.099l-1.96.727c1.66 6.452 1.95 13.572.86 21.372h2zm-.9-22.096c-1.72-6.759-4.66-12.58-8.83-17.452l-1.62 1.391c4 4.668 6.83 10.258 8.49 16.782l1.96-.721zm-8.83-17.452c-4.18-4.872-9.46-8.658-15.85-11.362l-1 1.837c6.16 2.608 11.23 6.248 15.23 10.916l1.62-1.391zm-15.84-11.36c-6.34-2.711-13.57-4.059-21.67-4.059l-.28 1.98c7.88 0 14.85 1.31 20.94 3.912l1.01-1.834zm-21.67-4.059c-8.16 0-15.82 1.347-22.98 4.057l.49 1.837c6.88-2.604 14.28-3.913 22.21-3.913l.28-1.98zm-22.99 4.058c-7.08 2.705-13.4 6.491-18.94 11.36l1.23 1.392c5.31-4.67 11.38-8.31 18.21-10.918l-.5-1.834zm-18.94 11.365c-5.48 4.872-10.03 10.692-13.64 17.448l1.76.721c3.49-6.527 7.86-12.118 13.12-16.786l-1.24-1.383zm-13.64 17.445c-3.62 6.71-5.98 14.08-7.11 22.099h2c1.1-7.8 3.39-14.92 6.87-21.372l-1.76-.727zm-7.11 22.099c-1.13 8.02-.84 15.419.88 22.187l1.97-.721c-1.66-6.515-1.95-13.667-.85-21.466h-2zm.88 22.19c1.73 6.695 4.64 12.484 8.75 17.354l1.63-1.383c-3.94-4.67-6.75-10.232-8.41-16.698l-1.97.727zm8.76 17.358c4.17 4.87 9.42 8.656 15.75 11.361l1.01-1.834c-6.1-2.609-11.14-6.249-15.14-10.918l-1.62 1.391zm15.75 11.362c6.4 2.71 13.68 4.057 21.84 4.057l.28-1.981c-7.93 0-14.97-1.309-21.12-3.912l-1 1.836zm4.71-76.45a9.478 9.478 0 011.22-3.487l-1.71-.813a11.523 11.523 0 00-1.51 4.3h2zm1.23-3.504c.67-1.16 1.47-2.14 2.4-2.95l-1.22-1.4a13.829 13.829 0 00-2.91 3.57l1.73.78zm2.4-2.95a12.138 12.138 0 013.29-2.061l-.57-1.806a14.607 14.607 0 00-3.94 2.467l1.22 1.4zm3.27-2.054a9.91 9.91 0 013.73-.735l.28-1.98c-1.54 0-3.05.298-4.54.895l.53 1.82zm3.73-.735h37.41l.28-1.98h-37.41l-.28 1.98zm37.41 0c1.27 0 2.4.245 3.42.728l1.07-1.806c-1.27-.604-2.68-.902-4.21-.902l-.28 1.98zm3.43.735c1.09.492 1.98 1.17 2.67 2.031l1.65-1.354c-.86-1.07-1.96-1.902-3.27-2.497l-1.05 1.82zm2.71 2.077c.76.808 1.31 1.78 1.64 2.928l1.95-.78a8.708 8.708 0 00-2.02-3.593l-1.57 1.445zm1.65 2.944c.33 1.073.42 2.232.24 3.488h2c.22-1.522.12-2.96-.3-4.3l-1.94.812zm.24 3.488l-1.64 11.683h2l1.64-11.683h-2zm-.5 10.692h-12.71l-.28 1.98h12.71l.28-1.98zm-11.85.99l1.31-9.328h-2l-1.31 9.329h2zm.45-10.318h-32.65l-.28 1.98h32.65l.28-1.98zm-33.79.99l-6.52 46.37h2l6.52-46.37h-2zm-5.66 47.36h32.65l.28-1.98h-32.65l-.28 1.98zm33.79-.99l1.3-9.238h-2l-1.3 9.238h2zm.16-8.248h12.71l.28-1.98h-12.71l-.28 1.98zm11.85-.99l-1.64 11.683h2l1.64-11.683h-2zm-1.64 11.683a9.943 9.943 0 01-1.25 3.595l1.73.78c.8-1.392 1.31-2.853 1.52-4.375h-2zm-1.24 3.578a10.593 10.593 0 01-2.46 2.854l1.17 1.445c1.21-.995 2.21-2.16 3-3.486l-1.71-.813zm-2.48 2.876c-.93.81-2.02 1.466-3.26 1.964l.53 1.82a13.601 13.601 0 003.94-2.383l-1.21-1.4zm-3.28 1.971a9.234 9.234 0 01-3.62.728l-.28 1.98c1.54 0 3.03-.298 4.47-.902l-.57-1.806zm-3.62.728h-37.4l-.28 1.98h37.4l.28-1.98zm-37.4 0c-1.27 0-2.45-.245-3.53-.735l-1.05 1.82c1.33.597 2.76.895 4.3.895l.28-1.98zm-3.52-.728a8.993 8.993 0 01-2.73-1.993l-1.58 1.445c.92.98 2 1.766 3.24 2.354l1.07-1.806zm-2.71-1.97c-.72-.819-1.24-1.775-1.59-2.877l-1.94.813a9.616 9.616 0 001.91 3.464l1.62-1.4zm-1.59-2.86a8.475 8.475 0 01-.23-3.595h-2c-.22 1.522-.12 2.983.29 4.375l1.94-.78zm-.23-3.595l7.19-51.17h-2l-7.19 51.17h2z" fill="#fff" mask="url(#a)"/></svg>