<?xml version="1.0" encoding="utf-8"?><svg viewBox="0 0 48 48" xmlns="http://www.w3.org/2000/svg" xmlns:xlink="http://www.w3.org/1999/xlink"><style>:root>svg{display:none}:root>svg:target{display:block}</style><svg fill="none" viewBox="0 0 48 48" id="icon-arrow-next" xmlns="http://www.w3.org/2000/svg"><path d="M26.977 35.18l-12-12.001 12-12" stroke="currentColor" stroke-linecap="square"/></svg><svg fill="none" viewBox="0 0 22 23" id="icon-arrow-next-circle" xmlns="http://www.w3.org/2000/svg"><path fill-rule="evenodd" clip-rule="evenodd" d="M11 22.5c6.075 0 11-4.925 11-11S17.075.5 11 .5 0 5.425 0 11.5s4.925 11 11 11zm4.815-10.592L9.07 5.163l-.749.748 5.997 5.997-5.997 5.996.75.75 6.744-6.746z" fill="currentColor"/></svg><svg fill="none" viewBox="0 0 48 48" id="icon-arrow-prev" xmlns="http://www.w3.org/2000/svg"><path d="M20.703 12.499l12 12-12 12" stroke="currentColor" stroke-linecap="square"/></svg><svg fill="none" viewBox="0 0 30 30" id="icon-basket" xmlns="http://www.w3.org/2000/svg"><circle cx="2.5" cy="2.5" r="2.5" transform="matrix(-1 0 0 1 26.5 21)" fill="currentColor"/><circle cx="2.5" cy="2.5" r="2.5" transform="matrix(-1 0 0 1 10 21)" fill="currentColor"/><path d="M20.035 20.5H11.97m-4.596-3.451L5 4H1m23.459 13.633L26 8H6.5" stroke="currentColor" stroke-width="2" stroke-linecap="square"/></svg><svg fill="none" viewBox="0 0 24 24" id="icon-basket-filled" xmlns="http://www.w3.org/2000/svg"><path fill-rule="evenodd" clip-rule="evenodd" d="M12.059 3.496c1.622 0 2.98 1.093 3.415 2.576H8.641c.436-1.483 1.795-2.576 3.418-2.576zm5.48 2.576c-.473-2.598-2.748-4.576-5.48-4.576a5.58 5.58 0 00-5.482 4.576H1.458v16.432h21.085V6.072h-5.004z" fill="currentColor"/></svg><svg fill="none" viewBox="0 0 25 24" id="icon-catalog" xmlns="http://www.w3.org/2000/svg"><circle cx="4.656" cy="12" r="4" transform="rotate(45 4.656 12)" fill="#FF0A07"/><circle cx="20.211" cy="12" r="4" transform="rotate(45 20.21 12)" fill="#FF0A07"/><circle cx="12.434" cy="19.778" r="4" transform="rotate(45 12.434 19.778)" fill="#FF0A07"/><circle cx="12.434" cy="4.222" r="4" transform="rotate(45 12.434 4.222)" fill="#FF0A07"/></svg><svg fill="none" viewBox="0 0 22 20" id="icon-catalog-01" xmlns="http://www.w3.org/2000/svg"><path d="M11 0l10.462 7.6-3.996 12.3H4.534L.538 7.6 11 0z" fill="currentColor"/></svg><svg fill="none" viewBox="0 0 29 11" id="icon-catalog-02" xmlns="http://www.w3.org/2000/svg"><path fill-rule="evenodd" clip-rule="evenodd" d="M28.286 0H4.34L0 10.54h4.57a5.272 5.272 0 019.94 0h9.99L28.286 0z" fill="currentColor"/></svg><svg fill="none" viewBox="0 0 18 24" id="icon-catalog-03" xmlns="http://www.w3.org/2000/svg"><circle cx="9" cy="9" r="8.5" fill="currentColor" stroke="currentColor"/><path d="M9 15v9" stroke="currentColor" stroke-width="4"/></svg><svg fill="none" viewBox="0 0 26 26" id="icon-catalog-04" xmlns="http://www.w3.org/2000/svg"><path d="M13 0l2.919 8.983h9.445l-7.642 5.551 2.92 8.983L13 17.966l-7.641 5.551 2.918-8.983-7.64-5.551h9.444L13 0z" fill="currentColor"/></svg><svg fill="none" viewBox="0 0 26 26" id="icon-catalog-05" xmlns="http://www.w3.org/2000/svg"><path d="M13 0l11.258 19.5H1.742L13 0z" fill="currentColor"/></svg><svg fill="none" viewBox="0 0 30 30" id="icon-close" xmlns="http://www.w3.org/2000/svg"><path d="M5 25.5l20-20M5 5.5l6.522 6.522m6.956 6.956L25 25.5" stroke="currentColor" stroke-width="2" stroke-linecap="square"/></svg><svg fill="none" viewBox="0 0 26 27" id="icon-inst" xmlns="http://www.w3.org/2000/svg"><path d="M13 10.117a3.392 3.392 0 00-3.385 3.385A3.392 3.392 0 0013 16.887a3.392 3.392 0 003.385-3.385A3.392 3.392 0 0013 10.117zm10.151 3.385c0-1.402.013-2.79-.066-4.19-.079-1.625-.45-3.067-1.637-4.255-1.191-1.19-2.631-1.559-4.256-1.638-1.402-.078-2.79-.066-4.19-.066-1.401 0-2.79-.012-4.189.066-1.625.079-3.067.45-4.255 1.638-1.191 1.19-1.56 2.63-1.638 4.255-.079 1.402-.066 2.79-.066 4.19 0 1.399-.013 2.79.066 4.19.079 1.624.45 3.067 1.638 4.255 1.19 1.19 2.63 1.559 4.255 1.637 1.402.08 2.79.067 4.19.067 1.401 0 2.79.012 4.189-.067 1.625-.078 3.067-.449 4.256-1.637 1.19-1.191 1.558-2.63 1.637-4.256.081-1.399.066-2.787.066-4.19zM13 18.709a5.2 5.2 0 01-5.208-5.207A5.2 5.2 0 0113 8.294a5.2 5.2 0 015.208 5.208A5.2 5.2 0 0113 18.709zm5.42-9.412a1.215 1.215 0 01-1.215-1.216c0-.673.543-1.216 1.216-1.216a1.215 1.215 0 01.86 2.076 1.214 1.214 0 01-.86.356z" fill="currentColor"/></svg><svg fill="none" viewBox="0 0 26 27" id="icon-rutube" xmlns="http://www.w3.org/2000/svg"><path fill-rule="evenodd" clip-rule="evenodd" d="M7.59 3.16h10.82a4.933 4.933 0 014.933 4.932v10.82a4.933 4.933 0 01-4.933 4.933H7.59a4.933 4.933 0 01-4.933-4.933V8.092A4.933 4.933 0 017.59 3.159zm1.676 9.862h6.206v.001c.362 0 .614-.047.74-.157.127-.11.206-.315.206-.63v-.882c0-.299-.079-.503-.205-.614-.127-.11-.379-.173-.741-.173H9.266v2.455zm-2.631-4.77h9.262V8.25c.583 0 1.056.063 1.434.173.379.127.694.315.977.583.268.283.457.598.567.96.11.362.174.835.174 1.433v.787c0 1.008-.174 1.763-.52 2.236-.346.472-.766.759-1.702.897l2.537 3.433h-2.947l-2.3-3.417h-4.85v3.417H6.634V8.252z" fill="currentColor"/></svg><svg fill="none" viewBox="0 0 26 26" id="icon-tg" xmlns="http://www.w3.org/2000/svg"><path d="M13 2.167C7.02 2.167 2.167 7.02 2.167 13S7.02 23.833 13 23.833 23.833 18.98 23.833 13 18.98 2.167 13 2.167zm5.027 7.366c-.163 1.712-.867 5.872-1.225 7.79-.151.812-.454 1.083-.736 1.115-.628.055-1.105-.411-1.712-.812-.953-.629-1.495-1.018-2.416-1.625-1.072-.704-.379-1.094.239-1.723.162-.162 2.936-2.686 2.99-2.914a.217.217 0 00-.054-.195c-.066-.054-.152-.032-.228-.021-.098.021-1.614 1.029-4.572 3.022-.433.293-.823.444-1.17.433-.39-.01-1.126-.216-1.679-.4-.682-.217-1.213-.336-1.17-.715.022-.195.293-.39.802-.596 3.163-1.376 5.265-2.286 6.316-2.72C16.423 8.916 17.04 8.7 17.452 8.7c.087 0 .293.022.423.13a.43.43 0 01.152.293c-.011.065.01.26 0 .411z" fill="currentColor"/></svg><svg fill="none" viewBox="0 0 27 27" id="icon-whatsapp" xmlns="http://www.w3.org/2000/svg"><path d="M2.812 2.811h21.375v21.375H2.812V2.811z" fill="currentColor"/><path d="M15.514 2.968l-.642-.09a10.271 10.271 0 00-10.035 4.5 10.237 10.237 0 00-.798 10.868 1.463 1.463 0 01.112 1.125c-.461 1.586-.889 3.184-1.339 4.86l.563-.169c1.519-.405 3.037-.81 4.556-1.181.32-.067.654-.035.956.09a10.63 10.63 0 106.627-20.003zm2.835 14.76a3.104 3.104 0 01-3.06.63 10.35 10.35 0 01-5.772-4.174 9.563 9.563 0 01-1.248-2.34 2.801 2.801 0 01.618-2.835 1.384 1.384 0 011.485-.472c.225.056.383.382.585.63.165.465.357.919.574 1.361a1.058 1.058 0 01-.225 1.474c-.506.45-.427.821-.067 1.327a7.537 7.537 0 003.172 2.61c.36.158.63.192.866-.18.102-.146.237-.27.35-.405.652-.82.45-.81 1.484-.36.33.14.649.3.956.484.304.18.765.372.833.641a1.63 1.63 0 01-.551 1.61z" fill="currentColor"/></svg><svg fill="none" viewBox="0 0 26 27" id="icon-yt" xmlns="http://www.w3.org/2000/svg"><path d="M10.833 16.752l5.623-3.25-5.623-3.25v6.5zM23.357 8.27c.14.509.238 1.191.303 2.058.076.867.108 1.614.108 2.264l.065.91c0 2.372-.173 4.117-.476 5.232-.271.975-.9 1.604-1.874 1.875-.51.14-1.441.238-2.871.303a72.138 72.138 0 01-3.89.108L13 21.085c-4.54 0-7.367-.173-8.482-.476-.975-.271-1.604-.9-1.875-1.875-.14-.509-.238-1.191-.303-2.058a26.068 26.068 0 01-.108-2.264l-.065-.91c0-2.373.173-4.117.476-5.232.271-.975.9-1.604 1.875-1.875.509-.14 1.44-.238 2.87-.303a72.209 72.209 0 013.89-.108L13 5.919c4.54 0 7.367.173 8.483.476.974.271 1.603.9 1.874 1.875z" fill="currentColor"/></svg></svg>