<?xml version="1.0" encoding="utf-8"?><svg viewBox="0 0 48 48" xmlns="http://www.w3.org/2000/svg" xmlns:xlink="http://www.w3.org/1999/xlink"><style>:root>svg{display:none}:root>svg:target{display:block}</style><svg fill="none" viewBox="0 0 24 16" id="icon-add-modification" xmlns="http://www.w3.org/2000/svg"><path d="M23 8.17a4.5 4.5 0 10-4.5 4.5v1a5.5 5.5 0 110-11 5.5 5.5 0 010 11v-1a4.5 4.5 0 004.5-4.5zM5.5 2.67a5.5 5.5 0 110 11 5.5 5.5 0 010-11zm-4.472 6A4.5 4.5 0 005 12.64V8.67H1.028zM6 12.64a4.5 4.5 0 003.972-3.97H6v3.97zm0-4.97h3.972A4.5 4.5 0 006 3.698V7.67zM5 3.698A4.5 4.5 0 001.028 7.67H5V3.698z" fill="currentColor"/></svg><svg fill="none" viewBox="0 0 14 14" id="icon-address" xmlns="http://www.w3.org/2000/svg"><path fill-rule="evenodd" clip-rule="evenodd" d="M7.714 9.95a5.001 5.001 0 10-1.429 0v3.622h1.429V9.948z" fill="currentColor"/></svg><svg fill="none" viewBox="0 0 48 48" id="icon-arrow-next" xmlns="http://www.w3.org/2000/svg"><path d="M20.703 12.499l12 12-12 12" stroke="currentColor" stroke-linecap="square"/></svg><svg fill="none" viewBox="0 0 22 23" id="icon-arrow-next-circle" xmlns="http://www.w3.org/2000/svg"><path fill-rule="evenodd" clip-rule="evenodd" d="M11 22.5c6.075 0 11-4.925 11-11S17.075.5 11 .5 0 5.425 0 11.5s4.925 11 11 11zm4.815-10.592L9.07 5.163l-.749.748 5.997 5.997-5.997 5.996.75.75 6.744-6.746z" fill="currentColor"/></svg><svg fill="none" viewBox="0 0 30 31" id="icon-arrow-next-wide" xmlns="http://www.w3.org/2000/svg"><path d="M3 15.5h17M20 7.5l8 8-8 8" stroke="currentColor" stroke-width="2" stroke-linecap="square"/></svg><svg fill="none" viewBox="0 0 48 48" id="icon-arrow-prev" xmlns="http://www.w3.org/2000/svg"><path d="M26.977 35.18l-12-12.001 12-12" stroke="currentColor" stroke-linecap="square"/></svg><svg fill="none" viewBox="0 0 30 30" id="icon-basket" xmlns="http://www.w3.org/2000/svg"><circle cx="2.5" cy="2.5" r="2.5" transform="matrix(-1 0 0 1 26.5 21)" fill="currentColor"/><circle cx="2.5" cy="2.5" r="2.5" transform="matrix(-1 0 0 1 10 21)" fill="currentColor"/><path d="M20.035 20.5H11.97m-4.596-3.451L5 4H1m23.459 13.633L26 8H6.5" stroke="currentColor" stroke-width="2" stroke-linecap="square"/></svg><svg fill="none" viewBox="0 0 24 24" id="icon-basket-filled" xmlns="http://www.w3.org/2000/svg"><path fill-rule="evenodd" clip-rule="evenodd" d="M12.059 3.496c1.622 0 2.98 1.093 3.415 2.576H8.641c.436-1.483 1.795-2.576 3.418-2.576zm5.48 2.576c-.473-2.598-2.748-4.576-5.48-4.576a5.58 5.58 0 00-5.482 4.576H1.458v16.432h21.085V6.072h-5.004z" fill="currentColor"/></svg><svg fill="none" viewBox="0 0 19 15" id="icon-caret" xmlns="http://www.w3.org/2000/svg"><path opacity=".15" d="M2.715 5.599l6.598 6.598 6.6-6.598" stroke="currentColor" stroke-width="2"/></svg><svg fill="none" viewBox="0 0 25 24" id="icon-catalog" xmlns="http://www.w3.org/2000/svg"><circle cx="4.656" cy="12" r="4" transform="rotate(45 4.656 12)" fill="#FF0A07"/><circle cx="20.211" cy="12" r="4" transform="rotate(45 20.21 12)" fill="#FF0A07"/><circle cx="12.434" cy="19.778" r="4" transform="rotate(45 12.434 19.778)" fill="#FF0A07"/><circle cx="12.434" cy="4.222" r="4" transform="rotate(45 12.434 4.222)" fill="#FF0A07"/></svg><svg fill="none" viewBox="0 0 22 20" id="icon-catalog-01" xmlns="http://www.w3.org/2000/svg"><path d="M11 0l10.462 7.6-3.996 12.3H4.534L.538 7.6 11 0z" fill="currentColor"/></svg><svg fill="none" viewBox="0 0 29 11" id="icon-catalog-02" xmlns="http://www.w3.org/2000/svg"><path fill-rule="evenodd" clip-rule="evenodd" d="M28.286 0H4.34L0 10.54h4.57a5.272 5.272 0 019.94 0h9.99L28.286 0z" fill="currentColor"/></svg><svg fill="none" viewBox="0 0 18 24" id="icon-catalog-03" xmlns="http://www.w3.org/2000/svg"><circle cx="9" cy="9" r="8.5" fill="currentColor" stroke="currentColor"/><path d="M9 15v9" stroke="currentColor" stroke-width="4"/></svg><svg fill="none" viewBox="0 0 26 26" id="icon-catalog-04" xmlns="http://www.w3.org/2000/svg"><path d="M13 0l2.919 8.983h9.445l-7.642 5.551 2.92 8.983L13 17.966l-7.641 5.551 2.918-8.983-7.64-5.551h9.444L13 0z" fill="currentColor"/></svg><svg fill="none" viewBox="0 0 26 26" id="icon-catalog-05" xmlns="http://www.w3.org/2000/svg"><path d="M13 0l11.258 19.5H1.742L13 0z" fill="currentColor"/></svg><svg fill="none" viewBox="0 0 30 30" id="icon-close" xmlns="http://www.w3.org/2000/svg"><path d="M5 25.5l20-20M5 5.5l6.522 6.522m6.956 6.956L25 25.5" stroke="currentColor" stroke-width="2" stroke-linecap="square"/></svg><svg fill="none" viewBox="0 0 24 16" id="icon-configuration" xmlns="http://www.w3.org/2000/svg"><circle cx="5.5" cy="8.5" r="5.5" fill="currentColor"/><circle cx="18.5" cy="8.5" r="5" stroke="currentColor"/></svg><svg fill="none" viewBox="0 0 20 17" id="icon-favorites" xmlns="http://www.w3.org/2000/svg"><path d="M1 6.163C1 3.262 3.13 1 6 1c1.929 0 3.244 1.102 4 2.066C10.756 2.102 12.071 1 14 1c2.87 0 5 2.264 5 5.163 0 4.561-4.568 7.856-8.243 9.66a1.71 1.71 0 01-1.514 0C5.568 14.02 1 10.724 1 6.163z" stroke="currentColor" stroke-width="2"/></svg><svg fill="none" viewBox="0 0 20 17" id="icon-favorites-filled" xmlns="http://www.w3.org/2000/svg"><path d="M1 6.163C1 3.262 3.13 1 6 1c1.929 0 3.244 1.102 4 2.066C10.756 2.102 12.071 1 14 1c2.87 0 5 2.264 5 5.163 0 4.561-4.568 7.856-8.243 9.66a1.71 1.71 0 01-1.514 0C5.568 14.02 1 10.724 1 6.163z" fill="currentColor" stroke="currentColor" stroke-width="2"/></svg><svg fill="none" viewBox="0 0 24 16" id="icon-filter" xmlns="http://www.w3.org/2000/svg"><circle cx="5.5" cy="8.5" r="5.5" fill="currentColor"/><circle cx="18.5" cy="8.5" r="5" stroke="currentColor"/></svg><svg fill="none" viewBox="0 0 26 27" id="icon-inst" xmlns="http://www.w3.org/2000/svg"><path d="M13 10.117a3.392 3.392 0 00-3.385 3.385A3.392 3.392 0 0013 16.887a3.392 3.392 0 003.385-3.385A3.392 3.392 0 0013 10.117zm10.151 3.385c0-1.402.013-2.79-.066-4.19-.079-1.625-.45-3.067-1.637-4.255-1.191-1.19-2.631-1.559-4.256-1.638-1.402-.078-2.79-.066-4.19-.066-1.401 0-2.79-.012-4.189.066-1.625.079-3.067.45-4.255 1.638-1.191 1.19-1.56 2.63-1.638 4.255-.079 1.402-.066 2.79-.066 4.19 0 1.399-.013 2.79.066 4.19.079 1.624.45 3.067 1.638 4.255 1.19 1.19 2.63 1.559 4.255 1.637 1.402.08 2.79.067 4.19.067 1.401 0 2.79.012 4.189-.067 1.625-.078 3.067-.449 4.256-1.637 1.19-1.191 1.558-2.63 1.637-4.256.081-1.399.066-2.787.066-4.19zM13 18.709a5.2 5.2 0 01-5.208-5.207A5.2 5.2 0 0113 8.294a5.2 5.2 0 015.208 5.208A5.2 5.2 0 0113 18.709zm5.42-9.412a1.215 1.215 0 01-1.215-1.216c0-.673.543-1.216 1.216-1.216a1.215 1.215 0 01.86 2.076 1.214 1.214 0 01-.86.356z" fill="currentColor"/></svg><svg fill="none" viewBox="0 0 15 15" id="icon-length-in" xmlns="http://www.w3.org/2000/svg"><path d="M.5 14.314a.5.5 0 00.5.5h4.5a.5.5 0 100-1h-4v-4a.5.5 0 00-1 0v4.5zm14-13a.5.5 0 00-.5-.5H9.5a.5.5 0 000 1h4v4a.5.5 0 001 0v-4.5zm-13.5 13l.354.353 13-13L14 1.314 13.646.96l-13 13 .354.354z" fill="currentColor"/></svg><svg fill="none" viewBox="0 0 30 30" id="icon-like" xmlns="http://www.w3.org/2000/svg"><path d="M3 12.228C3 8.167 5.84 5 9.667 5 12.239 5 13.992 6.543 15 7.892 16.008 6.542 17.761 5 20.333 5 24.16 5 27 8.17 27 12.228c0 6.386-6.09 10.999-10.99 13.525a2.19 2.19 0 01-2.02 0C9.09 23.228 3 18.613 3 12.228z" stroke="currentColor" stroke-width="2"/></svg><svg fill="none" viewBox="0 0 24 24" id="icon-phone" xmlns="http://www.w3.org/2000/svg"><path d="M13 3.572V5a8 8 0 01-8 8H3.572L1 10.428l3-3.001L6.146 9.57 9.57 6.145 7.427 4l3-3.001L13 3.572z" fill="currentColor"/></svg><svg fill="none" viewBox="0 0 14 14" id="icon-rub" xmlns="http://www.w3.org/2000/svg"><path d="M7.76 8.26H3.95v2.08h5.449v.88h-5.45V14H2.845v-2.78H1v-.88h1.844V8.26H1v-1h1.844V0H7.76c1.16 0 2.157.407 2.99 1.22.834.813 1.25 1.787 1.25 2.92s-.416 2.107-1.25 2.92c-.833.8-1.83 1.2-2.99 1.2zm0-7.26H3.95v6.26h3.81c.874 0 1.618-.3 2.233-.9a3.022 3.022 0 00.921-2.22c0-.867-.307-1.607-.921-2.22A3.044 3.044 0 007.76 1z" fill="currentColor"/></svg><svg fill="none" viewBox="0 0 26 27" id="icon-rutube" xmlns="http://www.w3.org/2000/svg"><path fill-rule="evenodd" clip-rule="evenodd" d="M7.59 3.16h10.82a4.933 4.933 0 014.933 4.932v10.82a4.933 4.933 0 01-4.933 4.933H7.59a4.933 4.933 0 01-4.933-4.933V8.092A4.933 4.933 0 017.59 3.159zm1.676 9.862h6.206v.001c.362 0 .614-.047.74-.157.127-.11.206-.315.206-.63v-.882c0-.299-.079-.503-.205-.614-.127-.11-.379-.173-.741-.173H9.266v2.455zm-2.631-4.77h9.262V8.25c.583 0 1.056.063 1.434.173.379.127.694.315.977.583.268.283.457.598.567.96.11.362.174.835.174 1.433v.787c0 1.008-.174 1.763-.52 2.236-.346.472-.766.759-1.702.897l2.537 3.433h-2.947l-2.3-3.417h-4.85v3.417H6.634V8.252z" fill="currentColor"/></svg><svg fill="none" viewBox="0 0 18 18" id="icon-search" xmlns="http://www.w3.org/2000/svg"><path d="M15.346 17.026a1 1 0 101.414-1.414l-1.414 1.414zm-5-5l5 5 1.414-1.414-5-5-1.414 1.414z" fill="currentColor"/><path d="M1.069 7.501l.001-.137a5.931 5.931 0 0111.861.135l-.001.138a5.931 5.931 0 01-11.861-.136z" stroke="currentColor" stroke-width="2" stroke-linecap="round"/></svg><svg fill="none" viewBox="0 0 16 15" id="icon-sort" xmlns="http://www.w3.org/2000/svg"><path fill-rule="evenodd" clip-rule="evenodd" d="M12 1c.406 0 .735.332.735.74v9.732l2.01-2.027a.73.73 0 011.04 0 .745.745 0 010 1.047l-3.265 3.291a.729.729 0 01-1.033.007l-.007-.007-3.265-3.291a.745.745 0 01.238-1.208.73.73 0 01.802.161l2.01 2.027V1.74c0-.41.33-.74.735-.74zM4 14a.738.738 0 00.735-.74V3.527l2.01 2.027a.73.73 0 001.04 0 .745.745 0 000-1.047L4.52 1.217a.73.73 0 00-1.04 0L.215 4.508a.745.745 0 00.238 1.208.73.73 0 00.802-.161l2.01-2.027v9.731c0 .41.33.741.735.741z" fill="currentColor"/></svg><svg fill="none" viewBox="0 0 26 26" id="icon-tg" xmlns="http://www.w3.org/2000/svg"><path d="M13 2.167C7.02 2.167 2.167 7.02 2.167 13S7.02 23.833 13 23.833 23.833 18.98 23.833 13 18.98 2.167 13 2.167zm5.027 7.366c-.163 1.712-.867 5.872-1.225 7.79-.151.812-.454 1.083-.736 1.115-.628.055-1.105-.411-1.712-.812-.953-.629-1.495-1.018-2.416-1.625-1.072-.704-.379-1.094.239-1.723.162-.162 2.936-2.686 2.99-2.914a.217.217 0 00-.054-.195c-.066-.054-.152-.032-.228-.021-.098.021-1.614 1.029-4.572 3.022-.433.293-.823.444-1.17.433-.39-.01-1.126-.216-1.679-.4-.682-.217-1.213-.336-1.17-.715.022-.195.293-.39.802-.596 3.163-1.376 5.265-2.286 6.316-2.72C16.423 8.916 17.04 8.7 17.452 8.7c.087 0 .293.022.423.13a.43.43 0 01.152.293c-.011.065.01.26 0 .411z" fill="currentColor"/></svg><svg fill="none" viewBox="0 0 24 24" id="icon-time" xmlns="http://www.w3.org/2000/svg"><path d="M7 1a6 6 0 00-6 6c0 3.308 2.692 6 6 6a6 6 0 006-6c0-3.308-2.692-6-6-6zm3.115 6.923H6.654a.115.115 0 01-.116-.115V2.962a.115.115 0 01.116-.116h.692a.115.115 0 01.116.116V7h2.653a.116.116 0 01.116.115v.693a.116.116 0 01-.116.115z" fill="currentColor"/></svg><svg fill="none" viewBox="0 0 27 27" id="icon-whatsapp" xmlns="http://www.w3.org/2000/svg"><path d="M15.482 3.191l-.63-.088a10.132 10.132 0 00-5.573.777A10.083 10.083 0 004.99 7.507a9.984 9.984 0 00-.785 10.636 1.427 1.427 0 01.11 1.1C3.863 20.797 3.443 22.36 3 24l.553-.165c1.492-.396 2.985-.793 4.477-1.156a1.61 1.61 0 01.94.088 10.482 10.482 0 0012.254-2.288 10.366 10.366 0 001.329-12.345A10.421 10.421 0 0019.555 4.9a10.471 10.471 0 00-4.073-1.71zm2.786 14.445a3.056 3.056 0 01-3.007.617 10.169 10.169 0 01-5.672-4.085 9.344 9.344 0 01-1.227-2.29 2.73 2.73 0 01.608-2.774 1.36 1.36 0 011.46-.463c.22.055.375.374.574.617.162.455.35.899.564 1.332a1.032 1.032 0 01-.221 1.442c-.497.44-.42.804-.066 1.3a7.4 7.4 0 003.117 2.554c.354.154.62.187.852-.176.1-.144.232-.265.342-.397.642-.804.443-.793 1.46-.352.324.136.637.293.94.473.298.176.751.364.818.628a1.59 1.59 0 01-.542 1.574z" fill="currentColor"/></svg><svg fill="none" viewBox="0 0 16 14" id="icon-width-in" xmlns="http://www.w3.org/2000/svg"><path d="M.646 6.646a.5.5 0 000 .708l3.182 3.182a.5.5 0 10.708-.708L1.707 7l2.829-2.828a.5.5 0 10-.708-.708L.646 6.646zm14.708.708a.5.5 0 000-.708l-3.182-3.182a.5.5 0 10-.708.708L14.293 7l-2.829 2.828a.5.5 0 10.708.708l3.182-3.182zM1 7v.5h14v-1H1V7z" fill="currentColor"/></svg><svg fill="none" viewBox="0 0 26 27" id="icon-yt" xmlns="http://www.w3.org/2000/svg"><path d="M10.833 16.752l5.623-3.25-5.623-3.25v6.5zM23.357 8.27c.14.509.238 1.191.303 2.058.076.867.108 1.614.108 2.264l.065.91c0 2.372-.173 4.117-.476 5.232-.271.975-.9 1.604-1.874 1.875-.51.14-1.441.238-2.871.303a72.138 72.138 0 01-3.89.108L13 21.085c-4.54 0-7.367-.173-8.482-.476-.975-.271-1.604-.9-1.875-1.875-.14-.509-.238-1.191-.303-2.058a26.068 26.068 0 01-.108-2.264l-.065-.91c0-2.373.173-4.117.476-5.232.271-.975.9-1.604 1.875-1.875.509-.14 1.44-.238 2.87-.303a72.209 72.209 0 013.89-.108L13 5.919c4.54 0 7.367.173 8.483.476.974.271 1.603.9 1.874 1.875z" fill="currentColor"/></svg></svg>